<svg xmlns="http://www.w3.org/2000/svg" width="309.048" height="112.801" viewBox="0 0 309.048 112.801">
  <g id="グループ_126" data-name="グループ 126" transform="translate(-338.665 -5446.023)">
    <path id="パス_2183" data-name="パス 2183" d="M384.166,5558.8q101.37-18.329,203.632-31.131,28.722-3.588,57.5-6.734c1.411-.154,1.427-2.386,0-2.23q-102.328,11.21-203.948,27.951-28.925,4.771-57.773,9.994c-1.41.255-.813,2.4.593,2.15Z" fill="#fff"/>
    <g id="グループ_96" data-name="グループ 96">
      <path id="パス_2184" data-name="パス 2184" d="M364.06,5469.22a4.511,4.511,0,0,1-1.106-.1c-.305-.111-.533-.2-.687-.275a.735.735,0,0,0-.507-.03,1.55,1.55,0,0,1-.872-.167,1.268,1.268,0,0,1-.9.186,1.335,1.335,0,0,0-.725-.029,1.554,1.554,0,0,1-.818-.064,1.746,1.746,0,0,1-.9.188c-.193.107-.476.052-.851-.17a3.185,3.185,0,0,1-.823.267,5.977,5.977,0,0,1-1.079-.057,2.12,2.12,0,0,1-1.211.134,1.387,1.387,0,0,1-.884.315c-.349.01-.661.031-.934.06l-.757.084a5.475,5.475,0,0,0-.688.119,2.89,2.89,0,0,1-.713.078,5.859,5.859,0,0,0-1.348.28q-.977.285-1.865.556a1.463,1.463,0,0,1,.535,1.08,1.731,1.731,0,0,1-.248.728q-.318,1.479-.753,3.1a2.467,2.467,0,0,1-.05,1.122c-.107.376-.2.73-.278,1.06a2.023,2.023,0,0,1-.212,1.249,9.715,9.715,0,0,1-.132,1.984,8.084,8.084,0,0,0,1.018-.092c.3-.046.558-.1.772-.15a2.306,2.306,0,0,1,.627-.068,1.6,1.6,0,0,1,.931-.279.991.991,0,0,0,.646-.114.847.847,0,0,1,.648-.071c.352-.244.611-.338.778-.284a.708.708,0,0,0,.58-.106.656.656,0,0,1,.7.03q.631-.242.9-.361a.841.841,0,0,1,.636.018.783.783,0,0,1,.864-.1,1.467,1.467,0,0,1,.848-.466c.245-.013.515-.019.807-.022a3.709,3.709,0,0,0,.685-.143,7.311,7.311,0,0,1,1.158-.192,6.79,6.79,0,0,0,1.246-.226,1.82,1.82,0,0,1,1.008.021,1.32,1.32,0,0,1,.892-.055.678.678,0,0,1,.459.584,2.2,2.2,0,0,1-.034.879.916.916,0,0,1-.5.625,2.054,2.054,0,0,1-1.293-.011q-.74.038-1.156.04a3.273,3.273,0,0,0-.756.084l-2.639.291a2.467,2.467,0,0,1-1.024.243q-.471.1-.918.211c-.3.076-.612.141-.941.192a3.53,3.53,0,0,0-.83.221,3.932,3.932,0,0,1-.652.226,5.292,5.292,0,0,1-.974.107c-.368.1-.657.183-.869.249a5.462,5.462,0,0,1-.813.178,2.636,2.636,0,0,0-.886.3,1.989,1.989,0,0,1-.983.217,2.366,2.366,0,0,0-1.322.518,11.034,11.034,0,0,0-.585,2.428,26.89,26.89,0,0,0-.249,3.311q-.036,1.842.011,2.275c.031.288.051.592.056.911a3.026,3.026,0,0,0,.2.986,2.351,2.351,0,0,0,1.163.222q.654-.027,3.765-.59t4.352-.83q1.239-.265,2.1-.406a2.248,2.248,0,0,1,.617-.155q.322-.036.795-.132a5.447,5.447,0,0,1,1.792-.416,4.818,4.818,0,0,1,1.538-.345,2.59,2.59,0,0,1,1.056-.336,5.124,5.124,0,0,1,1.245-.225,1.709,1.709,0,0,1,1.355-.017q.729.27.746.814a1.092,1.092,0,0,1-.238.814,2.1,2.1,0,0,1-.5.406.6.6,0,0,1-.522.035.649.649,0,0,0-.562.063,1.931,1.931,0,0,1-.61.22,2.008,2.008,0,0,1-.747-.027,1.024,1.024,0,0,0-.713.079,1.4,1.4,0,0,1-.637.179c-.235.012-.694.069-1.381.174q-.858.183-1.972.393t-1.588.285q-.473.073-1.242.246t-3.262.579a20.293,20.293,0,0,0-3.1.648,10.112,10.112,0,0,1-1.809.461,2.833,2.833,0,0,1-1.475.119,3.769,3.769,0,0,1-1.517-.664,1.625,1.625,0,0,1-.677-1.37,3.338,3.338,0,0,1-.056-1.307,5.49,5.49,0,0,0,.029-1.316,1.475,1.475,0,0,1,.03-.923.722.722,0,0,0,.147-.65,2.937,2.937,0,0,1-.078-.714,3.887,3.887,0,0,0,.2-1.139,2.753,2.753,0,0,1,.087-.8q.106-.428.683-5.13t.71-5.462c.091-.506.194-1.161.309-1.96a4.2,4.2,0,0,1,.148-1.046,6.11,6.11,0,0,0,.2-1.006,12.085,12.085,0,0,0,.062-1.407,5.011,5.011,0,0,0-.775.3,1.979,1.979,0,0,1-.547.192q-.365.084-.789.2a2.085,2.085,0,0,0-.728.342,1.668,1.668,0,0,0-.415.418c-.072.125-.309.239-.705.34a2.353,2.353,0,0,1-1.012-.041c-.39-.088-.62-.2-.694-.339s-.173-.31-.3-.515a.641.641,0,0,1-.066-.6,1.932,1.932,0,0,1,.435-.618,1.483,1.483,0,0,1,.765-.414c.3-.06.847-.179,1.645-.356q5.917-1.133,9.106-1.572,2.5-.363,5.094-.65l1.341-.147q3.248-.313,4.421-.4a11.837,11.837,0,0,1,1.849-.094,4.59,4.59,0,0,1,1.139.2,1.037,1.037,0,0,1,.681.626,1.441,1.441,0,0,1,.022.982Q365.049,5469.067,364.06,5469.22Z" fill="#fff"/>
      <path id="パス_2185" data-name="パス 2185" d="M386.021,5479.842q-.606.854-1.226,1.579c-.243.174-.461.322-.651.446a2.328,2.328,0,0,0-.623.7,7.96,7.96,0,0,1-.736.868,2.014,2.014,0,0,1-.726.759,1.558,1.558,0,0,0-.621.527c-.044.386-.148.585-.306.6a1.7,1.7,0,0,0-.718.43,3.1,3.1,0,0,0-.569.588,1.712,1.712,0,0,1-1.109.474c-.226.316-.421.482-.579.5a2.492,2.492,0,0,0-.615.178,4.216,4.216,0,0,1-.915.232,5.186,5.186,0,0,1-1.658-.146,3.925,3.925,0,0,1-2.131-2.654,8.777,8.777,0,0,1-.14-3.442q.275-1.693.841-4.1a38.079,38.079,0,0,1,1.134-4q.346-1.221.909-1.283a2.7,2.7,0,0,1,1.019.107.885.885,0,0,1,.524.577,1.007,1.007,0,0,1-.141.912,13.955,13.955,0,0,1-.623,1.295q-.311.56-.768,1.573-.616,2.343-.844,3.463a19.584,19.584,0,0,0-.316,2.093,6.385,6.385,0,0,0,.1,1.893,2.548,2.548,0,0,0,.888,1.5,1.27,1.27,0,0,0,1.525.139,11.117,11.117,0,0,0,1.363-.742,13.131,13.131,0,0,0,1.254-.925q.642-.531,1.278-1.126t1.225-1.186q1.414-1.469,2.451-2.787a18.988,18.988,0,0,0,2.221-4.074,2.973,2.973,0,0,0,.443-.948q.138-.516.286-.972a1.64,1.64,0,0,1,.345-.651,1.053,1.053,0,0,1,.494-.273,1.388,1.388,0,0,1,.753.07.86.86,0,0,1,.589.591,1.872,1.872,0,0,1,.056.893.765.765,0,0,1-.18.566,1.086,1.086,0,0,0-.235.639,1.312,1.312,0,0,1-.272.709,3.8,3.8,0,0,0-.5.842,12.718,12.718,0,0,0-.733,2.882,11.473,11.473,0,0,1-.325,1.612q-.234.858-.569,2.186a9.379,9.379,0,0,0-.341,2.071c1.038-.637,1.7-1.062,1.983-1.268s.627-.463,1.031-.77a3.245,3.245,0,0,1,.787-.612,8.6,8.6,0,0,0,1-.679c.624-.157,1.035-.135,1.233.06a1.059,1.059,0,0,1,.285.8.913.913,0,0,1-.292.733c-.188.151-.4.328-.641.53a7.977,7.977,0,0,0-.971.524,3.659,3.659,0,0,1-.857.378,2.594,2.594,0,0,1-.915.627,3.683,3.683,0,0,0-.947.542,3.828,3.828,0,0,1-.926.539,2.187,2.187,0,0,1-1,.854,3.31,3.31,0,0,0-.257,1.233,1.129,1.129,0,0,1-.143.693,12.029,12.029,0,0,1-.284,1.586,6.393,6.393,0,0,0-.2,1.575,1.358,1.358,0,0,1-.184,1.115c-.018.381-.026.7-.025.966a3.665,3.665,0,0,1-.231,1.076c-.058.27-.118.523-.179.764a3.639,3.639,0,0,0-.357,1.134,2.165,2.165,0,0,1-.707,1.128,3.469,3.469,0,0,1-.344.651,2.845,2.845,0,0,1-.574.545,3.58,3.58,0,0,1-1.19.524,4.086,4.086,0,0,1-1.382.174,5.9,5.9,0,0,1-1.321-.269,2.12,2.12,0,0,1-1.23-.434,2.671,2.671,0,0,0-.684-.45c-.136-.044-.333-.3-.588-.767a2.492,2.492,0,0,1-.5-1.345,7.233,7.233,0,0,1,.1-1.5,1.73,1.73,0,0,1,.249-.9c.15-.219.3-.427.458-.619a13.034,13.034,0,0,1,2.257-2.94q1.113-1.022,1.476-1.323a2.412,2.412,0,0,1,.711-.692,1.774,1.774,0,0,0,.559-.477,2.5,2.5,0,0,1,.811-.593q.558-.5,1.1-.931t1.145-.935q.375-1.749.484-2.549T386.021,5479.842Zm-5.281,12.05q-1.078,1.345-2.207,2.607a5.63,5.63,0,0,1-.452.861,1.678,1.678,0,0,0-.229.7,2.558,2.558,0,0,0,.212,1.333,1.7,1.7,0,0,0,1.166,1.053,3.6,3.6,0,0,0,1.463.167,2.174,2.174,0,0,0,1.356-.608,3.347,3.347,0,0,0,.845-1.275q.268-.732.458-1.407a26.933,26.933,0,0,0,.576-3.3,28.805,28.805,0,0,1,.572-3.345A29.793,29.793,0,0,0,380.74,5491.892Z" fill="#fff"/>
      <path id="パス_2186" data-name="パス 2186" d="M415.831,5485a7.5,7.5,0,0,0-.881.359,3.325,3.325,0,0,0-.553.345,1.831,1.831,0,0,1-.778.284.944.944,0,0,0-.557.3c-.117.144-.38.195-.793.153a2.514,2.514,0,0,1-1.216.484c-.281.381-.533.584-.765.609s-.489.07-.774.129a2,2,0,0,0-.993.329q-.174.195-.717.036a1.674,1.674,0,0,1-1.362.368,1.786,1.786,0,0,1-.966.347,1.231,1.231,0,0,0-.645.116,2.065,2.065,0,0,1-.9.122q-.817.134-1.057-.059c-.349.01-.64.026-.87.052a1.317,1.317,0,0,1-.644-.082l-1.031-.412a4.235,4.235,0,0,1-1.368-.9,3.852,3.852,0,0,1-.937-1.363,4.152,4.152,0,0,1-.339-1.669,5.805,5.805,0,0,1,.414-2.41,3.563,3.563,0,0,0-1.1-.25,1.9,1.9,0,0,1-1.076-.43,1.686,1.686,0,0,1-.585-.941,1.128,1.128,0,0,1,1.434-1.3,3.444,3.444,0,0,0,.671.343c.167.054.311.1.432.148a5.356,5.356,0,0,0,.766.179,12.748,12.748,0,0,1,.8-1.882,11.261,11.261,0,0,1,1.291-2.179,26.352,26.352,0,0,1,1.958-2.295,13.355,13.355,0,0,1,2.526-2.094,9.623,9.623,0,0,1,2.048-1.08c.313-.062.658-.116,1.033-.157.349-.01.684-.024,1-.046a2.816,2.816,0,0,1,1,.131,2.071,2.071,0,0,1,.739.357q.219.195.886.69a3.747,3.747,0,0,1,.855,2.006,2.714,2.714,0,0,1-.2,1.555,3.933,3.933,0,0,1-.529.757q-.234.248-.6.7a2.559,2.559,0,0,1-.779.677,3.748,3.748,0,0,1-1.046,1.036.76.76,0,0,0-.439.377.7.7,0,0,1-.51.339,3.953,3.953,0,0,0-.719.233,1.12,1.12,0,0,0-.485.359,1.531,1.531,0,0,1-.742.41.728.728,0,0,1-.528.386.769.769,0,0,0-.513.3c-.115.159-.307.195-.58.107a.979.979,0,0,1-.815.55,1.126,1.126,0,0,0-.762.237q-1.542.3-3.512.695a5.988,5.988,0,0,0-.488,2.329,5.683,5.683,0,0,0,.242,1.2,1.772,1.772,0,0,0,.862.868,7.21,7.21,0,0,0,1.373.549,4.266,4.266,0,0,0,1.8,0c.745-.126,1.318-.212,1.723-.256q.553-.147,1.148-.3t2.168-.588a15.221,15.221,0,0,0,2.65-.971q1.078-.535,2.2-1.053,1.072-.6,1.625-.945a1.522,1.522,0,0,1,1.043-.269.809.809,0,0,1,.67.519,1.565,1.565,0,0,1,.132.795,1.105,1.105,0,0,1-.471.686A1.7,1.7,0,0,1,415.831,5485Zm-8.61-12.576-1.16.587a8.639,8.639,0,0,0-.784.436,14.918,14.918,0,0,0-1.281,1.083,3.3,3.3,0,0,0-.565.828,1.511,1.511,0,0,1-.8.679,1.361,1.361,0,0,1-.464.751.55.55,0,0,0-.245.553.5.5,0,0,1-.292.535,1.325,1.325,0,0,0-.549.783,5.788,5.788,0,0,1-.611,1.205,2.5,2.5,0,0,0,1.418-.046q.652-.225,2.6-1.008a15.3,15.3,0,0,0,3.147-1.64,13.421,13.421,0,0,0,1.629-1.3,12.32,12.32,0,0,0,1.006-1.2,1.339,1.339,0,0,0,.414-.811,1.667,1.667,0,0,0-.218-.984,1.189,1.189,0,0,0-.9-.623,4.168,4.168,0,0,0-1.122-.052A11.186,11.186,0,0,0,407.221,5472.428Z" fill="#fff"/>
      <path id="パス_2187" data-name="パス 2187" d="M423.651,5485.674q.326.576.745.2t.821-.681a8.1,8.1,0,0,0,.78-.676c.249-.247.453-.451.61-.615.211-.2.443-.42.693-.667a1.137,1.137,0,0,1,.858-.357.914.914,0,0,1,.737.334,1.021,1.021,0,0,1,.247.652,2.764,2.764,0,0,1-.533,1.13,1.457,1.457,0,0,1-.528.562,5.519,5.519,0,0,0-1,.876,5.7,5.7,0,0,1-1.039.9q-.311.166-1.526.651a2.489,2.489,0,0,1-1.537-.247,2.018,2.018,0,0,1-1.049-1.175c-.191-.533-.359-1.071-.506-1.609a27.292,27.292,0,0,1-.042-7.129q.421-4.905,1.736-12.448a8.4,8.4,0,0,0,.143-1.088,2.446,2.446,0,0,1,.253-.881,1.974,1.974,0,0,1,.062-1.014,3.41,3.41,0,0,0,.116-.932.711.711,0,0,1,.1-.47,2.38,2.38,0,0,0,.225-.529,1.581,1.581,0,0,0,.03-.726,2.535,2.535,0,0,1,.049-.946c.08-.591.187-1.2.324-1.83q.168-.85,1.25-.97c.995.037,1.467.4,1.411,1.091a2.117,2.117,0,0,1-.342,1.265,2.054,2.054,0,0,0-.409.46c-.088.272-.2.6-.33.978a7.738,7.738,0,0,0-.311,1.151,12.2,12.2,0,0,1-.205,1.313q-.118.518-.193,1.029t-.244,1.361q-.17.849-.73,3.91t-.719,4.588q-.16,1.526-.309,2.551-.114.975-.182,1.726c-.049.5-.1,1.355-.156,2.557s-.1,2.039-.118,2.508a7.629,7.629,0,0,0,.2,1.816A2.3,2.3,0,0,0,423.651,5485.674Z" fill="#fff"/>
      <path id="パス_2188" data-name="パス 2188" d="M435.746,5479.043a2.471,2.471,0,0,0-.136.956,1.707,1.707,0,0,1-.15.827,3.014,3.014,0,0,0,.1,1.457,1.7,1.7,0,0,0,.68.822,3.751,3.751,0,0,0,.854.19,2.447,2.447,0,0,0,.8-.089,6,6,0,0,0,.8-.263,3.951,3.951,0,0,0,.642-.333,6.288,6.288,0,0,1,.786-.415,4.66,4.66,0,0,0,.8-.527q.219-.2.9-.756a4.585,4.585,0,0,0,1.28-1.1,3.433,3.433,0,0,1,.729-.519,1.143,1.143,0,0,1,.541-.649,2.922,2.922,0,0,0,.819-.725q.442-.531,1.574-1.99a28.347,28.347,0,0,0,2.017-2.959,2.641,2.641,0,0,1,.581-.677,1.132,1.132,0,0,1,1.691.251,1.328,1.328,0,0,1,.194,1.16,4.077,4.077,0,0,1-.581,1.292,12.572,12.572,0,0,0-.1,2.659,3.6,3.6,0,0,0,.4,1.423,5.148,5.148,0,0,0,1.069,1.151,2.95,2.95,0,0,0,1.354.768,8.1,8.1,0,0,0,1.354.18c.455.024.885.027,1.293.01a2.3,2.3,0,0,1,1.539-.125q.4.219.322.928a1.076,1.076,0,0,1-.532.934,4.068,4.068,0,0,1-1.1.339q-1.455-.1-1.744-.136a8.348,8.348,0,0,1-.917-.183c-.421-.1-.72-.176-.9-.229a4.875,4.875,0,0,1-.9-.448,6.578,6.578,0,0,1-1.069-.757,8.373,8.373,0,0,1-.84-.87,9.265,9.265,0,0,1-.92-1.606,7.311,7.311,0,0,1-.379-2.628q-.682.95-1.106,1.479T446,5479.555a26.209,26.209,0,0,1-2.438,2.3,23.818,23.818,0,0,1-2.466,1.848,9.077,9.077,0,0,1-2.185,1.029,14.522,14.522,0,0,1-1.961.479,2.9,2.9,0,0,1-2.02-.652,3.3,3.3,0,0,1-1.082-2.07,7.989,7.989,0,0,1,.058-2.851,16.028,16.028,0,0,1,1.052-3.357,24.594,24.594,0,0,1,2.051-3.835,24.336,24.336,0,0,1,2.03-2.83q.739-.824,1.415-1.447a8.71,8.71,0,0,1,1.666-1.169,8.4,8.4,0,0,1,2.351-.915,5.318,5.318,0,0,1,.643-.114,3.952,3.952,0,0,1,1.817.192,2.9,2.9,0,0,1,1.588,1.49,4.807,4.807,0,0,1,.514,1.693,3.767,3.767,0,0,1-.2,1.379,5.237,5.237,0,0,1-.348.63,1.428,1.428,0,0,1-.67.468,1.16,1.16,0,0,1-1.038-.083,1.4,1.4,0,0,1-.688-.69.94.94,0,0,1,.044-.792c.131-.263.3-.626.514-1.086q-.5-1.389-1.509-1.19c-.67.133-1.171.231-1.5.3a3.41,3.41,0,0,0-1.279.711,11.674,11.674,0,0,0-1.275,1.125,4.744,4.744,0,0,0-.692.864,1.257,1.257,0,0,1-.622.528c-.17.573-.413.892-.725.955a2.877,2.877,0,0,0-.532.737,1.057,1.057,0,0,1-.3.427.747.747,0,0,0-.245.553.458.458,0,0,1-.3.449.351.351,0,0,0-.212.461q.081.344-.587.634a3.654,3.654,0,0,1-.337,1.307,1.646,1.646,0,0,1-.467.926A1.7,1.7,0,0,1,435.746,5479.043Z" fill="#fff"/>
      <path id="パス_2189" data-name="パス 2189" d="M472.614,5463.686a1.212,1.212,0,0,0-.957-.552,1.892,1.892,0,0,0-.931.081,1.316,1.316,0,0,1-.783.065,1.585,1.585,0,0,1-.861.117.56.56,0,0,0-.534.125,2.421,2.421,0,0,1-.988.371.59.59,0,0,1-.654.423,3.619,3.619,0,0,1-1,.46c-.173.281-.34.425-.5.427a1.474,1.474,0,0,0-.722.386,9.986,9.986,0,0,1-.872.621,2.512,2.512,0,0,0-.7.646,3.267,3.267,0,0,0-.426.7,1.674,1.674,0,0,1-.3.492,1.844,1.844,0,0,0-.278.861.8.8,0,0,0,.04.763,2.923,2.923,0,0,0,.507.622,14.64,14.64,0,0,0,2.061.823c.572.172,1.027.318,1.361.441a7.913,7.913,0,0,0,1.568.331q.725.226,1.9.558a17.717,17.717,0,0,1,2.746,1.075,2.064,2.064,0,0,1,.84.477c.133.16.284.332.452.519a1.908,1.908,0,0,1,.383.7c.088.281.162.543.217.785a1.256,1.256,0,0,1-.088.775,2.085,2.085,0,0,1-.468,1.322,1.7,1.7,0,0,1-.8,1.1,2.673,2.673,0,0,1-.722.6c-.136.366-.288.564-.46.6a1.016,1.016,0,0,0-.494.273,4.272,4.272,0,0,0-.412.441,3.155,3.155,0,0,1-.619.527,12.089,12.089,0,0,1-1.319.758,1.756,1.756,0,0,1-1.015.506c-.361.04-.563.134-.6.285s-.281.221-.721.212a2.212,2.212,0,0,0-.9.361.637.637,0,0,1-.675.031,3.655,3.655,0,0,1-1.247.006,3.691,3.691,0,0,0-.651-.147,1,1,0,0,1-.631-.369q-.277-.319-.482-.6a2.551,2.551,0,0,1-.22-.808c-.007-.582-.007-.984,0-1.2a2.34,2.34,0,0,1,.105-.646.874.874,0,0,1,.4-.5,1.187,1.187,0,0,1,.772-.13,1.449,1.449,0,0,1,.783.331.844.844,0,0,1,.222.828c-.062.372-.105.705-.131,1a1.2,1.2,0,0,0,.886.3,3.722,3.722,0,0,0,1.052-.181l1.2-.4a6.915,6.915,0,0,0,1.191-.5,13.885,13.885,0,0,0,1.836-1.209,10.085,10.085,0,0,0,1.692-1.544,2.262,2.262,0,0,0,.484-1.761c-.078-.166-.147-.34-.212-.522a.48.48,0,0,0-.408-.328,1.538,1.538,0,0,1-.481-.385,1.7,1.7,0,0,0-.57-.419,1.676,1.676,0,0,1-1-.131.689.689,0,0,0-.518-.14.445.445,0,0,1-.467-.254,1.457,1.457,0,0,1-1.11-.535,1.054,1.054,0,0,1-.763.02.725.725,0,0,0-.472-.1.583.583,0,0,1-.451-.125,4.952,4.952,0,0,0-.657-.409c-.451.137-.737.147-.852.028a.647.647,0,0,0-.52-.162,1.545,1.545,0,0,1-.622-.085q-.746-.4-1.62-.784a7.3,7.3,0,0,1-.629-.565,3.579,3.579,0,0,1-.6-.874,2.007,2.007,0,0,1-.238-1.178,10.885,10.885,0,0,1,.18-1.137,2.825,2.825,0,0,1,.436-1.01,4.8,4.8,0,0,1,.758-.872.638.638,0,0,1,.427-.485c.2-.05.3-.141.3-.273s.177-.319.529-.562a2.9,2.9,0,0,1,.573-.566c.175-.121.408-.271.694-.449a8.96,8.96,0,0,0,.872-.622c.2-.079.535-.24,1.02-.483s1.116-.518,1.9-.822a15.524,15.524,0,0,1,2.631-.75c.458-.079.86-.14,1.207-.178a3.13,3.13,0,0,1,1.659.168,5.42,5.42,0,0,1,1,.5,3.178,3.178,0,0,1,.559.7,2.256,2.256,0,0,1,.23.7,3.338,3.338,0,0,1,.053.674c-.009.19-.207.38-.594.569a2.125,2.125,0,0,1-.89.273.817.817,0,0,1-.582-.329A1.238,1.238,0,0,1,472.614,5463.686Z" fill="#fff"/>
      <path id="パス_2190" data-name="パス 2190" d="M484.364,5456.306q-.489-.469-.458-.779c.021-.207.042-.422.061-.643a7.685,7.685,0,0,1,.112-.778c.168-.311.29-.529.364-.654s.172-.294.294-.513a2,2,0,0,1,.128-.627c.079-.212.2-.517.36-.915a2.554,2.554,0,0,1,.331-.759c.137-.2.294-.448.467-.729a.943.943,0,0,1,.7-.427.912.912,0,0,1,.75.245,1.151,1.151,0,0,1,.367.747,3.161,3.161,0,0,1-.032.9,9.958,9.958,0,0,1-.559,1.287,3.393,3.393,0,0,0-.356,1.134,5.72,5.72,0,0,0-.367,1.442q-.434,1.623-1.275,4.517t-1.291,5.154a39.7,39.7,0,0,0-.64,4.513q-.192,2.254-.312,4.324a9.23,9.23,0,0,1,.963-1.989q.417-.57.919-1.391a12.625,12.625,0,0,1,.865-1.278,9.013,9.013,0,0,0,.589-.808,4.364,4.364,0,0,1,.619-.747q.582-.678,1.046-1.232a17.345,17.345,0,0,1,2.031-1.821q.8-.658,1.452-1.124a9.1,9.1,0,0,1,1.279-.709,2.928,2.928,0,0,1,1.016-.113,1.67,1.67,0,0,1,1.144.443,2.253,2.253,0,0,1,.631.96,3.853,3.853,0,0,1,.18,1.052c-.018.352-.055,1.072-.111,2.156s-.155,2.3-.3,3.645-.233,2.251-.269,2.722-.068,1.1-.1,1.893a8.947,8.947,0,0,0,.066,1.787,2.911,2.911,0,0,0,.475,1.13,4.506,4.506,0,0,0,1.15-.675q.2-.218,1.692-1.739a2.731,2.731,0,0,1,.841-.706,1.231,1.231,0,0,1,.847-.051c.316.083.478.358.486.822a1.352,1.352,0,0,1-.225.944c-.156.165-.808.745-1.952,1.747a4.661,4.661,0,0,1-.947.74,4.675,4.675,0,0,0-.79.568,2.6,2.6,0,0,1-1.2.285,2.513,2.513,0,0,1-1.006-.392,4.743,4.743,0,0,1-.419-.414,1.444,1.444,0,0,1-.276-.517,1.412,1.412,0,0,0-.25-.5,1,1,0,0,1-.207-.482,1.073,1.073,0,0,1,.046-.574.539.539,0,0,0,.017-.438,1.024,1.024,0,0,1-.073-.474,8.426,8.426,0,0,1,.053-1.3,13.3,13.3,0,0,0,.079-1.474.967.967,0,0,1-.048-.629,2.788,2.788,0,0,0,.14-.717c.035-.339.073-.723.114-1.15a9.058,9.058,0,0,0,.054-.9,4.344,4.344,0,0,1,.039-.639,2.878,2.878,0,0,1,.257-.838q-.076-.691-.108-.973a1.74,1.74,0,0,1,.028-.549,1.137,1.137,0,0,0-.043-.588,2.111,2.111,0,0,1,.006-.941c-.036-.578-.2-.9-.48-.977a1.722,1.722,0,0,0-.976.087,4.325,4.325,0,0,0-1.223.814q-.719.625-1.8,1.73a16.432,16.432,0,0,0-1.908,2.333q-.83,1.23-1.118,1.568a1.2,1.2,0,0,0-.319.691.829.829,0,0,1-.436.619,1.03,1.03,0,0,1-.341.868,3.885,3.885,0,0,0-.314.932,2.337,2.337,0,0,1-.209.68,3.6,3.6,0,0,0-.248.727,2.42,2.42,0,0,1-.236.639,3.256,3.256,0,0,1-.318.5,2.439,2.439,0,0,0-.237,1.033,8.566,8.566,0,0,0-.067.97q0,.395-.02,1.009a.973.973,0,0,1-.109.6,2.476,2.476,0,0,0-.226.527,1.571,1.571,0,0,1-.372.589,1.079,1.079,0,0,1-.912.276,1.964,1.964,0,0,1-.852-.19q-.237-.15-.364-.924a7.136,7.136,0,0,1-.029-1.835q.1-1.062.422-3.723.45-3.856.71-5.878t.819-5.059Q483.212,5461.337,484.364,5456.306Z" fill="#fff"/>
      <path id="パス_2191" data-name="パス 2191" d="M531.17,5457.231a1.212,1.212,0,0,0-.957-.552,1.876,1.876,0,0,0-.933.081,1.312,1.312,0,0,1-.781.065,1.608,1.608,0,0,1-.861.117.559.559,0,0,0-.534.125,2.4,2.4,0,0,1-.989.37.59.59,0,0,1-.654.424,3.583,3.583,0,0,1-1,.46c-.173.28-.341.424-.5.427a1.48,1.48,0,0,0-.723.386,9.5,9.5,0,0,1-.872.621,2.525,2.525,0,0,0-.7.646,3.237,3.237,0,0,0-.425.7,1.7,1.7,0,0,1-.3.492,1.821,1.821,0,0,0-.277.861.8.8,0,0,0,.04.763,2.893,2.893,0,0,0,.508.621,14.69,14.69,0,0,0,2.058.824q.861.258,1.362.441a8.013,8.013,0,0,0,1.569.33q.724.226,1.9.557a18,18,0,0,1,2.746,1.076,2.073,2.073,0,0,1,.84.477q.2.24.451.519a1.9,1.9,0,0,1,.384.7c.089.282.161.544.218.786a1.255,1.255,0,0,1-.089.775,2.089,2.089,0,0,1-.468,1.322,1.685,1.685,0,0,1-.8,1.094,2.644,2.644,0,0,1-.721.6c-.136.366-.289.564-.46.6a1.015,1.015,0,0,0-.495.273,4.3,4.3,0,0,0-.411.439,3.175,3.175,0,0,1-.62.529,12.007,12.007,0,0,1-1.318.757,1.765,1.765,0,0,1-1.015.506c-.362.041-.563.135-.605.286s-.281.221-.721.212a2.2,2.2,0,0,0-.9.361c-.147.133-.371.143-.676.03a3.646,3.646,0,0,1-1.246.006,3.782,3.782,0,0,0-.651-.147,1,1,0,0,1-.631-.368c-.185-.214-.346-.414-.483-.6a2.544,2.544,0,0,1-.22-.807c-.007-.582-.006-.984,0-1.2a2.411,2.411,0,0,1,.1-.646.881.881,0,0,1,.4-.5,1.179,1.179,0,0,1,.772-.13,1.436,1.436,0,0,1,.781.331.845.845,0,0,1,.224.828c-.063.372-.106.7-.131,1a1.2,1.2,0,0,0,.886.3,3.764,3.764,0,0,0,1.052-.182c.337-.11.74-.241,1.205-.4a7.106,7.106,0,0,0,1.191-.5,13.962,13.962,0,0,0,1.836-1.21,10.078,10.078,0,0,0,1.691-1.543,2.259,2.259,0,0,0,.484-1.761c-.077-.166-.147-.341-.211-.523a.482.482,0,0,0-.408-.327,1.541,1.541,0,0,1-.481-.385,1.7,1.7,0,0,0-.571-.419,1.679,1.679,0,0,1-1-.131.689.689,0,0,0-.519-.14.448.448,0,0,1-.468-.255,1.452,1.452,0,0,1-1.108-.534,1.066,1.066,0,0,1-.765.02.711.711,0,0,0-.47-.1.586.586,0,0,1-.451-.125,4.836,4.836,0,0,0-.658-.409c-.452.137-.736.147-.851.027a.653.653,0,0,0-.521-.162,1.539,1.539,0,0,1-.622-.084q-.744-.4-1.618-.784a7.216,7.216,0,0,1-.631-.565,3.674,3.674,0,0,1-.6-.875,2.005,2.005,0,0,1-.24-1.178,11.155,11.155,0,0,1,.181-1.136,2.857,2.857,0,0,1,.437-1.011,4.782,4.782,0,0,1,.757-.871.639.639,0,0,1,.428-.485c.2-.051.3-.143.3-.273s.177-.319.528-.562a2.925,2.925,0,0,1,.573-.566c.175-.121.409-.271.7-.45a8.781,8.781,0,0,0,.872-.621q.293-.12,1.019-.484t1.9-.822a15.6,15.6,0,0,1,2.632-.749c.457-.079.859-.14,1.206-.178a4.67,4.67,0,0,1,.739-.037,4.816,4.816,0,0,1,.92.205,5.417,5.417,0,0,1,1,.5,3.158,3.158,0,0,1,.559.7,2.192,2.192,0,0,1,.23.7,3.406,3.406,0,0,1,.054.673c-.009.191-.207.38-.594.569a2.133,2.133,0,0,1-.89.273.817.817,0,0,1-.584-.329A1.229,1.229,0,0,1,531.17,5457.231Z" fill="#fff"/>
      <path id="パス_2192" data-name="パス 2192" d="M558.5,5469.276a7.6,7.6,0,0,0-.881.359,3.2,3.2,0,0,0-.553.346,1.815,1.815,0,0,1-.778.282.948.948,0,0,0-.557.3c-.117.143-.38.2-.793.152a2.5,2.5,0,0,1-1.216.484c-.281.382-.534.584-.765.61s-.489.069-.774.129a1.99,1.99,0,0,0-.992.329c-.117.13-.356.141-.718.036a1.668,1.668,0,0,1-1.361.367,1.794,1.794,0,0,1-.967.348,1.233,1.233,0,0,0-.645.115,2.039,2.039,0,0,1-.906.122,1.508,1.508,0,0,1-1.056-.058q-.525.013-.87.051a1.307,1.307,0,0,1-.644-.082l-1.03-.412a4.219,4.219,0,0,1-1.369-.9,3.88,3.88,0,0,1-.938-1.364,4.171,4.171,0,0,1-.337-1.668,5.764,5.764,0,0,1,.414-2.411,3.626,3.626,0,0,0-1.1-.25,1.914,1.914,0,0,1-1.076-.428,1.7,1.7,0,0,1-.585-.943,1.141,1.141,0,0,1,.266-.969,1.154,1.154,0,0,1,1.168-.328,3.389,3.389,0,0,0,.671.343q.25.083.432.149a5.583,5.583,0,0,0,.766.178,12.657,12.657,0,0,1,.8-1.882,11.152,11.152,0,0,1,1.291-2.178,25.719,25.719,0,0,1,1.958-2.294,13.256,13.256,0,0,1,2.525-2.1,9.646,9.646,0,0,1,2.048-1.08c.313-.061.658-.114,1.033-.156.349-.011.684-.025,1-.046a2.794,2.794,0,0,1,1,.131,2.072,2.072,0,0,1,.739.356c.147.13.442.361.887.691a3.749,3.749,0,0,1,.855,2.005,2.72,2.72,0,0,1-.2,1.555,3.927,3.927,0,0,1-.528.759q-.235.245-.6.7a2.552,2.552,0,0,1-.779.678,3.739,3.739,0,0,1-1.046,1.035.763.763,0,0,0-.439.377.7.7,0,0,1-.51.34,3.977,3.977,0,0,0-.719.232,1.127,1.127,0,0,0-.485.36,1.526,1.526,0,0,1-.743.41.725.725,0,0,1-.526.387.761.761,0,0,0-.514.3c-.115.159-.307.195-.579.108a.982.982,0,0,1-.816.549,1.121,1.121,0,0,0-.762.237q-1.542.3-3.512.694a5.991,5.991,0,0,0-.488,2.329,5.633,5.633,0,0,0,.243,1.2,1.774,1.774,0,0,0,.861.868,7.253,7.253,0,0,0,1.374.549,4.254,4.254,0,0,0,1.794,0c.745-.125,1.319-.212,1.723-.256.369-.1.75-.2,1.149-.3s1.119-.3,2.166-.589a15.016,15.016,0,0,0,2.651-.971q1.08-.534,2.2-1.052c.714-.4,1.256-.714,1.625-.946a1.517,1.517,0,0,1,1.042-.268.809.809,0,0,1,.67.518,1.557,1.557,0,0,1,.132.795,1.1,1.1,0,0,1-.472.687A1.7,1.7,0,0,1,558.5,5469.276Zm-8.61-12.576-1.16.586a8.434,8.434,0,0,0-.783.437,14.538,14.538,0,0,0-1.283,1.082,3.31,3.31,0,0,0-.564.829,1.516,1.516,0,0,1-.8.679,1.369,1.369,0,0,1-.465.751.549.549,0,0,0-.245.553.5.5,0,0,1-.292.535,1.322,1.322,0,0,0-.549.783,5.768,5.768,0,0,1-.611,1.205,2.526,2.526,0,0,0,1.418-.046q.652-.226,2.6-1.009a15.257,15.257,0,0,0,3.147-1.639,13.522,13.522,0,0,0,1.629-1.3,12.167,12.167,0,0,0,1.005-1.2,1.348,1.348,0,0,0,.415-.812,1.651,1.651,0,0,0-.219-.983,1.188,1.188,0,0,0-.9-.623,4.091,4.091,0,0,0-1.122-.051A10.5,10.5,0,0,0,549.89,5456.7Z" fill="#fff"/>
      <path id="パス_2193" data-name="パス 2193" d="M566.569,5464.665a17.463,17.463,0,0,0-.29,1.739,3.627,3.627,0,0,0-.009,1.1,5.018,5.018,0,0,1,.042,1.176q.162.683.3,1.5.158,1.036-.074,1.321a.8.8,0,0,1-.554.324,3.366,3.366,0,0,1-.723-.007.793.793,0,0,1-.579-.286,1.833,1.833,0,0,1-.263-.8,7.26,7.26,0,0,1-.045-1.4c.013-.672.007-1.188-.017-1.551a2.292,2.292,0,0,1,.168-1.048,2.411,2.411,0,0,1-.015-.94,2.246,2.246,0,0,0,.019-.811,2.355,2.355,0,0,1,.127-1.022c.042-.675.072-1.348.085-2.021a10.142,10.142,0,0,0,.2-1.991q0-1.006.086-2.2c.043-.412.107-1.01.2-1.793s.151-1.542.187-2.276a1.625,1.625,0,0,1-.407-1.311,1.893,1.893,0,0,1,.615-1.162.942.942,0,0,1,.577-.328,1,1,0,0,1,.534.075,1.1,1.1,0,0,1,.565,1.162c-.048.618-.086,1.068-.113,1.347s-.1.982-.206,2.1-.2,2.284-.272,3.488q.994-1.29,1.73-2.181a18.137,18.137,0,0,1,1.766-1.837q1.034-.945,1.721-1.459a8.98,8.98,0,0,1,1.438-1.055,9.387,9.387,0,0,1,.85-.422,11.228,11.228,0,0,1,1.123-.344,3.636,3.636,0,0,1,1.633-.071,2.693,2.693,0,0,1,1.8,1.05.773.773,0,0,1,.222.61c-.042.166-.088.338-.141.519a1.118,1.118,0,0,1-.38.524.708.708,0,0,1-.546.212,1.75,1.75,0,0,1-.734-.51,2.689,2.689,0,0,0-1.458-.517,3.5,3.5,0,0,0-1.3.275,7.438,7.438,0,0,0-1.653,1.079,1.527,1.527,0,0,0-.707.537.881.881,0,0,1-.372.393.964.964,0,0,0-.392.414,1.138,1.138,0,0,1-.649.467c-.052.326-.163.514-.333.561a.592.592,0,0,0-.365.259,2.441,2.441,0,0,1-.639.553,1.966,1.966,0,0,1-.588,1.027,1.309,1.309,0,0,1-.443.749,3.323,3.323,0,0,0-.173.61.764.764,0,0,1-.257.444,1.285,1.285,0,0,0-.337.518,4.333,4.333,0,0,1-.417.79,1.054,1.054,0,0,1-.1.647,2.947,2.947,0,0,0-.252.882A4.007,4.007,0,0,0,566.569,5464.665Z" fill="#fff"/>
      <path id="パス_2194" data-name="パス 2194" d="M595.1,5462.965a2.435,2.435,0,0,1-.469.708q-.22.2-.435.42a1.781,1.781,0,0,0-.357.542.884.884,0,0,1-.606.461c-.113.3-.24.465-.384.48s-.3.238-.452.663a2.015,2.015,0,0,1-.79.787c-.192.372-.374.582-.543.629a1,1,0,0,0-.486.36,2.932,2.932,0,0,1-1.067.644,2.762,2.762,0,0,1-1.189.328,3.071,3.071,0,0,1-1.331-.161,5.013,5.013,0,0,1-1.237-.694,2.864,2.864,0,0,1-.958-1.558,8.9,8.9,0,0,1-.355-2.214q0-1.184.142-2.885a44.252,44.252,0,0,1,.83-4.971q.329-1.392.709-2.705a11.967,11.967,0,0,1,.651-1.845,5.645,5.645,0,0,1,.774-1.114,1.045,1.045,0,0,1,.7-.427,1.763,1.763,0,0,1,.71.1c.579.23.864.482.851.76a1.854,1.854,0,0,1-.182.743,4.775,4.775,0,0,1-.873,1.016,2.339,2.339,0,0,0-.435.812,1.052,1.052,0,0,1-.19.46.737.737,0,0,0-.147.453.943.943,0,0,1-.224.551.75.75,0,0,0-.178.565,1.752,1.752,0,0,1-.16.741q-.157.346-.37.807a1.055,1.055,0,0,1-.157.761,1.031,1.031,0,0,0-.224.551c-.011.176-.05.472-.122.888a4.775,4.775,0,0,0-.179,1.158,6.055,6.055,0,0,1-.192,1.423,1.612,1.612,0,0,1-.045.989.948.948,0,0,0-.136.54,5.907,5.907,0,0,1,.026.632,4.712,4.712,0,0,0,.1.908,2.194,2.194,0,0,0,.384.9,2.032,2.032,0,0,0,.835.631,2.442,2.442,0,0,0,1.553-.018,3.966,3.966,0,0,0,.852-.6c.252-.231.535-.511.85-.838a10.424,10.424,0,0,0,1.2-1.226q.559-.675,1.322-1.7t1.6-2.365q.838-1.341,1.612-2.651c.141-.307.256-.576.348-.8a2.771,2.771,0,0,1,.328-.6,1.369,1.369,0,0,0,.24-.6,2.188,2.188,0,0,1,.232-.682,3.781,3.781,0,0,1,.411-.637c.2-.546.353-.958.455-1.231a4.4,4.4,0,0,0,.2-1.2,1.967,1.967,0,0,1,.477-1.234,1.3,1.3,0,0,1,1.234-.312,1.082,1.082,0,0,1,.985.987q-.225,1.95-.566,3.805t-.725,4.543a17.583,17.583,0,0,0-.248,3.9,13.8,13.8,0,0,0,.278,1.524,2.463,2.463,0,0,0,.341.706.83.83,0,0,0,.589.4,1.672,1.672,0,0,0,1.043-.465,6.967,6.967,0,0,0,1.275-1.147c.363-.419.752-.855,1.169-1.311a1.064,1.064,0,0,1,.512-.516,1.289,1.289,0,0,1,.795-.132q.423.064.64.651a1.1,1.1,0,0,1,.036.916,4.407,4.407,0,0,1-.654.817,9.605,9.605,0,0,0-1.233,1.121,7.6,7.6,0,0,1-1.178,1.026,4.506,4.506,0,0,1-1.858.818,3.231,3.231,0,0,1-1.508-.185,1.905,1.905,0,0,1-1.056-.846,5.992,5.992,0,0,1-.814-2.6,25.489,25.489,0,0,1,.028-3.527q.14-2.117.343-3.452a12.413,12.413,0,0,1-.873,1.827q-.462.772-1.1,1.761a1.022,1.022,0,0,1-.315.714,1.592,1.592,0,0,0-.439.573A7.392,7.392,0,0,1,595.1,5462.965Z" fill="#fff"/>
      <path id="パス_2195" data-name="パス 2195" d="M627.829,5458.129a2.1,2.1,0,0,1-.347,1.025,3.242,3.242,0,0,0-.5.82,1.6,1.6,0,0,1-.617,1.163,5.162,5.162,0,0,1-.427.879.811.811,0,0,1-.575.347c-.257.045-.494.078-.711.1a1.358,1.358,0,0,1-.879-.429,1.724,1.724,0,0,1-.646-.891,2.777,2.777,0,0,1-.067-.825c.023-.177.085-.475.184-.9a2.285,2.285,0,0,0,.028-.748.558.558,0,0,1,.082-.446,1.258,1.258,0,0,0,.185-.5,1.231,1.231,0,0,0-.016-.546,1.6,1.6,0,0,1,.209-.876,6.826,6.826,0,0,1,.2-1.751q.232-1.055.382-2.078a14.938,14.938,0,0,0,.369-1.835,5.727,5.727,0,0,1,.1-.864,1.514,1.514,0,0,0-.162-.88q-.8-.087-1.936,1.111t-1.337,1.351a4.548,4.548,0,0,0-.554.542,1.23,1.23,0,0,1-.635.99q-.111.58-.387.654c-.185.051-.33.256-.436.618a2.8,2.8,0,0,0-.706.735,7.7,7.7,0,0,1-.564.85c-.352.5-.67,1.008-.95,1.5s-.581,1.014-.9,1.545q-.442.749-.837,1.536t-.744,1.593q-.35.8-.821,1.688a1.723,1.723,0,0,0-.18.742,3.231,3.231,0,0,1-.238,1.011,1.677,1.677,0,0,1-.456.838,1.356,1.356,0,0,1-.924.146,1.618,1.618,0,0,1-.981-.353q-.316-.291-.176-1.4.339-3.276,1.056-7.492t1.411-7.837a2.165,2.165,0,0,1,.393-2.012,1.749,1.749,0,0,1,.936-.63,4.843,4.843,0,0,1,.783.155c.166.055.3.229.409.524a.723.723,0,0,1-.155.783,13.111,13.111,0,0,1-.5,2.2,32.773,32.773,0,0,0-1.066,4.823q-.507,3.141-.657,4.559.489-.711,1.994-3.152a55.974,55.974,0,0,1,3.246-4.714,30.945,30.945,0,0,1,2.77-3.26l1.286-1.236a3.34,3.34,0,0,1,1.211-.526,1.972,1.972,0,0,1,1.464-.009,6.8,6.8,0,0,1,.894.558,1.226,1.226,0,0,1,.479.757,5.046,5.046,0,0,1,.1.908,30.036,30.036,0,0,1-.808,4.773,24.088,24.088,0,0,0-.728,4.326q.558-.893,1.15-1.681t1.272-1.759q.681-.973,1.317-1.962t1.4-2.036q.759-1.047,1.553-1.989a13.166,13.166,0,0,1,1.8-1.752,3.8,3.8,0,0,1,1.421-.813,1.682,1.682,0,0,1,1.614.348,1.9,1.9,0,0,1,.847,1.131,1.316,1.316,0,0,1-.147.849q-.206.33-.493.886-.126.846-.461,2.568t-.51,2.923q-.089.8-.109,1.587a14.669,14.669,0,0,0,.041,1.572,8.4,8.4,0,0,0,.217,1.376,2.2,2.2,0,0,0,.478.954,4.046,4.046,0,0,0,.749.641,1.387,1.387,0,0,0,.944.223,2.41,2.41,0,0,0,.936-.255,3.074,3.074,0,0,0,.566-.413.927.927,0,0,1,.724-.19q.469-.489.74-.825.246-.552.483-.578a1.486,1.486,0,0,0,.643-.334,2.429,2.429,0,0,0,.634-.595,1.053,1.053,0,0,1,.524-.409,3.364,3.364,0,0,1,.795-.722,7.07,7.07,0,0,0,.849-.641,2.41,2.41,0,0,1,.728-.54,1.262,1.262,0,0,1,.913-.056.981.981,0,0,1,.672.735c.116.4.052.666-.2.81s-.46.269-.637.376a2.981,2.981,0,0,0-.524.409,5.519,5.519,0,0,1-.54.454q-.609.458-1.256.925a10.076,10.076,0,0,0-1.2,1.008q-2.349,1.748-2.945,2.076a3.917,3.917,0,0,1-1.156.433,3.547,3.547,0,0,1-1.112.035q-.555-.069-1.247-.191a3.092,3.092,0,0,1-1.6-1.246,8.364,8.364,0,0,1-.869-2.726,19.092,19.092,0,0,1-.187-2.891,24.455,24.455,0,0,1,.322-3.428q.306-1.98.755-3.87a5.611,5.611,0,0,0-.926.541,3.31,3.31,0,0,0-.711.691,11.329,11.329,0,0,1-.976,1.071,12.278,12.278,0,0,0-1.715,2.509q-.942,1.375-1.84,2.762T627.829,5458.129Z" fill="#fff"/>
      <path id="パス_2196" data-name="パス 2196" d="M421.946,5539.492a.715.715,0,0,1,.373,1.009,1.092,1.092,0,0,1-.926.715,2.617,2.617,0,0,1-1.975-.833,3.324,3.324,0,0,1-.918-1.977,18.678,18.678,0,0,1-.116-2.243q.043-1.187.067-1.976c.014-.528.066-1.262.151-2.205s.129-1.794.133-2.554a5.673,5.673,0,0,1-1.3-.142,1.926,1.926,0,0,1-1.015-.653,1.434,1.434,0,0,1-.568-.791,3.947,3.947,0,0,1-.155-1.011.84.84,0,0,1,.437-.793,2.4,2.4,0,0,1,.972-.325q.518-.057.739,1.143c.089.283.217.451.385.506a6.556,6.556,0,0,0,.916.183q.723-5.727.931-7.237a24.8,24.8,0,0,0,.231-2.871,5.647,5.647,0,0,1-1.266-.167.935.935,0,0,1-.588-.767,1.485,1.485,0,0,1,.1-1.1,2.367,2.367,0,0,1,.743-.8,6.79,6.79,0,0,0,.845-.685c.048-.354.1-.7.149-1.022a1.628,1.628,0,0,1,1.077-1.344,2.218,2.218,0,0,1,1.11.14,3.415,3.415,0,0,1,1.047.76,24.891,24.891,0,0,1,3.541-.238,11.328,11.328,0,0,1,3.139.487,4.93,4.93,0,0,1,3.6,4.22,6.618,6.618,0,0,1-.5,3.25,11.511,11.511,0,0,1-2.53,3.65,18.948,18.948,0,0,1-4.362,3.326,22.081,22.081,0,0,1-6.1,2.2q-.088,1.587-.275,3.467a23.287,23.287,0,0,0-.062,3.793,6.52,6.52,0,0,0,.165.9,5.526,5.526,0,0,0,.321.928,1.321,1.321,0,0,0,.643.673C421.387,5539.246,421.672,5539.375,421.946,5539.492Zm-1.259-12.205a11.407,11.407,0,0,0,2.991-.68,12.763,12.763,0,0,0,2.537-1.2,15.6,15.6,0,0,0,1.546-1.068q.521-.428,1.165-.938a6.749,6.749,0,0,0,1.1-1.171,1.476,1.476,0,0,1,.789-.787q.331-.561.587-1.029a4.07,4.07,0,0,1,.568-.805,5.423,5.423,0,0,1,.153-.982,1.024,1.024,0,0,0,0-.634,3.2,3.2,0,0,1-.052-1.066,1.67,1.67,0,0,1-.437-.784.878.878,0,0,0-.277-.538,2.665,2.665,0,0,0-.639-.433,1.95,1.95,0,0,1-.62-.457,2.63,2.63,0,0,0-1.023-.544,8.045,8.045,0,0,0-2.546-.265,9.885,9.885,0,0,0-3.8.9,11.937,11.937,0,0,0-.56,2.075,5.193,5.193,0,0,0-.13,1.394,2.271,2.271,0,0,1-.136.956,2.3,2.3,0,0,1-.264,1.167,1.7,1.7,0,0,1-.228,1.513,3.151,3.151,0,0,0,0,.766,1.945,1.945,0,0,1-.085.819.614.614,0,0,1-.093.536,1.476,1.476,0,0,0-.2.767,11.413,11.413,0,0,1-.193,1.224A6.714,6.714,0,0,0,420.687,5527.287Z" fill="#fff"/>
      <path id="パス_2197" data-name="パス 2197" d="M441.309,5523.744a16.88,16.88,0,0,0-.29,1.739,3.608,3.608,0,0,0-.011,1.1,5.017,5.017,0,0,1,.043,1.178q.162.681.3,1.5c.1.689.081,1.13-.074,1.321a.806.806,0,0,1-.554.324,3.278,3.278,0,0,1-.723-.008.786.786,0,0,1-.579-.285,1.854,1.854,0,0,1-.264-.8,7.44,7.44,0,0,1-.045-1.4c.014-.672.007-1.188-.017-1.551a2.283,2.283,0,0,1,.17-1.048,2.409,2.409,0,0,1-.017-.939,2.226,2.226,0,0,0,.02-.811,2.336,2.336,0,0,1,.128-1.022q.063-1.013.084-2.023a10.066,10.066,0,0,0,.195-1.991q0-1.006.086-2.2c.044-.414.108-1.012.2-1.794s.151-1.542.188-2.277a1.63,1.63,0,0,1-.407-1.311,1.886,1.886,0,0,1,.616-1.162.932.932,0,0,1,.577-.327,1,1,0,0,1,.532.073,1.1,1.1,0,0,1,.566,1.163q-.072.927-.114,1.348t-.206,2.1q-.165,1.683-.271,3.489.994-1.293,1.729-2.182a18.313,18.313,0,0,1,1.767-1.837q1.032-.945,1.72-1.459a8.952,8.952,0,0,1,1.439-1.056q.557-.3.85-.422a11.534,11.534,0,0,1,1.123-.343,3.638,3.638,0,0,1,1.632-.07,2.682,2.682,0,0,1,1.8,1.049.763.763,0,0,1,.221.609c-.041.166-.087.338-.141.519a1.1,1.1,0,0,1-.379.524.7.7,0,0,1-.547.213,1.738,1.738,0,0,1-.734-.51,2.684,2.684,0,0,0-1.457-.517,3.485,3.485,0,0,0-1.306.275A7.484,7.484,0,0,0,447.5,5514a1.533,1.533,0,0,0-.707.538.884.884,0,0,1-.372.392.961.961,0,0,0-.392.415,1.125,1.125,0,0,1-.649.465c-.051.327-.161.515-.331.562a.584.584,0,0,0-.366.26,2.419,2.419,0,0,1-.64.552,1.974,1.974,0,0,1-.587,1.027,1.309,1.309,0,0,1-.443.749,3.393,3.393,0,0,0-.174.611.75.75,0,0,1-.257.443,1.3,1.3,0,0,0-.336.519,4.546,4.546,0,0,1-.417.791,1.065,1.065,0,0,1-.1.645,2.875,2.875,0,0,0-.253.882A3.973,3.973,0,0,0,441.309,5523.744Z" fill="#fff"/>
      <path id="パス_2198" data-name="パス 2198" d="M466.771,5527.2a11.877,11.877,0,0,1-1.211.33,5.713,5.713,0,0,1-1.322.124,7.966,7.966,0,0,1-1.991-.394,4.794,4.794,0,0,1-2.131-1.253,6.874,6.874,0,0,1-1.331-1.954,7.84,7.84,0,0,1-.545-2.961,9.416,9.416,0,0,1,.219-2.781q.27-.906.395-1.379a5.066,5.066,0,0,1,.374-.982,9.8,9.8,0,0,1,.967-2.338q.658-1.168,1.111-1.83a11.816,11.816,0,0,1,.881-1.148,4.309,4.309,0,0,1,.945-.761,6.785,6.785,0,0,1,1.1-.494,8.381,8.381,0,0,1,1.234-.333,4.8,4.8,0,0,1,1.451.06.84.84,0,0,1,.725.619,1.675,1.675,0,0,1-.092.952.959.959,0,0,1-.59.611.86.86,0,0,1-.68-.011,1.33,1.33,0,0,0-.754-.092,3.858,3.858,0,0,0-1.038.311,1.367,1.367,0,0,0-.507.362,2.067,2.067,0,0,1-.395.394,2.559,2.559,0,0,0-.507.56,2.5,2.5,0,0,1-.7.974,1.182,1.182,0,0,0-.477.644,2.85,2.85,0,0,1-.514.887,1.539,1.539,0,0,1-.33.782,1.262,1.262,0,0,0-.308.58,1.489,1.489,0,0,1-.325.627,5.977,5.977,0,0,1-.074.709,3.354,3.354,0,0,1-.317.91,9.129,9.129,0,0,1-.174,1.2,4.606,4.606,0,0,0-.067,1.167,6.617,6.617,0,0,0,.408,1.925,3.688,3.688,0,0,0,1.27,1.786,3.807,3.807,0,0,0,1.729.794,9.878,9.878,0,0,0,1.484.165,4.085,4.085,0,0,0,1.588-.482,12.992,12.992,0,0,0,1.935-1.11q.475-.446,1.21-1.14a15.505,15.505,0,0,0,1.794-2.19,14.573,14.573,0,0,0,1.677-3.052,11.156,11.156,0,0,0,.724-2.356,3.459,3.459,0,0,0-.039-1.352q-1.01-.021-2.027-.126a6.6,6.6,0,0,1-2.032-.564,2.085,2.085,0,0,1-1.248-1.2,2.81,2.81,0,0,1-.039-1.551,2.458,2.458,0,0,1,.711-1.281,2.705,2.705,0,0,1,1.442-.619,3.432,3.432,0,0,1,1.746.158,4.871,4.871,0,0,1,1.59.92,6.211,6.211,0,0,1,1.411,2.076,2.684,2.684,0,0,0,1.158-.216,2.961,2.961,0,0,1,1.2-.438.886.886,0,0,1,.865.3,1.1,1.1,0,0,1,.223.829.884.884,0,0,1-.407.679,3.635,3.635,0,0,1-.73.342,3.14,3.14,0,0,1-1.168.3,2.991,2.991,0,0,0-.882.141,4.074,4.074,0,0,1,.091.822c0,.234-.011.432-.022.594s-.022.337-.031.528a1.766,1.766,0,0,1-.228.7,2.11,2.11,0,0,1-.152,1,9.625,9.625,0,0,1-.571,1.18c-.164.368-.354.753-.573,1.156-.042.414-.151.674-.33.781a1.636,1.636,0,0,0-.439.378.754.754,0,0,0-.161.52q.01.305-.605.68-.3.471-.985,1.378a3.127,3.127,0,0,1-1.323,1.109,1.342,1.342,0,0,1-.909.887,2.43,2.43,0,0,0-.555.52.979.979,0,0,1-.528.366,1.44,1.44,0,0,0-.539.277A1.649,1.649,0,0,1,466.771,5527.2Zm6.584-14.515a10.808,10.808,0,0,0-.673-1.151,1.985,1.985,0,0,0-.838-.651,2.182,2.182,0,0,0-.951-.29.784.784,0,0,0-.668.489.8.8,0,0,0-.113.78,1.813,1.813,0,0,0,.882.449,9.406,9.406,0,0,0,1.165.243C472.515,5512.6,472.912,5512.644,473.355,5512.682Z" fill="#fff"/>
      <path id="パス_2199" data-name="パス 2199" d="M487.316,5530.534a1.423,1.423,0,0,0,.922.423,2.129,2.129,0,0,0,.76-.258,5.469,5.469,0,0,0,2.538-1.987,10.519,10.519,0,0,0,1.372-2.844,17.363,17.363,0,0,0,.593-2.363,36.545,36.545,0,0,0-.211-7.877q-.539-4.077-.987-6.174a1.944,1.944,0,0,1-.2-1.575,1.592,1.592,0,0,1,.769-.96,1.114,1.114,0,0,1,1.6.766,4.015,4.015,0,0,1,.054,1.088,7.537,7.537,0,0,0,.044,1.4,5.013,5.013,0,0,1,.148,1.34c-.026.3-.039.567-.041.815a1.621,1.621,0,0,0,.167.725,1.383,1.383,0,0,1-.023.988q.168,1.121.178,1.4a6.128,6.128,0,0,0,.083.756,2.593,2.593,0,0,1-.081,1.059,4.47,4.47,0,0,1,.221,1,4.014,4.014,0,0,1-.049.75,2.393,2.393,0,0,0,.028.851q-.069,1.364-.107,2.2t-.2,2.124a12.539,12.539,0,0,1-1.42,4.4,8.118,8.118,0,0,1-3.687,3.691,4.278,4.278,0,0,1-2.141.411,3.192,3.192,0,0,1-1.389-.68,2.5,2.5,0,0,0-.657-.6,1.424,1.424,0,0,1-.453-.343,1.143,1.143,0,0,1-.3-.691,1,1,0,0,1-.656-.387c-.106-.179-.237-.433-.39-.766a2.417,2.417,0,0,1-.716-.732q-.192-.349-.461-.8a1.564,1.564,0,0,1,.1-1.1,1.518,1.518,0,0,1,.536-.5.917.917,0,0,1,.646-.093,1.264,1.264,0,0,1,.579.287,2.69,2.69,0,0,1,.535.881,6.048,6.048,0,0,0,.686,1.259Q485.982,5528.755,487.316,5530.534Zm2.723-26.913q-.781.437-1.127.1a1.774,1.774,0,0,1-.443-1.044c-.067-.476.177-.844.732-1.11a3.143,3.143,0,0,0,.975-.284,2.006,2.006,0,0,1,1.01.021.918.918,0,0,1,.777-.086.966.966,0,0,1,.693-.076.683.683,0,0,0,.672-.249,1.879,1.879,0,0,1,1.041.1,1.333,1.333,0,0,0,.779.133,1.671,1.671,0,0,1,.894.164,4.846,4.846,0,0,0,1.015.26q.33.03.551.639a.9.9,0,0,1-.112.975,1.426,1.426,0,0,1-.936.432,3.574,3.574,0,0,1-1.458-.321,4.716,4.716,0,0,0-2.192-.217,11.257,11.257,0,0,0-1.659.226C491.039,5503.358,490.636,5503.468,490.039,5503.621Z" fill="#fff"/>
      <path id="パス_2200" data-name="パス 2200" d="M523.405,5518.415a7.081,7.081,0,0,0-.88.359,3.174,3.174,0,0,0-.553.344,1.811,1.811,0,0,1-.779.284.954.954,0,0,0-.556.3c-.116.146-.381.2-.793.154a2.513,2.513,0,0,1-1.216.484c-.28.382-.534.585-.765.61s-.489.069-.773.128a2,2,0,0,0-.993.329c-.117.129-.357.142-.719.036a1.665,1.665,0,0,1-1.36.368,1.786,1.786,0,0,1-.968.347,1.261,1.261,0,0,0-.645.116,2.014,2.014,0,0,1-.9.121,1.5,1.5,0,0,1-1.058-.059c-.349.011-.639.028-.87.053a1.3,1.3,0,0,1-.643-.082c-.2-.08-.542-.217-1.031-.411a4.251,4.251,0,0,1-1.368-.9,3.84,3.84,0,0,1-.938-1.363,4.137,4.137,0,0,1-.337-1.669,5.774,5.774,0,0,1,.413-2.409,3.564,3.564,0,0,0-1.1-.252,1.9,1.9,0,0,1-1.075-.428,1.692,1.692,0,0,1-.585-.941,1.126,1.126,0,0,1,1.433-1.3,3.335,3.335,0,0,0,.672.341c.167.056.31.1.431.15a5.744,5.744,0,0,0,.766.178,12.819,12.819,0,0,1,.8-1.883,11.267,11.267,0,0,1,1.291-2.177,25.83,25.83,0,0,1,1.958-2.295,13.313,13.313,0,0,1,2.525-2.094,9.609,9.609,0,0,1,2.049-1.08q.471-.1,1.032-.158c.349-.009.684-.024,1-.045a2.808,2.808,0,0,1,1,.13,2.085,2.085,0,0,1,.74.357c.146.131.441.36.886.69a3.764,3.764,0,0,1,.856,2.006,2.733,2.733,0,0,1-.2,1.556,3.9,3.9,0,0,1-.529.757c-.156.164-.358.4-.6.7a2.55,2.55,0,0,1-.78.678,3.712,3.712,0,0,1-1.045,1.034.779.779,0,0,0-.44.377.687.687,0,0,1-.509.34,3.853,3.853,0,0,0-.72.233,1.132,1.132,0,0,0-.485.36,1.525,1.525,0,0,1-.742.41.729.729,0,0,1-.526.386.765.765,0,0,0-.515.3q-.171.238-.579.108a.98.98,0,0,1-.816.55,1.113,1.113,0,0,0-.761.237q-1.543.3-3.512.694a5.963,5.963,0,0,0-.487,2.329,5.585,5.585,0,0,0,.241,1.2,1.768,1.768,0,0,0,.861.867,7.256,7.256,0,0,0,1.374.55,4.264,4.264,0,0,0,1.794,0q1.118-.187,1.723-.256.554-.147,1.149-.3t2.167-.589a15.157,15.157,0,0,0,2.652-.971q1.077-.534,2.2-1.053,1.073-.6,1.625-.945a1.513,1.513,0,0,1,1.042-.268.809.809,0,0,1,.67.517,1.548,1.548,0,0,1,.131.795,1.094,1.094,0,0,1-.47.686A1.7,1.7,0,0,1,523.405,5518.415Zm-8.61-12.578-1.159.589c-.332.167-.594.314-.783.435a14.478,14.478,0,0,0-1.283,1.084,3.35,3.35,0,0,0-.565.828,1.513,1.513,0,0,1-.8.678,1.364,1.364,0,0,1-.465.752.55.55,0,0,0-.245.553.5.5,0,0,1-.292.535,1.327,1.327,0,0,0-.549.783,5.829,5.829,0,0,1-.61,1.2,2.526,2.526,0,0,0,1.417-.046q.652-.226,2.6-1.01a15.182,15.182,0,0,0,3.147-1.639,13.552,13.552,0,0,0,1.629-1.295,12.464,12.464,0,0,0,1.006-1.2,1.344,1.344,0,0,0,.414-.812,1.647,1.647,0,0,0-.217-.984,1.19,1.19,0,0,0-.9-.622,4.082,4.082,0,0,0-1.121-.051A11.065,11.065,0,0,0,514.795,5505.837Z" fill="#fff"/>
      <path id="パス_2201" data-name="パス 2201" d="M546.75,5513.784a3.78,3.78,0,0,1-.585.459.606.606,0,0,1-.446.113c-.121-.03-.28.126-.474.47-.148.249-.306.346-.472.292s-.319.02-.457.224a1.117,1.117,0,0,1-.586.438,9.27,9.27,0,0,1-1.692.929,1.449,1.449,0,0,1-.995.5c-.257.32-.467.466-.63.442s-.417.126-.76.455a3.368,3.368,0,0,1-.845.465c-.35.141-.622.244-.82.31a1.7,1.7,0,0,0-.613.4,1.157,1.157,0,0,1-.8.306,5.561,5.561,0,0,1-1.1.537,2.8,2.8,0,0,1-.968.151,2.037,2.037,0,0,0-.88.162,2.375,2.375,0,0,1-1.289.012,6.59,6.59,0,0,1-2.08-.6,5.515,5.515,0,0,1-1.614-1.528,7.7,7.7,0,0,1-.726-2.811,11.405,11.405,0,0,1,.284-2.591,20.944,20.944,0,0,1,1.43-3.9,22.446,22.446,0,0,1,2.077-3.8q.949-1.308,1.315-1.765a4.6,4.6,0,0,1,.851-.816,10.364,10.364,0,0,1,1.913-1.5,6.043,6.043,0,0,1,1.567-.676l.476-.053a6.917,6.917,0,0,1,1.265-.051,4.418,4.418,0,0,1,1.19.48,5.712,5.712,0,0,0,.526.6,1.547,1.547,0,0,1,.329.6,11.1,11.1,0,0,1,.33,1.21,2.125,2.125,0,0,1-.035,1.273,1.99,1.99,0,0,1-.724.978.739.739,0,0,1-.81,0,1.505,1.505,0,0,1-.6-.656,1.073,1.073,0,0,1-.032-.872.827.827,0,0,0,0-.811,4.084,4.084,0,0,0-.645-.694,2.25,2.25,0,0,0-1.4.177,5.155,5.155,0,0,0-1.114.626q-.383.3-.646.487a12.128,12.128,0,0,0-1.314,1.393,18.744,18.744,0,0,0-1.9,2.617,3.869,3.869,0,0,0-.415.81,1.363,1.363,0,0,1-.4.591,1.893,1.893,0,0,0-.292.711c-.023.192-.2.365-.535.518.045.4.008.657-.112.757a.891.891,0,0,0-.246.553,3.73,3.73,0,0,0-.061.641.808.808,0,0,1-.269.533.572.572,0,0,0-.176.589.946.946,0,0,1-.077.687,2.027,2.027,0,0,0-.134.977c.028.391.093,1.033.191,1.927a.819.819,0,0,1,.511.469.539.539,0,0,0,.392.373,1.4,1.4,0,0,1,.653.562c.489-.054.809-.01.955.135s.568.179,1.259.1a13.671,13.671,0,0,0,1.865-.555,22.94,22.94,0,0,0,2.427-1.012q1.816-.987,3.411-2.016t2.785-1.928q1.192-.9,1.809-1.272.788-.786,1.189-1.117a1,1,0,0,1,1.017-.111.982.982,0,0,1,.672.932,1.274,1.274,0,0,1-.3,1.063,2.929,2.929,0,0,1-.687.514A8.828,8.828,0,0,0,546.75,5513.784Z" fill="#fff"/>
      <path id="パス_2202" data-name="パス 2202" d="M561.409,5501.048q-.588,2.6-.949,4.877t-.5,3.4c-.092.753-.164,1.353-.218,1.8s-.123,1.064-.21,1.861a4.946,4.946,0,0,0,.143,1.1,3.486,3.486,0,0,1,.14.685,1.255,1.255,0,0,0,.388.724.852.852,0,0,0,1.155.354,9.392,9.392,0,0,0,1.266-.621,12.528,12.528,0,0,0,1.132-.847,1.247,1.247,0,0,1,1.118-.387,4.088,4.088,0,0,1,.708.272.757.757,0,0,1,.336.467.732.732,0,0,1-.044.6,1.507,1.507,0,0,1-.43.463q-.573.369-1.253.751t-1.538.936a4.038,4.038,0,0,1-2.078.6,5.107,5.107,0,0,1-1.16-.593,4.182,4.182,0,0,1-.93-.882.7.7,0,0,1-.188-.528,1.025,1.025,0,0,0-.127-.554,1.842,1.842,0,0,1-.119-.885.5.5,0,0,1-.193-.547,1.84,1.84,0,0,0,.109-.6,3.665,3.665,0,0,1,.063-.619,4.352,4.352,0,0,0,.032-.9q.041-.835.535-4.282t1.017-6.263a23.818,23.818,0,0,0-2.393.329,3.142,3.142,0,0,1-.975.086,2.241,2.241,0,0,1-1.011.374.96.96,0,0,0-.631.222,2.781,2.781,0,0,1-1.276.339,2.193,2.193,0,0,1-1.286.843,5.236,5.236,0,0,1-1.083-.1,1.762,1.762,0,0,1-.442-1.023,1.036,1.036,0,0,1,.3-.865,2.59,2.59,0,0,1,1.059-.533q1.014-.331,3.561-.851t4.4-.771a4.554,4.554,0,0,0,.147-.65c.014-.132.032-.375.052-.729a1.694,1.694,0,0,1,.3-1.214,3.093,3.093,0,0,1-.081-.735,1.479,1.479,0,0,1,.226-.727,1.417,1.417,0,0,1,.084-.818,5.718,5.718,0,0,0,.288-.578,4.424,4.424,0,0,1,.116-1.72,6.23,6.23,0,0,1,.165-1.289q.126-.45.246-.945a1.157,1.157,0,0,1,.51-.537l.552-.15a.84.84,0,0,1,.79.417c.178.286.312.513.4.678s-.024.527-.341,1.087c-.109.334-.2.585-.267.753a8.907,8.907,0,0,0-.287.971,6.036,6.036,0,0,1-.224,1.339q-.177.59-.711,4.455,1.6-.132,2.187-.2t3.088-.385a12.46,12.46,0,0,1,1.471-.162,1.478,1.478,0,0,1,.833.215.861.861,0,0,1,.349.794.782.782,0,0,1-.376.764,5.954,5.954,0,0,1-.857.356,2.445,2.445,0,0,1-1.153.061,5.071,5.071,0,0,0-1.351.062,16.163,16.163,0,0,0-2.108.123Q562.961,5500.834,561.409,5501.048Z" fill="#fff"/>
      <path id="パス_2203" data-name="パス 2203" d="M584.166,5522.045a7.506,7.506,0,0,1-1.112-.555,5.391,5.391,0,0,1-1.062-.889,10.214,10.214,0,0,1-1.014-1.268,8.557,8.557,0,0,1-.363-.9,1.027,1.027,0,0,1,.085-.819.959.959,0,0,1,.535-.519,1.76,1.76,0,0,1,.67-.073,1.5,1.5,0,0,1,.682.23,1.844,1.844,0,0,1,.606.743,3.689,3.689,0,0,0,.675,1.152,1.08,1.08,0,0,0,.894.361.71.71,0,0,1,.746.42,5.326,5.326,0,0,1,.405.9.626.626,0,0,1-.185.7,3.262,3.262,0,0,1-.606.461A1.578,1.578,0,0,1,584.166,5522.045Zm3.709-39.409a2.21,2.21,0,0,1-.011.9c-.057.138-.205.455-.442.947a.734.734,0,0,1-.581.48c-.275.045-.49.266-.65.662a5.893,5.893,0,0,1-.256,1.057,4.1,4.1,0,0,1-.286.578,2.2,2.2,0,0,0-.243.773,4.216,4.216,0,0,1-.318,1.478.6.6,0,0,1-.075.512,1.706,1.706,0,0,0-.243.574,5.048,5.048,0,0,1-.146,1.657.774.774,0,0,0-.065.6.672.672,0,0,1,.008.479c-.055.154-.127.38-.209.681a1.677,1.677,0,0,1-.034.682,11.324,11.324,0,0,0-.191,1.641,9.226,9.226,0,0,1-.374,2.163,10.259,10.259,0,0,1-.146,1.264,3.2,3.2,0,0,0-.066.992,1.54,1.54,0,0,1-.036.661,4.463,4.463,0,0,1-.232.682,1.46,1.46,0,0,0-.1.865.662.662,0,0,1-.089.578.767.767,0,0,0-.109.6,3.178,3.178,0,0,1-.169,1.245,6.764,6.764,0,0,1,.085,1.566c0,.554,0,.949,0,1.182s.018.829.064,1.787a3.118,3.118,0,0,0,.183,1.053,1.184,1.184,0,0,1,.094.668,11.534,11.534,0,0,1,.026,1.223.982.982,0,0,1-.3.668,1.579,1.579,0,0,1-.724.385.863.863,0,0,1-.757-.113,1.507,1.507,0,0,1-.4-1.051,59.067,59.067,0,0,1,.326-7.761q.414-3.787,1.018-8.626t1.11-8q.505-3.163.8-4.421a7.871,7.871,0,0,1,.813-2.148,2.205,2.205,0,0,1,.966-.764,1.564,1.564,0,0,1,1.11.142A2.5,2.5,0,0,1,587.875,5482.636Z" fill="#fff"/>
    </g>
  </g>
</svg>
