<svg xmlns="http://www.w3.org/2000/svg" width="115.175" height="53.148" viewBox="0 0 115.175 53.148">
  <g id="グループ_98" data-name="グループ 98" transform="translate(-436.562 -5608.467)">
    <path id="パス_44" data-name="パス 44" d="M452.182,5634.732l-.037.883H436.562v-26.4h15.583v.883H437.594v11.7h12.26v.864h-12.26v12.071Z" fill="#fff"/>
    <path id="パス_45" data-name="パス 45" d="M471.053,5617.1l-10.8,24.725a1.563,1.563,0,0,1-.225.339.474.474,0,0,1-.375.15H459l3.191-7.153-7.922-18.061h.751a.468.468,0,0,1,.328.112.577.577,0,0,1,.16.226l6.909,15.845a4.121,4.121,0,0,1,.281.864q.132-.394.319-.864l6.872-15.845a.7.7,0,0,1,.2-.245.437.437,0,0,1,.272-.093Z" fill="#fff"/>
    <path id="パス_46" data-name="パス 46" d="M488.891,5633.344a4.669,4.669,0,0,1-1.052.92,8.319,8.319,0,0,1-1.548.8,11.592,11.592,0,0,1-1.9.564,10.163,10.163,0,0,1-2.093.215,8.489,8.489,0,0,1-3.426-.666,7.144,7.144,0,0,1-2.61-1.925,8.711,8.711,0,0,1-1.661-3.088,13.748,13.748,0,0,1-.582-4.177,11.8,11.8,0,0,1,.553-3.708,8.428,8.428,0,0,1,1.6-2.9,7.205,7.205,0,0,1,2.573-1.9,8.412,8.412,0,0,1,3.454-.676,7.45,7.45,0,0,1,2.807.526,6.456,6.456,0,0,1,2.281,1.548,7.231,7.231,0,0,1,1.53,2.526,9.9,9.9,0,0,1,.554,3.436c0,.263-.113.394-.338.394H475.016c-.012.125-.019.247-.019.366v.385a13.181,13.181,0,0,0,.526,3.905,8.125,8.125,0,0,0,1.484,2.835,6.2,6.2,0,0,0,2.318,1.737,7.55,7.55,0,0,0,3.032.591,8.971,8.971,0,0,0,2.573-.329,9.94,9.94,0,0,0,1.821-.722,7.547,7.547,0,0,0,1.136-.723,1.38,1.38,0,0,1,.516-.329.3.3,0,0,1,.244.113Zm-.413-8.768A8.61,8.61,0,0,0,488,5621.6a6.481,6.481,0,0,0-1.314-2.206,5.507,5.507,0,0,0-1.981-1.37,6.47,6.47,0,0,0-2.478-.47,7.6,7.6,0,0,0-2.826.5,6.172,6.172,0,0,0-2.149,1.418,7.121,7.121,0,0,0-1.455,2.215,9.958,9.958,0,0,0-.723,2.892Z" fill="#fff"/>
    <path id="パス_47" data-name="パス 47" d="M496.121,5608.467v27.148h-.976v-27.148Z" fill="#fff"/>
    <path id="パス_48" data-name="パス 48" d="M502.713,5619.732a10.733,10.733,0,0,1,2.91-2.178,7.754,7.754,0,0,1,3.473-.751,6.325,6.325,0,0,1,2.516.46,4.577,4.577,0,0,1,1.774,1.324,5.608,5.608,0,0,1,1.042,2.093,10.425,10.425,0,0,1,.338,2.769v12.166h-.338a.4.4,0,0,1-.431-.394l-.188-2.741a20.109,20.109,0,0,1-1.539,1.427,8.889,8.889,0,0,1-1.634,1.079,8.568,8.568,0,0,1-1.859.686,9.247,9.247,0,0,1-2.2.243,5.956,5.956,0,0,1-1.746-.262,4.544,4.544,0,0,1-1.558-.826,4.1,4.1,0,0,1-1.118-1.456,4.989,4.989,0,0,1-.422-2.149,3.753,3.753,0,0,1,.7-2.216,5.611,5.611,0,0,1,2.187-1.717,14.825,14.825,0,0,1,3.755-1.145,34.425,34.425,0,0,1,5.407-.5v-2.2a6.872,6.872,0,0,0-1.2-4.318,4.252,4.252,0,0,0-3.567-1.54,6.551,6.551,0,0,0-2.423.4,7.625,7.625,0,0,0-1.689.9,9.7,9.7,0,0,0-1.08.9q-.4.405-.61.4a.424.424,0,0,1-.338-.206Zm11.077,6.609q-5.67.188-8.383,1.408t-2.712,3.435a4.214,4.214,0,0,0,.347,1.784,3.626,3.626,0,0,0,2.224,1.981,4.917,4.917,0,0,0,1.5.234,8.1,8.1,0,0,0,4.037-1.013,9.169,9.169,0,0,0,1.577-1.108q.732-.637,1.408-1.352Z" fill="#fff"/>
    <path id="パス_49" data-name="パス 49" d="M531.346,5619a.3.3,0,0,1-.281.169.9.9,0,0,1-.479-.254,5.39,5.39,0,0,0-.854-.544,7.778,7.778,0,0,0-1.361-.544,6.87,6.87,0,0,0-2.019-.254,5.914,5.914,0,0,0-2.018.328,5.207,5.207,0,0,0-1.567.873,3.814,3.814,0,0,0-1.014,1.277,3.431,3.431,0,0,0-.357,1.521,2.624,2.624,0,0,0,.46,1.577,3.877,3.877,0,0,0,1.211,1.079,8.547,8.547,0,0,0,1.708.752q.958.309,1.953.619t1.952.667a7.544,7.544,0,0,1,1.709.882,4.215,4.215,0,0,1,1.211,1.295,3.649,3.649,0,0,1,.46,1.9,5.716,5.716,0,0,1-.413,2.177,5.062,5.062,0,0,1-1.211,1.774,5.671,5.671,0,0,1-1.953,1.193,7.516,7.516,0,0,1-2.638.431,9.36,9.36,0,0,1-1.8-.159,7.836,7.836,0,0,1-1.5-.45,7.184,7.184,0,0,1-1.3-.705,11.424,11.424,0,0,1-1.163-.919l.244-.32a.724.724,0,0,1,.14-.14.373.373,0,0,1,.216-.048.985.985,0,0,1,.535.311,7.644,7.644,0,0,0,.939.685,7.056,7.056,0,0,0,1.493.684,6.856,6.856,0,0,0,2.215.311,6.506,6.506,0,0,0,2.281-.367,4.721,4.721,0,0,0,1.652-1,4.148,4.148,0,0,0,1.005-1.492,4.889,4.889,0,0,0,.338-1.812,2.944,2.944,0,0,0-.46-1.69,3.936,3.936,0,0,0-1.211-1.136,8.318,8.318,0,0,0-1.709-.779q-.957-.318-1.952-.619t-1.953-.648a7.5,7.5,0,0,1-1.708-.864,4.142,4.142,0,0,1-1.211-1.268,3.531,3.531,0,0,1-.46-1.877,4.124,4.124,0,0,1,.422-1.812,4.781,4.781,0,0,1,1.192-1.539,5.88,5.88,0,0,1,1.85-1.061,6.989,6.989,0,0,1,2.412-.394,8.341,8.341,0,0,1,2.854.45,7.38,7.38,0,0,1,2.347,1.427Z" fill="#fff"/>
    <path id="パス_50" data-name="パス 50" d="M538.633,5620.633a10.247,10.247,0,0,1,3.079-2.788,7.56,7.56,0,0,1,3.886-1.042,7,7,0,0,1,2.694.479,4.975,4.975,0,0,1,1.915,1.37,5.92,5.92,0,0,1,1.145,2.187,10.276,10.276,0,0,1,.385,2.929v11.847h-.995v-11.847a9.661,9.661,0,0,0-.319-2.591,5.136,5.136,0,0,0-.986-1.943,4.327,4.327,0,0,0-1.661-1.22,5.969,5.969,0,0,0-2.347-.423,6.993,6.993,0,0,0-3.745,1.061,10.576,10.576,0,0,0-3.051,2.939v14.024h-.995v-27.148h.995Z" fill="#fff"/>
    <path id="パス_51" data-name="パス 51" d="M450.388,5644.732v16.883h-1.27a1,1,0,0,1-.488-.106,1.452,1.452,0,0,1-.394-.34l-9.534-12.334q.023.318.041.624c.011.2.017.4.017.575v11.581h-2.2v-16.883h1.293a1.217,1.217,0,0,1,.494.077,1.076,1.076,0,0,1,.365.347l9.557,12.344c-.023-.227-.041-.449-.052-.664s-.018-.417-.018-.606v-11.5Z" fill="#fff"/>
    <path id="パス_52" data-name="パス 52" d="M482.594,5659.581l-.012,2.034H472.118v-16.883h10.464v2.034h-7.948v5.35h6.4v1.963h-6.4v5.5Z" fill="#fff"/>
    <path id="パス_53" data-name="パス 53" d="M518.738,5661.615h-2.481a.629.629,0,0,1-.435-.147,1.236,1.236,0,0,1-.258-.311l-4.362-6.948a2.316,2.316,0,0,1-.224.5l-4.244,6.443a2.219,2.219,0,0,1-.27.311.536.536,0,0,1-.388.147h-2.34l5.773-8.688-5.526-8.195h2.481a.761.761,0,0,1,.4.083.687.687,0,0,1,.223.247l4.267,6.618a2.312,2.312,0,0,1,.259-.564l4-6.008a.869.869,0,0,1,.236-.282.55.55,0,0,1,.329-.094h2.387L513,5652.821Z" fill="#fff"/>
    <path id="パス_54" data-name="パス 54" d="M551.737,5646.825h-5.361v14.79h-2.492v-14.79H538.5v-2.093h13.238Z" fill="#fff"/>
  </g>
</svg>
