<svg xmlns="http://www.w3.org/2000/svg" width="136.689" height="63.075" viewBox="0 0 136.689 63.075">
  <g id="グループ_104" data-name="グループ 104" transform="translate(-50.707 -59.164)">
    <path id="パス_56" data-name="パス 56" d="M69.245,90.335,69.2,91.382H50.707V60.054H69.2V61.1H51.932V74.983h14.55v1.025H51.932V90.335Z" fill="#fff"/>
    <path id="パス_57" data-name="パス 57" d="M91.641,69.413,78.829,98.757a1.942,1.942,0,0,1-.268.4.563.563,0,0,1-.445.178h-.78l3.788-8.489-9.4-21.435h.891a.554.554,0,0,1,.39.133.67.67,0,0,1,.19.268l8.2,18.806a4.869,4.869,0,0,1,.334,1.024q.156-.468.379-1.024l8.155-18.806a.82.82,0,0,1,.234-.29.519.519,0,0,1,.323-.111Z" fill="#fff"/>
    <path id="パス_58" data-name="パス 58" d="M112.81,88.686a5.456,5.456,0,0,1-1.248,1.092,9.855,9.855,0,0,1-1.838.947,13.762,13.762,0,0,1-2.25.669,12.06,12.06,0,0,1-2.484.255,10.1,10.1,0,0,1-4.067-.79,8.5,8.5,0,0,1-3.1-2.284,10.38,10.38,0,0,1-1.972-3.665,16.337,16.337,0,0,1-.69-4.958,14.036,14.036,0,0,1,.656-4.4,10.021,10.021,0,0,1,1.906-3.442,8.551,8.551,0,0,1,3.052-2.251,10.012,10.012,0,0,1,4.1-.8,8.851,8.851,0,0,1,3.331.624,7.662,7.662,0,0,1,2.707,1.838,8.578,8.578,0,0,1,1.816,3,11.736,11.736,0,0,1,.658,4.077q0,.468-.4.468H96.344a4.306,4.306,0,0,0-.022.434v.457a15.621,15.621,0,0,0,.624,4.634,9.627,9.627,0,0,0,1.76,3.365,7.374,7.374,0,0,0,2.752,2.061,8.952,8.952,0,0,0,3.6.7,10.589,10.589,0,0,0,3.053-.39,11.714,11.714,0,0,0,2.161-.857,8.789,8.789,0,0,0,1.348-.858,1.64,1.64,0,0,1,.613-.39.359.359,0,0,1,.289.134Zm-.49-10.4a10.221,10.221,0,0,0-.568-3.531,7.7,7.7,0,0,0-1.56-2.619,6.55,6.55,0,0,0-2.35-1.626,7.694,7.694,0,0,0-2.942-.557,9.007,9.007,0,0,0-3.353.59A7.328,7.328,0,0,0,99,72.22a8.475,8.475,0,0,0-1.727,2.629,11.882,11.882,0,0,0-.858,3.432Z" fill="#fff"/>
    <path id="パス_59" data-name="パス 59" d="M121.391,59.164V91.382h-1.158V59.164Z" fill="#fff"/>
    <path id="パス_60" data-name="パス 60" d="M129.214,72.532a12.711,12.711,0,0,1,3.454-2.584,9.191,9.191,0,0,1,4.122-.892,7.519,7.519,0,0,1,2.986.546,5.446,5.446,0,0,1,2.1,1.571,6.67,6.67,0,0,1,1.237,2.485,12.417,12.417,0,0,1,.4,3.286V91.382h-.4a.474.474,0,0,1-.512-.467l-.223-3.254a23.716,23.716,0,0,1-1.827,1.694,10.539,10.539,0,0,1-1.939,1.28,10.017,10.017,0,0,1-2.206.814,10.946,10.946,0,0,1-2.607.29,7.111,7.111,0,0,1-2.072-.312,5.415,5.415,0,0,1-1.849-.98,4.856,4.856,0,0,1-1.326-1.728,5.915,5.915,0,0,1-.5-2.551,4.449,4.449,0,0,1,.835-2.629,6.673,6.673,0,0,1,2.6-2.039,17.611,17.611,0,0,1,4.456-1.358,40.964,40.964,0,0,1,6.417-.591V76.944a8.146,8.146,0,0,0-1.426-5.124,5.041,5.041,0,0,0-4.233-1.828,7.768,7.768,0,0,0-2.874.479,9.039,9.039,0,0,0-2.006,1.07,11.285,11.285,0,0,0-1.281,1.069q-.48.479-.724.479a.5.5,0,0,1-.4-.245Zm13.146,7.844q-6.729.222-9.948,1.67t-3.22,4.078a5.025,5.025,0,0,0,.412,2.117,4.295,4.295,0,0,0,2.641,2.35,5.791,5.791,0,0,0,1.782.278,9.6,9.6,0,0,0,4.791-1.2,10.926,10.926,0,0,0,1.871-1.315q.87-.757,1.671-1.6Z" fill="#fff"/>
    <path id="パス_61" data-name="パス 61" d="M163.2,71.664a.362.362,0,0,1-.334.2,1.071,1.071,0,0,1-.568-.3,6.442,6.442,0,0,0-1.014-.646,9.256,9.256,0,0,0-1.616-.646,8.168,8.168,0,0,0-2.4-.3,7.032,7.032,0,0,0-2.4.389,6.163,6.163,0,0,0-1.86,1.037,4.523,4.523,0,0,0-1.2,1.515,4.075,4.075,0,0,0-.423,1.805,3.12,3.12,0,0,0,.546,1.872,4.632,4.632,0,0,0,1.437,1.281,10.164,10.164,0,0,0,2.028.891q1.136.367,2.317.735t2.317.791a9.028,9.028,0,0,1,2.028,1.047,5,5,0,0,1,1.437,1.538,4.316,4.316,0,0,1,.545,2.25,6.773,6.773,0,0,1-.49,2.584,5.992,5.992,0,0,1-1.437,2.106,6.715,6.715,0,0,1-2.317,1.415,8.89,8.89,0,0,1-3.13.513,11.1,11.1,0,0,1-2.14-.189,9.306,9.306,0,0,1-1.782-.535,8.495,8.495,0,0,1-1.538-.836,13.592,13.592,0,0,1-1.381-1.091l.29-.38a.836.836,0,0,1,.167-.166.442.442,0,0,1,.256-.057,1.17,1.17,0,0,1,.635.369,8.854,8.854,0,0,0,1.114.813,8.421,8.421,0,0,0,1.771.812,8.138,8.138,0,0,0,2.63.369,7.744,7.744,0,0,0,2.707-.435,5.632,5.632,0,0,0,1.961-1.192,4.953,4.953,0,0,0,1.192-1.771,5.8,5.8,0,0,0,.4-2.15,3.485,3.485,0,0,0-.546-2.006,4.662,4.662,0,0,0-1.437-1.348,9.841,9.841,0,0,0-2.028-.925q-1.137-.378-2.317-.735t-2.317-.768a8.963,8.963,0,0,1-2.028-1.026,4.936,4.936,0,0,1-1.437-1.5,4.194,4.194,0,0,1-.546-2.228,4.885,4.885,0,0,1,.5-2.15,5.659,5.659,0,0,1,1.415-1.827,6.961,6.961,0,0,1,2.2-1.259,8.294,8.294,0,0,1,2.863-.468,9.868,9.868,0,0,1,3.387.535,8.745,8.745,0,0,1,2.785,1.693Z" fill="#fff"/>
    <path id="パス_62" data-name="パス 62" d="M171.843,73.6a12.188,12.188,0,0,1,3.654-3.308,8.978,8.978,0,0,1,4.613-1.237,8.319,8.319,0,0,1,3.2.568,5.91,5.91,0,0,1,2.273,1.627,7.045,7.045,0,0,1,1.359,2.6,12.216,12.216,0,0,1,.457,3.476V91.382h-1.181V77.323a11.484,11.484,0,0,0-.379-3.075,6.106,6.106,0,0,0-1.17-2.306,5.126,5.126,0,0,0-1.972-1.448,7.075,7.075,0,0,0-2.785-.5,8.3,8.3,0,0,0-4.445,1.259,12.57,12.57,0,0,0-3.621,3.487V91.382h-1.181V59.164h1.181Z" fill="#fff"/>
    <path id="パス_63" data-name="パス 63" d="M67.116,102.2v20.037H65.609a1.211,1.211,0,0,1-.58-.126,1.722,1.722,0,0,1-.467-.4L53.246,107.072c.019.251.035.5.049.739s.021.47.021.684v13.744H50.707V102.2h1.535a1.444,1.444,0,0,1,.586.091,1.3,1.3,0,0,1,.433.412L64.6,117.355q-.042-.405-.063-.788t-.021-.719V102.2Z" fill="#fff"/>
    <path id="パス_64" data-name="パス 64" d="M105.337,119.825l-.014,2.414H92.9V102.2h12.418v2.414H95.891v6.349h7.59v2.33h-7.59v6.53Z" fill="#fff"/>
    <path id="パス_65" data-name="パス 65" d="M148.233,122.239h-2.945a.742.742,0,0,1-.516-.175,1.521,1.521,0,0,1-.307-.369l-5.177-8.246a2.708,2.708,0,0,1-.265.6l-5.036,7.647a2.829,2.829,0,0,1-.321.369.638.638,0,0,1-.461.175h-2.777l6.851-10.312-6.557-9.725h2.944a.906.906,0,0,1,.474.1.818.818,0,0,1,.265.293l5.065,7.855a2.722,2.722,0,0,1,.307-.67l4.744-7.129a1.018,1.018,0,0,1,.279-.335.649.649,0,0,1,.391-.112h2.832l-6.6,9.6Z" fill="#fff"/>
    <path id="パス_66" data-name="パス 66" d="M187.4,104.686h-6.363v17.553h-2.958V104.686h-6.39V102.2H187.4Z" fill="#fff"/>
  </g>
</svg>
