<svg xmlns="http://www.w3.org/2000/svg" width="510.046" height="85.198" viewBox="0 0 510.046 85.198">
  <g id="グループ_142" data-name="グループ 142" transform="translate(-217.092 -2642.59)">
    <path id="パス_487" data-name="パス 487" d="M419.854,2648.349a10.277,10.277,0,0,0,4.844,2.685,2.367,2.367,0,0,0-.42.555c-.134.285-.149.3-.434.195a10.747,10.747,0,0,1-4.965-3.435h-2.07a10.042,10.042,0,0,1-4.9,3.584c-.285.106-.315.076-.465-.165a1.664,1.664,0,0,0-.42-.434,10.231,10.231,0,0,0,4.725-2.985h-2.2c-1.425,0-1.89.03-1.98.03s-.12-.015-.12-.12v-.6c0-.1.015-.12.12-.12s.555.03,1.98.03h2.76a4.374,4.374,0,0,0,.644-1.335,5.594,5.594,0,0,1,.856.24c.135.06.165.1.165.195s-.09.136-.165.18c-.12.075-.226.21-.51.72h4.92c1.439,0,1.9-.03,1.979-.03.121,0,.135.015.135.12v.6c0,.1-.014.12-.135.12-.075,0-.54-.03-1.979-.03Zm-.09-4.56c.165-.12.21-.135.315-.06a16.442,16.442,0,0,1,3.09,2.475c.074.09.074.12-.091.24l-.345.27c-.179.135-.21.135-.3.045-.3-.329-.585-.63-.885-.9-2.46.24-4.7.361-7.035.45a3.376,3.376,0,0,0-1.14.135.363.363,0,0,1-.2.06c-.075,0-.135-.074-.165-.195-.06-.254-.135-.57-.18-.839a14.143,14.143,0,0,0,1.53.029c.195,0,.4,0,.615-.015a13.92,13.92,0,0,0,1.125-1.875,2.939,2.939,0,0,0,.285-.78,8.69,8.69,0,0,1,.84.24c.134.045.209.12.209.195,0,.09-.1.166-.179.225a2.5,2.5,0,0,0-.375.555,14.646,14.646,0,0,1-.915,1.426c1.724-.061,3.36-.136,4.859-.256a10.929,10.929,0,0,0-1.409-1.02c-.106-.059-.106-.1.09-.224Zm-1.005,6.39a1.389,1.389,0,0,0-.51.315,11.893,11.893,0,0,1-4.1,2.055c-.27.075-.285.06-.45-.2a1.381,1.381,0,0,0-.4-.42,10.445,10.445,0,0,0,4.2-1.92,2.8,2.8,0,0,0,.645-.689,7.787,7.787,0,0,1,.66.465c.134.09.15.15.15.224S418.894,2650.134,418.759,2650.179Zm1.8,1.4a3.07,3.07,0,0,0-.451.27,13.233,13.233,0,0,1-5.954,2.61c-.27.045-.3.03-.4-.226a1.4,1.4,0,0,0-.345-.494,12.318,12.318,0,0,0,5.954-2.386,3.3,3.3,0,0,0,.571-.585,5.38,5.38,0,0,1,.675.466c.089.075.12.119.12.18S420.664,2651.529,420.559,2651.574Zm1.934,1.56a1.66,1.66,0,0,0-.54.315,14.452,14.452,0,0,1-7.694,2.984c-.27.031-.3.016-.4-.24a1.339,1.339,0,0,0-.345-.51,14.637,14.637,0,0,0,7.635-2.684,2.68,2.68,0,0,0,.7-.72c.269.165.54.345.735.495a.214.214,0,0,1,.1.2C422.688,2653.029,422.613,2653.1,422.493,2653.134Z" fill="#595858"/>
    <path id="パス_488" data-name="パス 488" d="M430.849,2646.069c1.29,0,1.724-.03,1.8-.03.106,0,.136.03.136.135-.03.45-.03.885-.03,1.32a50.118,50.118,0,0,1-.436,6.675c-.179,1.125-.689,1.59-1.619,1.59-.4,0-.676-.015-1.005-.045-.27-.031-.27-.031-.3-.345a1.88,1.88,0,0,0-.2-.66,7.631,7.631,0,0,0,1.425.135c.48,0,.705-.225.825-1.081a49.914,49.914,0,0,0,.4-6.869h-2.13a24.344,24.344,0,0,1-.57,4.17,10.49,10.49,0,0,1-2.265,4.68c-.09.1-.135.165-.2.165s-.09-.045-.18-.15a2.528,2.528,0,0,0-.6-.555,8.848,8.848,0,0,0,2.385-4.485,18.713,18.713,0,0,0,.51-3.825h-.51c-1.29,0-1.71.03-1.785.03-.105,0-.12-.015-.12-.119v-.646c0-.1.015-.12.12-.12.075,0,.495.03,1.785.03h.555c.015-.45.015-.9.015-1.38a11.575,11.575,0,0,0-.1-1.844c.344.014.7.044,1.035.089.12.015.165.09.165.15a1.213,1.213,0,0,1-.09.33,6.588,6.588,0,0,0-.09,1.38c0,.42-.015.855-.03,1.275Zm8.189,5.01c0,3.779.03,4.425.03,4.515s-.014.12-.12.12h-.7c-.09,0-.1-.015-.1-.12v-1.11h-3.106v1.215c0,.1-.014.12-.119.12h-.66c-.12,0-.135-.015-.135-.12s.029-.735.029-4.561v-2.654c0-2.7-.029-3.375-.029-3.45,0-.1.015-.12.135-.12.075,0,.42.03,1.515.03h1.665c1.064,0,1.424-.03,1.514-.03.106,0,.12.016.12.12,0,.075-.03.75-.03,3.075Zm-.9-5.325h-3.106v7.92h3.106Z" fill="#595858"/>
    <path id="パス_489" data-name="パス 489" d="M454.474,2648.454c0,.1-.016.12-.12.12-.076,0-.555-.03-1.951-.03h-3.3a23.5,23.5,0,0,1-2.55,1.59H450.2c1.321,0,1.891-.03,1.981-.03s.12.015.12.135c0,.075-.03.465-.03,1.859v1.4c0,2.265.03,2.64.03,2.729s-.016.106-.12.106H451.5c-.106,0-.12-.016-.12-.106v-.66h-5.625v.705c0,.106-.015.12-.12.12h-.675c-.106,0-.12-.014-.12-.12,0-.075.03-.524.03-2.79v-2.489c-.99.465-1.995.885-3.045,1.26-.27.1-.27.1-.435-.165a2.234,2.234,0,0,0-.42-.495,28.279,28.279,0,0,0,6.75-3.045H443.4c-1.41,0-1.875.03-1.95.03-.105,0-.12-.015-.12-.12v-.63c0-.09.015-.1.12-.1.075,0,.54.03,1.95.03h3.42v-1.92h-1.545c-1.381,0-1.83.03-1.92.03-.105,0-.12-.014-.12-.12v-.615c0-.1.015-.12.12-.12.09,0,.539.03,1.92.03h1.545v-.42a8.573,8.573,0,0,0-.105-1.68,8.339,8.339,0,0,1,.99.09c.1.015.194.06.194.135a.673.673,0,0,1-.074.255,3.7,3.7,0,0,0-.105,1.2v.42h.674c1.38,0,1.816-.03,1.906-.03s.12.015.12.12v.615c0,.106-.016.12-.12.12s-.526-.03-1.906-.03h-.674v1.92h1.094a16.741,16.741,0,0,0,3.016-2.9,3.257,3.257,0,0,0,.614-1,6.7,6.7,0,0,1,.84.465c.106.075.136.135.136.21a.206.206,0,0,1-.151.165c-.2.075-.36.3-.644.616a21.58,21.58,0,0,1-2.535,2.444H452.4c1.4,0,1.875-.03,1.951-.03.1,0,.12.015.12.1Zm-3.09,2.445h-5.625v1.515h5.625Zm0,2.265h-5.625v1.635h5.625Z" fill="#595858"/>
    <path id="パス_490" data-name="パス 490" d="M459.739,2646.5c-.885,0-1.71.03-2.52.09-.18.015-.24-.045-.27-.24s-.06-.674-.075-.93a28.437,28.437,0,0,0,2.88.12h5.309a1.359,1.359,0,0,0,.75-.135.369.369,0,0,1,.391.015,3.869,3.869,0,0,1,.675.615.319.319,0,0,1-.045.465,1.341,1.341,0,0,0-.33.51,16.049,16.049,0,0,1-2.941,4.919,16.34,16.34,0,0,1-4.454,3.616.37.37,0,0,1-.51-.031,2.6,2.6,0,0,0-.78-.509,14.381,14.381,0,0,0,4.845-3.705,14.094,14.094,0,0,0,2.819-4.8Zm9.794-2.4a1.514,1.514,0,1,1-1.514-1.514A1.51,1.51,0,0,1,469.533,2644.1Zm-2.46,0a.945.945,0,1,0,.946-.945A.941.941,0,0,0,467.073,2644.1Z" fill="#595858"/>
    <path id="パス_491" data-name="パス 491" d="M473.284,2653.268v1.021c0,.18-.029.21-.21.224s-.495.016-.705,0c-.165-.014-.21-.044-.21-.194.045-.945.061-1.935.061-3.21v-2.955c0-.8,0-1.59-.031-2.4,0-.135.045-.165.165-.165.765.03,1.576.03,2.416.03h3.3c.9,0,1.875,0,2.656-.03.149,0,.179.045.179.21-.014.765-.03,1.56-.03,2.37v3.014c0,1.156.045,2.191.075,2.955,0,.166-.045.21-.2.21h-.779c-.136,0-.151-.044-.151-.194v-.886Zm6.54-6.689H473.27v5.729h6.554Z" fill="#595858"/>
    <path id="パス_492" data-name="パス 492" d="M487.939,2646.324c-.884,0-1.71.03-2.519.09-.181.016-.24-.045-.271-.24-.014-.21-.059-.675-.075-.93a28.388,28.388,0,0,0,2.88.12h5.311a1.364,1.364,0,0,0,.75-.135.365.365,0,0,1,.389.015,3.843,3.843,0,0,1,.675.615.318.318,0,0,1-.045.465,1.377,1.377,0,0,0-.33.51,16.07,16.07,0,0,1-2.939,4.92,16.394,16.394,0,0,1-4.455,3.615.37.37,0,0,1-.51-.03,2.613,2.613,0,0,0-.78-.51,14.4,14.4,0,0,0,4.844-3.705,14.113,14.113,0,0,0,2.821-4.8Z" fill="#595858"/>
    <path id="パス_493" data-name="パス 493" d="M502.43,2653.584c0,.66,0,1.439.014,2.1.015.136-.03.181-.165.181a5.566,5.566,0,0,1-.7,0c-.12,0-.165-.045-.165-.181.03-.689.045-1.394.045-2.069v-3.435a18.656,18.656,0,0,1-3.644,2.61.226.226,0,0,1-.286-.045,1.842,1.842,0,0,0-.674-.45,20.509,20.509,0,0,0,6.1-4.95,3.469,3.469,0,0,0,.66-1.124,3.989,3.989,0,0,1,.946.644c.165.165.134.27-.046.36a2.513,2.513,0,0,0-.645.585,20.666,20.666,0,0,1-1.439,1.575Z" fill="#595858"/>
    <path id="パス_494" data-name="パス 494" d="M510.3,2650.314a12.265,12.265,0,0,0-2.026.15c-.134,0-.21-.06-.255-.21a9.044,9.044,0,0,1-.15-1.14,27.423,27.423,0,0,0,3.315.135h4.605c1.035,0,2.145-.015,3.285-.045.18-.015.225.015.225.18a6.786,6.786,0,0,1,0,.78c0,.165-.045.195-.225.18-1.125-.03-2.235-.03-3.24-.03Z" fill="#595858"/>
    <path id="パス_495" data-name="パス 495" d="M526.055,2645.964c.165.06.179.195.1.375a3.529,3.529,0,0,0-.149,1.17,9.667,9.667,0,0,1-.931,4.11,7.851,7.851,0,0,1-2.144,2.67c-.165.149-.3.165-.42.059a2.2,2.2,0,0,0-.8-.375,7.13,7.13,0,0,0,2.415-2.79,8.779,8.779,0,0,0,.809-3.884,6.17,6.17,0,0,0-.134-1.56A5.653,5.653,0,0,1,526.055,2645.964Zm3.12,6.81a19.6,19.6,0,0,0,2.55-1.591,13.97,13.97,0,0,0,2.654-2.5,2.526,2.526,0,0,0,.255.945c.06.135.075.224-.09.389a20.5,20.5,0,0,1-2.37,2.1,28.685,28.685,0,0,1-2.6,1.68,2.1,2.1,0,0,0-.495.33.284.284,0,0,1-.4.014,3.084,3.084,0,0,1-.585-.584.417.417,0,0,1-.031-.375,7.688,7.688,0,0,0,.06-1.485v-4.26a13.518,13.518,0,0,0-.149-2.625,10.657,10.657,0,0,1,1.245.195c.224.075.179.225.09.435a7.162,7.162,0,0,0-.135,1.98Z" fill="#595858"/>
    <path id="パス_496" data-name="パス 496" d="M230.126,2670.424c0,.1-.015.12-.12.12-.074,0-.555-.031-1.98-.031h-5.384a14.086,14.086,0,0,1-1.635,3.21c.314.016.809.016,1.6.016h3.765c1.44,0,1.936-.03,2.025-.03.1,0,.12.014.12.135,0,.075-.03.464-.03,1.665v1.545c0,2.325.03,2.7.03,2.775,0,.1-.015.119-.12.119h-.719c-.091,0-.106-.015-.106-.119V2679h-6.165v.884c0,.1-.015.121-.119.121h-.705c-.106,0-.12-.016-.12-.121,0-.075.03-.464.03-2.79V2675.7c0-.585,0-.976-.016-1.26a14.062,14.062,0,0,1-2.46,2.444c-.1.076-.165.121-.209.121-.06,0-.1-.06-.21-.2a1.873,1.873,0,0,0-.51-.479,11.9,11.9,0,0,0,4.59-5.821h-2.326c-1.424,0-1.889.031-1.979.031-.106,0-.12-.015-.12-.12v-.675c0-.1.014-.12.12-.12.09,0,.555.03,1.979.03h2.611c.12-.39.224-.765.314-1.155a8.121,8.121,0,0,0,.271-1.74c.33.06.66.12.944.2.136.045.226.09.226.2,0,.09-.076.165-.151.315a4.3,4.3,0,0,0-.344,1.065c-.09.375-.2.75-.3,1.125h5.1c1.425,0,1.906-.03,1.98-.03.1,0,.12.015.12.12Zm-2.55,4.155h-6.165v3.585h6.165Z" fill="#595858"/>
    <path id="パス_497" data-name="パス 497" d="M236.757,2668.879a5.2,5.2,0,0,0,.136-1.44,6.328,6.328,0,0,1,1.169.405.222.222,0,0,1,.06.39,1.012,1.012,0,0,0-.255.5c-.224.735-.42,1.44-.645,2.175a13.79,13.79,0,0,1,1.455-.1c1.3,0,1.95.66,1.95,2.415a12.531,12.531,0,0,1-.825,4.844,1.794,1.794,0,0,1-1.71,1.186,3.941,3.941,0,0,1-1.53-.271.243.243,0,0,1-.18-.254,2.669,2.669,0,0,0-.18-.9,4.371,4.371,0,0,0,1.74.42c.435,0,.72-.149,1.005-.779a11.337,11.337,0,0,0,.675-4.215c0-1.17-.225-1.59-1.035-1.59a10.464,10.464,0,0,0-1.62.165,40.686,40.686,0,0,1-3.06,7.095.18.18,0,0,1-.255.074,4.122,4.122,0,0,1-.6-.4c-.091-.075-.075-.151-.031-.24a31.877,31.877,0,0,0,2.88-6.39c-.615.09-1.23.195-1.98.33a2.2,2.2,0,0,0-.659.194c-.165.106-.3.106-.391-.074a5.8,5.8,0,0,1-.345-1.02,10.068,10.068,0,0,0,1.56-.076c.825-.089,1.41-.179,2.115-.284C236.4,2670.319,236.562,2669.719,236.757,2668.879Zm5.5,1.23a.192.192,0,0,1,.225.06,8.543,8.543,0,0,1,2.414,3.63c.031.1.046.179-.045.255a3.366,3.366,0,0,1-.614.405c-.12.075-.225.059-.255-.09a8.337,8.337,0,0,0-2.4-3.795A6.745,6.745,0,0,1,242.262,2670.109Z" fill="#595858"/>
    <path id="パス_498" data-name="パス 498" d="M249.342,2670.829c.179.1.2.24.09.375a1.931,1.931,0,0,0-.225.7,27.23,27.23,0,0,0-.436,3.435,7.125,7.125,0,0,1,5.236-2.7c2.04,0,3.224,1.17,3.224,2.866a3.445,3.445,0,0,1-2.25,3.2,11.117,11.117,0,0,1-3.644.989c-.24.03-.316.03-.391-.135a2.4,2.4,0,0,0-.675-.735,12.048,12.048,0,0,0,4.081-.93,2.685,2.685,0,0,0,1.8-2.474c0-1.066-.674-1.89-2.264-1.89a6.735,6.735,0,0,0-4.455,2.34,3.748,3.748,0,0,0-.661.885c-.075.12-.12.12-.239.075a5.812,5.812,0,0,1-.615-.271c-.09-.045-.12-.075-.12-.21a44.522,44.522,0,0,1,.434-4.71,8.779,8.779,0,0,0,.121-1.245A4.82,4.82,0,0,1,249.342,2670.829Zm.72-3.645a.157.157,0,0,1,.209-.045,8.928,8.928,0,0,1,2.746,1.709c.089.076.089.106.03.211a4.726,4.726,0,0,1-.495.645c-.075.09-.151.09-.24,0a9.834,9.834,0,0,0-2.775-1.83A4.289,4.289,0,0,1,250.062,2667.184Z" fill="#595858"/>
    <path id="パス_499" data-name="パス 499" d="M263.592,2671.339a1.212,1.212,0,0,0-.255.495,14.338,14.338,0,0,1-2.61,4.92c-.09.12-.135.179-.195.179s-.105-.059-.211-.134a2.181,2.181,0,0,0-.675-.345,11.967,11.967,0,0,0,2.656-4.606,5.638,5.638,0,0,0,.21-1.184,6.576,6.576,0,0,1,.96.315c.134.06.21.1.21.18A.238.238,0,0,1,263.592,2671.339Zm2.309-2.16a9.681,9.681,0,0,0-.1-1.83,10.494,10.494,0,0,1,1.064.09c.12.015.2.074.2.135a.636.636,0,0,1-.09.285,3.916,3.916,0,0,0-.09,1.305v6.585c0,.84.029,1.694.029,2.264,0,.691-.135,1.02-.434,1.231-.33.225-.75.284-2.175.284-.285,0-.3,0-.36-.314a2.231,2.231,0,0,0-.3-.766,9.588,9.588,0,0,0,1.5.091c.554,0,.764-.106.764-.721Zm3.946,1.56c.179-.075.194-.075.239.045a17.829,17.829,0,0,0,2.926,5.415,2.61,2.61,0,0,0-.691.465c-.09.09-.165.149-.21.149s-.1-.059-.179-.165a24.235,24.235,0,0,1-2.76-5.519c-.046-.12-.016-.1.21-.2Z" fill="#595858"/>
    <path id="パス_500" data-name="パス 500" d="M287.876,2668.534c0,.1-.015.12-.12.12s-.555-.03-1.965-.03h-2.774v2.309h1.649c1.516,0,2.056-.029,2.115-.029.106,0,.12.015.12.12,0,.074-.03.614-.03,2.595v2.505c0,3.165.03,3.689.03,3.764,0,.1-.014.121-.12.121h-.705c-.1,0-.12-.016-.12-.121v-.855h-9.18v.886c0,.1-.014.12-.12.12h-.689c-.106,0-.12-.016-.12-.12s.03-.6.03-3.781V2673.9c0-2.266-.03-2.79-.03-2.88s.014-.12.12-.12c.075,0,.6.029,2.115.029h1.409c.016-.479.03-1,.03-1.559v-.75h-2.535c-1.409,0-1.889.03-1.965.03-.1,0-.12-.016-.12-.12v-.675c0-.1.016-.12.12-.12.076,0,.556.03,1.965.03h8.8c1.41,0,1.875-.03,1.965-.03s.12.015.12.12Zm-1.92,3.225h-2.939v2.384c0,.42.014.571.149.661a1.027,1.027,0,0,0,.6.1,1.044,1.044,0,0,0,.674-.136c.2-.149.241-.51.255-1.679a2.123,2.123,0,0,0,.54.285c.271.09.285.134.271.465-.046.839-.151,1.379-.481,1.62a2.144,2.144,0,0,1-1.214.285,2.745,2.745,0,0,1-1.26-.2c-.271-.135-.436-.361-.436-1v-2.79h-1.784a5.59,5.59,0,0,1-2.28,4.53.34.34,0,0,1-.21.1c-.061,0-.135-.045-.255-.165a1.688,1.688,0,0,0-.525-.344,4.754,4.754,0,0,0,2.37-4.125h-2.656v6.434h9.18Zm-3.84-3.135h-1.694v.795c0,.54-.016,1.035-.03,1.514h1.724Z" fill="#595858"/>
    <path id="パス_501" data-name="パス 501" d="M303.026,2677.969c0,.1-.014.12-.12.12-.075,0-.54-.031-1.934-.031h-9.151c-1.394,0-1.859.031-1.934.031-.1,0-.12-.016-.12-.12v-.5c0-.1.015-.12.12-.12.075,0,.54.031,1.934.031h2.1v-.946h-.811c-1.529,0-2.009.031-2.1.031s-.12-.015-.12-.121v-.45c0-.1.015-.12.12-.12s.57.03,2.1.03h.811v-.884h-.045c-1.516,0-2.056.03-2.146.03s-.12-.016-.12-.12.031-.33.031-1.111v-1.094c0-.781-.031-1.035-.031-1.111,0-.1.016-.119.12-.119s.63.03,2.146.03h4.965c1.514,0,2.054-.03,2.144-.03.106,0,.12.015.12.119,0,.076-.03.33-.03,1.111v1.094c0,.781.03,1.021.03,1.111s-.014.12-.12.12c-.09,0-.63-.03-2.144-.03h-.12v.884h.944c1.516,0,2.011-.03,2.1-.03s.12.016.12.12v.45c0,.106-.016.121-.12.121s-.585-.031-2.1-.031h-.944v.946h2.25c1.394,0,1.859-.031,1.934-.031.106,0,.12.016.12.12Zm-8.969-10.725c1.245,0,1.634-.03,1.71-.03.1,0,.12.015.12.12,0,.075-.031.21-.031.66v.854c0,.391.015.766.015,1.1a.963.963,0,0,1-.3.84c-.239.165-.554.24-1.529.24-.271,0-.271,0-.36-.285a1.459,1.459,0,0,0-.21-.435c.33.03.63.044.99.044.449,0,.6-.134.6-.54v-1.844h-3.2c-1.23,0-1.62.03-1.7.03-.106,0-.12-.015-.12-.12v-.54c0-.1.014-.12.12-.12.075,0,.465.03,1.7.03Zm.224,2.28c-.014.3-.014.3-.3.39-.929.33-1.8.555-2.8.825a1.991,1.991,0,0,0-.555.21.314.314,0,0,1-.165.06c-.061,0-.105-.03-.15-.135a4.2,4.2,0,0,1-.241-.691,11.326,11.326,0,0,0,1.306-.194,18.81,18.81,0,0,0,2.984-.9C294.326,2669.223,294.3,2669.388,294.281,2669.524Zm.526,9.419a2.516,2.516,0,0,0-.555.195,11.89,11.89,0,0,1-3.285,1.05c-.285.045-.3.016-.435-.224a1.826,1.826,0,0,0-.36-.481,11.335,11.335,0,0,0,3.359-.87,2.21,2.21,0,0,0,.571-.375,4.544,4.544,0,0,1,.719.391c.106.075.136.1.136.179A.16.16,0,0,1,294.807,2678.943Zm-2.04-9.629c-.09.119-.121.119-.225.06a7.407,7.407,0,0,0-1.44-.675c-.121-.045-.121-.075-.045-.165l.225-.271c.074-.089.09-.089.195-.059a9.555,9.555,0,0,1,1.485.644c.1.061.09.091.015.2ZM295.9,2672h-3.464v.87H295.9Zm0,1.425h-3.464v.945H295.9Zm2.01,1.5h-3.18v.884h3.18Zm0,1.514h-3.18v.946h3.18Zm2.655-9.194c1.23,0,1.65-.03,1.725-.03.105,0,.12.015.12.12,0,.075-.03.21-.03.66v.854c0,.361.015.766.015,1.081a.9.9,0,0,1-.315.825c-.24.179-.585.24-1.484.24-.285,0-.285,0-.361-.271a1.3,1.3,0,0,0-.2-.464,7.061,7.061,0,0,0,.931.06c.5,0,.6-.12.6-.511v-1.844h-3.2c-1.23,0-1.619.03-1.694.03-.106,0-.12-.015-.12-.12v-.54c0-.1.014-.12.12-.12.075,0,.464.03,1.694.03Zm-.059,2.31c0,.27,0,.285-.285.39-.781.255-1.651.495-2.535.72a1.779,1.779,0,0,0-.481.165.314.314,0,0,1-.164.075c-.061,0-.1-.045-.15-.15a3.054,3.054,0,0,1-.225-.66,7.435,7.435,0,0,0,1.229-.18,16.264,16.264,0,0,0,2.656-.75A1.579,1.579,0,0,0,300.507,2669.554Zm-.226,2.445h-3.614v.87h3.614Zm0,1.425h-3.614v.945h3.614ZM299.1,2669.3c-.09.12-.12.12-.226.06a7.654,7.654,0,0,0-1.484-.675c-.12-.046-.12-.075-.045-.165l.224-.27c.076-.09.09-.09.2-.06a9.134,9.134,0,0,1,1.529.645c.105.06.091.09.016.2Zm-.721,9.014c.15-.075.165-.09.256-.045a10.243,10.243,0,0,0,3.824,1.186,1.943,1.943,0,0,0-.375.465c-.165.285-.165.285-.465.224a10.763,10.763,0,0,1-3.72-1.41c-.105-.059-.105-.12.045-.194Z" fill="#595858"/>
    <path id="パス_502" data-name="パス 502" d="M309.417,2668.519a3.607,3.607,0,0,0-.63-1.17,9.145,9.145,0,0,1,1.185-.135c.21,0,.315.09.315.225a1.816,1.816,0,0,0,.015.39,5.118,5.118,0,0,0,.27,1c.165.45.3.795.495,1.26a26.324,26.324,0,0,0,3.285-.96c.089-.03.165-.03.21.075a3.151,3.151,0,0,1,.195.66c.014.1,0,.165-.075.2-.93.315-2.025.615-3.24.9a14.256,14.256,0,0,0,2.49,3.66,2.512,2.512,0,0,0,.4.33c.075.045.1.09.1.135a.3.3,0,0,1-.045.165c-.1.179-.284.45-.389.6-.075.09-.135.151-.195.151s-.09-.031-.18-.09c-.195-.136-.361-.226-.54-.33a7.125,7.125,0,0,0-3.4-.811c-1.8,0-2.79.646-2.79,1.71,0,1.38,1.86,1.95,4.05,1.95a11.831,11.831,0,0,0,2.159-.179,4.982,4.982,0,0,1-.194.974c-.045.106-.075.12-.195.151-.27.029-1.065.075-1.725.075-2.745,0-5.055-.886-5.055-2.9,0-1.739,1.65-2.609,3.72-2.609a7.415,7.415,0,0,1,3.18.675,13.221,13.221,0,0,1-2.31-3.465c-1.155.194-2.19.3-3.225.375-.449.03-.9.06-1.275.045-.105,0-.134-.061-.179-.18a4.459,4.459,0,0,1-.165-.78,12.234,12.234,0,0,0,1.484,0,25.075,25.075,0,0,0,2.94-.345C309.852,2669.644,309.687,2669.223,309.417,2668.519Z" fill="#595858"/>
    <path id="パス_503" data-name="パス 503" d="M320.441,2674.669a3.058,3.058,0,0,1,2.115-1.095c1.485,0,1.965,1.08,2.115,2.595.12,1.274.36,2.01,1.2,2.01a2.4,2.4,0,0,0,1.92-1.036,7.237,7.237,0,0,0,1.26-2.474,1.921,1.921,0,0,0,.54.8c.12.09.135.21.075.389a6.8,6.8,0,0,1-1.186,2.04,3.236,3.236,0,0,1-2.625,1.321c-1.439,0-1.949-.885-2.144-2.715-.165-1.516-.51-2.1-1.3-2.1a2.882,2.882,0,0,0-2.07,1.29,16.868,16.868,0,0,0-1.845,3.316c-.059.149-.135.165-.269.1a2.911,2.911,0,0,1-.66-.389c-.09-.076-.09-.151-.031-.255,1.935-3.781,3.525-6.946,4.56-9.15a6.593,6.593,0,0,0,.585-1.725,5.477,5.477,0,0,1,1.08.57.26.26,0,0,1,.03.435,1.942,1.942,0,0,0-.45.615c-1.035,1.934-2.04,3.854-2.925,5.429Z" fill="#595858"/>
    <path id="パス_504" data-name="パス 504" d="M331.872,2676.858a.266.266,0,0,1,.165-.09c.045,0,.09.031.165.09a10.406,10.406,0,0,1,2.88,2.7.32.32,0,0,1,.075.18c0,.061-.015.106-.105.181l-.54.449c-.075.061-.12.091-.151.091-.059,0-.1-.016-.164-.12a10.906,10.906,0,0,0-2.76-2.805c-.075-.046-.105-.075-.105-.1s.015-.076.075-.151Z" fill="#595858"/>
    <path id="パス_505" data-name="パス 505" d="M339.282,2670.829c.09-.106.12-.106.225-.045a10.416,10.416,0,0,1,2.055,1.545c.089.075.075.1-.06.269l-.33.436c-.075.1-.12.1-.2.029a10.393,10.393,0,0,0-2-1.619c-.089-.06-.1-.091.016-.24Zm1.14,8.4a4.205,4.205,0,0,0-.285.66c-.015.09-.075.166-.15.166a.408.408,0,0,1-.21-.09c-.24-.165-.421-.285-.705-.51a5.665,5.665,0,0,0,.8-1.231,34.347,34.347,0,0,0,1.395-3.359,3.1,3.1,0,0,0,.45.435c.24.195.24.195.149.464C341.412,2676.994,340.9,2678.179,340.422,2679.228Zm-.42-12.1c.1-.12.135-.135.225-.075a11.867,11.867,0,0,1,1.964,1.635c.076.075.076.1-.029.255l-.3.405c-.119.165-.164.165-.239.075a11.411,11.411,0,0,0-1.95-1.725c-.105-.075-.075-.09.045-.24Zm11.039,9.194c0,.976.03,1.335.03,1.426s-.014.119-.12.119c-.09,0-.6-.029-1.755-.029h-3.359c-1.155,0-1.665.029-1.755.029-.105,0-.12-.015-.12-.119s.03-.54.03-1.53v-2.31q-.787.248-1.575.449c-.285.076-.285.076-.375-.12a1.14,1.14,0,0,0-.33-.434,27.939,27.939,0,0,0,4.965-1.59v-1.935h-.705c-1.276,0-1.71.03-1.8.03-.106,0-.12-.015-.12-.121v-.494c0-.1.014-.12.12-.12.09,0,.524.029,1.8.029H348.6c1.29,0,1.724-.029,1.8-.029.105,0,.121.015.121.12v.494c0,.106-.016.121-.121.121-.075,0-.509-.03-1.8-.03h-1.125v1.574c.42-.194.809-.4,1.17-.614a3.512,3.512,0,0,0,.809-.63,7.19,7.19,0,0,1,.705.405.23.23,0,0,1,.135.18c0,.09-.06.135-.165.15a1.29,1.29,0,0,0-.555.195,20.838,20.838,0,0,1-2.535,1.245h2.16c1.156,0,1.665-.03,1.755-.03.106,0,.12.014.12.12,0,.09-.03.42-.03,1.41Zm-4.965,2.5a2.612,2.612,0,0,0-.42.2,10.126,10.126,0,0,1-3.045,1.17c-.269.061-.269.061-.4-.179a2.026,2.026,0,0,0-.4-.51,10.916,10.916,0,0,0,3.045-.96,1.843,1.843,0,0,0,.554-.45,4.455,4.455,0,0,1,.7.42c.09.059.135.1.135.179C346.241,2678.733,346.182,2678.794,346.076,2678.823Zm5.731-9.794c0,.93.029,1.08.029,1.17s-.015.12-.119.12h-.63c-.106,0-.12-.015-.12-.12v-1.47H343.6v1.47c0,.1-.015.12-.121.12h-.629c-.1,0-.121-.015-.121-.12s.031-.21.031-1.155v-.36c0-.345-.031-.5-.031-.586s.016-.119.121-.119c.089,0,.615.03,2.115.03H346.6a5.834,5.834,0,0,0-.1-1.4c.359.015.63.045.96.075.119.015.18.075.18.135a.639.639,0,0,1-.09.27,2.7,2.7,0,0,0-.075.915h2.13c1.5,0,2.04-.03,2.115-.03.1,0,.119.015.119.119s-.029.241-.029.526Zm-6.465,2.37a1.871,1.871,0,0,0-.33.21,9.931,9.931,0,0,1-1.395,1.005c-.12.06-.18.1-.24.1s-.12-.06-.226-.18a1.414,1.414,0,0,0-.42-.3,8.39,8.39,0,0,0,1.726-1.125,1.528,1.528,0,0,0,.33-.405,4.052,4.052,0,0,1,.585.389c.074.061.119.106.119.165S345.446,2671.353,345.342,2671.4Zm4.9,2.01h-4.829l-.646.239v.571h5.475Zm0,1.425h-5.475v.84h5.475Zm0,1.455h-5.475v.885h5.475Zm-1.274,1.8c.09-.076.12-.076.21-.016a10.719,10.719,0,0,0,3.45,1.365,1.634,1.634,0,0,0-.4.51c-.121.226-.135.226-.406.165a11.673,11.673,0,0,1-3.3-1.5c-.089-.059-.075-.119.09-.239Z" fill="#595858"/>
    <path id="パス_506" data-name="パス 506" d="M366.3,2674.563c0,4.245.029,5,.029,5.085,0,.106-.014.12-.12.12h-.7c-.105,0-.119-.014-.119-.12v-.9h-9.51v.9c0,.106-.016.12-.12.12h-.705c-.106,0-.12-.014-.12-.12,0-.09.03-.84.03-5.085V2671.7c0-2.88-.03-3.66-.03-3.75s.014-.12.12-.12c.09,0,.6.03,2.115.03h6.93c1.5,0,2.024-.03,2.114-.03.106,0,.12.015.12.12s-.029.87-.029,3.375Zm-6.2-5.864h-4.23v4.109h4.23Zm0,4.92h-4.23v4.29h4.23Zm5.28-4.92H361v4.109h4.38Zm0,4.92H361v4.29h4.38Z" fill="#595858"/>
    <path id="パス_507" data-name="パス 507" d="M382.182,2669.808c0,.106-.016.121-.106.121s-.555-.03-1.965-.03h-5.88a14.029,14.029,0,0,1-.854,1.725h4.394c1.366,0,1.965-.03,2.055-.03.106,0,.12.015.12.12,0,.075-.03.66-.03,1.95v2.984c0,.87.03,1.651.03,1.95a1.331,1.331,0,0,1-.359,1.066c-.285.239-.705.329-1.95.329-.285,0-.285,0-.361-.3a2.143,2.143,0,0,0-.3-.644,13.776,13.776,0,0,0,1.379.059c.465,0,.675-.165.675-.614v-1.53h-5.609v1.245c0,1.3.03,1.71.03,1.784,0,.1-.015.12-.12.12h-.675c-.12,0-.136-.015-.136-.12,0-.074.031-.48.031-1.784v-5.325a13.553,13.553,0,0,1-2.656,2.684c-.1.075-.165.12-.209.12-.06,0-.12-.045-.21-.165a1.855,1.855,0,0,0-.525-.449,11.8,11.8,0,0,0,4.335-5.175h-2.115c-1.41,0-1.875.03-1.965.03-.105,0-.12-.015-.12-.121v-.644c0-.1.015-.12.12-.12.09,0,.555.03,1.965.03h2.445c.135-.39.27-.78.375-1.17a5.388,5.388,0,0,0,.225-1.26,8.207,8.207,0,0,1,.945.18c.135.045.21.09.21.18s-.075.15-.136.225a2.278,2.278,0,0,0-.255.57c-.134.435-.269.87-.419,1.275h5.549c1.41,0,1.875-.03,1.965-.03s.106.015.106.12Zm-3.151,2.6h-5.609v1.484h5.609Zm0,2.25h-5.609v1.545h5.609Z" fill="#595858"/>
    <path id="パス_508" data-name="パス 508" d="M388.526,2671.654c.136-.06.165-.075.226.029a17.123,17.123,0,0,1,1.109,2.58c.045.121,0,.135-.179.21l-.33.151c-.165.075-.21.075-.241-.061l-.269-.854c-.45.059-.915.1-1.4.149v4.021c0,1.634.031,2.114.031,2.189s-.015.106-.121.106h-.674c-.105,0-.12-.016-.12-.106s.03-.555.03-2.189v-3.946c-.555.045-1.111.09-1.635.121a1.234,1.234,0,0,0-.54.12.315.315,0,0,1-.18.075c-.075,0-.12-.09-.15-.21-.045-.21-.106-.526-.15-.825.315.03.675.045.93.045h.285c.374-.51.735-1.005,1.1-1.531a22.075,22.075,0,0,0-2.22-2.34c-.09-.074-.12-.089,0-.239l.285-.36c.1-.135.12-.135.209-.06l.616.585a18.39,18.39,0,0,0,.96-1.665,4.552,4.552,0,0,0,.405-1.05,7.026,7.026,0,0,1,.825.39c.135.075.165.135.165.2a.213.213,0,0,1-.12.165.975.975,0,0,0-.27.315c-.525.885-.93,1.515-1.425,2.22.36.36.69.735,1.035,1.14.4-.615.765-1.245,1.14-1.89a4.876,4.876,0,0,0,.464-1.036,6.376,6.376,0,0,1,.781.406c.12.075.15.134.15.21s-.045.12-.136.18a2.378,2.378,0,0,0-.524.69c-.825,1.32-1.68,2.55-2.505,3.63.8-.045,1.635-.09,2.505-.18-.15-.36-.33-.7-.51-1.05-.045-.091-.03-.1.165-.195Zm-2.849,3.855a1.06,1.06,0,0,0-.12.48,14.835,14.835,0,0,1-.661,2.88c-.044.135-.074.21-.134.21a.7.7,0,0,1-.241-.12,1.937,1.937,0,0,0-.509-.226,10.47,10.47,0,0,0,.735-2.909,3.542,3.542,0,0,0,.045-.795,7.5,7.5,0,0,1,.75.164c.149.046.21.075.21.136A.277.277,0,0,1,385.677,2675.509Zm3.135-.5c.134-.044.165-.03.195.076a19.706,19.706,0,0,1,.764,2.849c.016.106,0,.151-.179.21l-.345.12c-.226.076-.24.061-.255-.059a15.214,15.214,0,0,0-.69-2.9c-.031-.12-.031-.134.12-.179Zm2.639,2.791c0,.45,0,.705.151.855.2.18.66.239,2.115.239,1.274,0,1.965-.075,2.234-.344.3-.286.4-.84.465-1.965a2.036,2.036,0,0,0,.6.3c.285.09.285.09.269.39-.12,1.276-.359,1.681-.705,1.995-.359.33-1.215.5-2.954.5-1.846,0-2.46-.134-2.745-.375-.255-.24-.345-.5-.345-1.214v-4.17c0-1.095-.03-1.56-.03-1.635,0-.106.014-.12.135-.12.075,0,.57.03,1.679.03h3.151v-3.765h-3.42c-1.276,0-1.68.03-1.755.03-.12,0-.135-.015-.135-.12v-.66c0-.1.015-.12.135-.12.075,0,.479.03,1.755.03H394.5c1.275,0,1.71-.03,1.785-.03.106,0,.12.015.12.12,0,.075-.03.45-.03,1.56v2.925c0,1.11.03,1.485.03,1.559,0,.106-.014.12-.12.12h-.689c-.106,0-.12-.014-.12-.12v-.689h-4.021Z" fill="#595858"/>
    <path id="パス_509" data-name="パス 509" d="M403.662,2668.519a3.608,3.608,0,0,0-.63-1.17,9.144,9.144,0,0,1,1.185-.135c.21,0,.315.09.315.225a1.884,1.884,0,0,0,.015.39,5.118,5.118,0,0,0,.27,1c.165.45.3.795.5,1.26a26.325,26.325,0,0,0,3.285-.96c.09-.03.165-.03.21.075a3.152,3.152,0,0,1,.2.66c.015.1,0,.165-.075.2-.93.315-2.025.615-3.24.9a14.307,14.307,0,0,0,2.49,3.66,2.512,2.512,0,0,0,.4.33c.075.045.105.09.105.135a.3.3,0,0,1-.045.165c-.105.179-.285.45-.39.6-.075.09-.135.151-.2.151s-.09-.031-.18-.09c-.2-.136-.36-.226-.54-.33a7.123,7.123,0,0,0-3.4-.811c-1.8,0-2.79.646-2.79,1.71,0,1.38,1.859,1.95,4.049,1.95a11.85,11.85,0,0,0,2.16-.179,5.055,5.055,0,0,1-.195.974c-.045.106-.075.12-.2.151-.27.029-1.065.075-1.725.075-2.745,0-5.054-.886-5.054-2.9,0-1.739,1.649-2.609,3.719-2.609a7.415,7.415,0,0,1,3.18.675,13.222,13.222,0,0,1-2.31-3.465c-1.155.194-2.19.3-3.225.375-.449.03-.9.06-1.275.045-.105,0-.134-.061-.179-.18a4.462,4.462,0,0,1-.165-.78,12.234,12.234,0,0,0,1.484,0,25.114,25.114,0,0,0,2.941-.345C404.1,2669.644,403.933,2669.223,403.662,2668.519Z" fill="#595858"/>
    <path id="パス_510" data-name="パス 510" d="M414.687,2674.669a3.054,3.054,0,0,1,2.114-1.095c1.485,0,1.965,1.08,2.115,2.595.12,1.274.36,2.01,1.2,2.01a2.4,2.4,0,0,0,1.92-1.036,7.237,7.237,0,0,0,1.26-2.474,1.921,1.921,0,0,0,.54.8c.12.09.135.21.075.389a6.817,6.817,0,0,1-1.185,2.04,3.239,3.239,0,0,1-2.625,1.321c-1.44,0-1.95-.885-2.145-2.715-.165-1.516-.51-2.1-1.3-2.1a2.882,2.882,0,0,0-2.07,1.29,16.87,16.87,0,0,0-1.845,3.316c-.059.149-.134.165-.269.1a2.911,2.911,0,0,1-.66-.389c-.09-.076-.09-.151-.031-.255,1.935-3.781,3.525-6.946,4.56-9.15a6.592,6.592,0,0,0,.585-1.725,5.477,5.477,0,0,1,1.08.57.26.26,0,0,1,.03.435,1.942,1.942,0,0,0-.45.615c-1.035,1.934-2.04,3.854-2.925,5.429Z" fill="#595858"/>
    <path id="パス_511" data-name="パス 511" d="M426.117,2676.858a.266.266,0,0,1,.165-.09c.045,0,.09.031.165.09a10.406,10.406,0,0,1,2.88,2.7.32.32,0,0,1,.075.18c0,.061-.015.106-.105.181l-.54.449c-.075.061-.12.091-.151.091-.059,0-.1-.016-.164-.12a10.906,10.906,0,0,0-2.76-2.805c-.075-.046-.105-.075-.105-.1s.015-.076.075-.151Z" fill="#595858"/>
    <path id="パス_512" data-name="パス 512" d="M446.337,2672.359c0,.105-.016.119-.12.119-.075,0-.556-.029-1.981-.029h-8.7c-1.425,0-1.9.029-1.98.029-.105,0-.12-.014-.12-.119v-.57c0-.106.015-.12.12-.12.075,0,.555.03,1.98.03H439.3v-1.08h-1.83c-1.485,0-1.995.03-2.085.03s-.12-.015-.12-.12v-.54c0-.1.015-.12.12-.12s.6.03,2.085.03h1.83v-1.02h-2.67c-1.515,0-2.025.03-2.1.03-.105,0-.12-.015-.12-.12v-.57c0-.1.015-.121.12-.121.075,0,.585.031,2.1.031h2.67a6.3,6.3,0,0,0-.105-1.5,9.517,9.517,0,0,1,.99.075c.1.015.18.075.18.12a.781.781,0,0,1-.091.285,3.3,3.3,0,0,0-.074,1.02h2.864c1.516,0,2.026-.031,2.116-.031s.12.016.12.121v.57c0,.1-.016.12-.12.12s-.6-.03-2.116-.03H440.2v1.02h2.13c1.484,0,1.994-.03,2.069-.03.106,0,.12.015.12.12v.54c0,.1-.014.12-.12.12-.075,0-.585-.03-2.069-.03H440.2v1.08h4.034c1.425,0,1.906-.03,1.981-.03.1,0,.12.014.12.12Zm-2.445,4.65c0,.719.03,1.455.03,1.724a1.372,1.372,0,0,1-.346,1.035c-.239.21-.63.3-1.889.3-.3,0-.315.016-.39-.285a2.262,2.262,0,0,0-.3-.645c.51.045.944.06,1.409.06.42,0,.585-.165.585-.6v-.945h-6.224v.766c0,1.125.03,1.59.03,1.665,0,.09-.015.1-.12.1h-.705c-.1,0-.12-.014-.12-.1s.03-.495.03-1.636v-3.3c0-1.139-.03-1.574-.03-1.664s.015-.12.12-.12c.075,0,.585.029,2.025.029h3.765c1.455,0,1.95-.029,2.024-.029.12,0,.136.015.136.12,0,.074-.03.6-.03,1.755Zm-.9-2.85h-6.224v1.005h6.224Zm0,1.739h-6.224v1.021h6.224Z" fill="#595858"/>
    <path id="パス_513" data-name="パス 513" d="M452.127,2677.759c.975-.165,1.979-.375,2.984-.63a2.241,2.241,0,0,0-.09.524c-.029.3-.029.3-.33.375-1.545.391-3.464.766-5.249,1.051a1.775,1.775,0,0,0-.6.149.351.351,0,0,1-.21.09c-.075,0-.12-.059-.165-.18a7.916,7.916,0,0,1-.225-.854c.45-.016.855-.061,1.425-.136.51-.059,1.064-.149,1.635-.239v-2.04h-.81c-1.29,0-1.725.029-1.8.029-.1,0-.12-.014-.12-.12v-.6c0-.1.015-.121.12-.121.075,0,.51.031,1.8.031h.81v-1.68H450.6c-1.245,0-1.665.029-1.74.029-.1,0-.12-.014-.12-.119,0-.075.03-.45.03-1.545v-2.64c0-1.065-.03-1.47-.03-1.545,0-.105.015-.12.12-.12.075,0,.495.03,1.74.03h2.25c1.245,0,1.665-.03,1.74-.03.12,0,.135.015.135.12,0,.075-.031.48-.031,1.545v2.64c0,1.095.031,1.47.031,1.545,0,.1-.015.119-.135.119-.075,0-.495-.029-1.74-.029h-.72v1.68h.945c1.289,0,1.71-.031,1.8-.031s.12.016.12.121v.6c0,.106-.015.12-.12.12s-.511-.029-1.8-.029h-.945Zm-.825-9.51h-1.725v1.8H451.3Zm0,2.519h-1.725v1.92H451.3Zm2.594-2.519h-1.769v1.8H453.9Zm0,2.519h-1.769v1.92H453.9Zm6.72,1.411a.686.686,0,0,0,.24-.03.4.4,0,0,1,.165-.046c.09,0,.166.046.39.271.195.21.271.314.271.405,0,.06-.031.1-.106.165a1.706,1.706,0,0,0-.224.36,10.747,10.747,0,0,1-1.441,2c-.09.1-.135.165-.194.165s-.106-.045-.21-.135a1.862,1.862,0,0,0-.54-.285,7.37,7.37,0,0,0,1.59-2.071h-2.01v3.84c0,.691.015,1.335.015,1.785,0,.6-.105.9-.406,1.125-.33.225-.675.27-1.92.27-.3,0-.3,0-.375-.3a2.1,2.1,0,0,0-.284-.644,9.729,9.729,0,0,0,1.38.075c.54,0,.72-.106.72-.705v-5.446h-.585c-1.335,0-1.755.031-1.83.031-.1,0-.12-.015-.12-.12v-.6c0-.12.015-.135.12-.135.075,0,.495.03,1.83.03h1.394a14.537,14.537,0,0,0-2.415-2.325c-.1-.075-.09-.12.061-.225l.33-.255c.12-.09.149-.1.24-.045.435.345.855.689,1.26,1.064a12.409,12.409,0,0,0,1.845-2.054h-2.566c-1.215,0-1.59.03-1.664.03-.105,0-.12-.015-.12-.12v-.6c0-.1.015-.12.12-.12.074,0,.449.03,1.664.03h2.731a.621.621,0,0,0,.314-.06.451.451,0,0,1,.181-.045c.075,0,.165.059.389.285.255.255.3.359.3.465a.25.25,0,0,1-.135.195,2.411,2.411,0,0,0-.509.5,14.1,14.1,0,0,1-1.981,2.07c.226.24.466.48.691.735.075.075.059.12-.061.225l-.329.255Z" fill="#595858"/>
    <path id="パス_514" data-name="パス 514" d="M470.637,2673.589a13.967,13.967,0,0,0,6.134,4.755,2.306,2.306,0,0,0-.464.585c-.076.15-.106.209-.18.209a.661.661,0,0,1-.226-.089,13.652,13.652,0,0,1-5.729-4.92c0,2.655.075,5,.075,5.939,0,.106-.016.12-.12.12h-.766c-.1,0-.119-.014-.119-.12,0-.87.074-3.224.09-5.925a14.413,14.413,0,0,1-5.415,4.92.543.543,0,0,1-.225.09c-.075,0-.12-.059-.195-.21a1.679,1.679,0,0,0-.435-.555,13.682,13.682,0,0,0,5.73-4.8h-3.1c-1.425,0-1.92.03-2,.03-.1,0-.12-.016-.12-.12v-.646c0-.1.015-.119.12-.119.075,0,.57.029,2,.029h3.6v-2.654h-2.266c-1.529,0-2.054.029-2.129.029-.105,0-.12-.014-.12-.12v-.659c0-.1.015-.12.12-.12.075,0,.6.03,2.129.03h2.266v-.84a7.924,7.924,0,0,0-.1-1.755,8.941,8.941,0,0,1,1.005.09c.12.015.195.075.195.12a1.093,1.093,0,0,1-.09.33,4.853,4.853,0,0,0-.09,1.2v.855h2.579c1.531,0,2.056-.03,2.13-.03.106,0,.12.015.12.12v.659c0,.106-.014.12-.12.12-.074,0-.6-.029-2.13-.029H470.2v2.654h3.869c1.441,0,1.92-.029,2.01-.029.106,0,.12.015.12.119v.646c0,.1-.014.12-.12.12-.09,0-.569-.03-2.01-.03Z" fill="#595858"/>
    <path id="パス_515" data-name="パス 515" d="M485.712,2674.324a12.568,12.568,0,0,0,6.015,4.289,2,2,0,0,0-.465.585c-.09.165-.12.226-.2.226a.751.751,0,0,1-.224-.076,12.25,12.25,0,0,1-5.685-4.6c.015,2.654.074,4.739.074,5.369,0,.106-.014.106-.12.106h-.734c-.106,0-.12,0-.12-.106,0-.705.059-2.7.075-5.324a12.82,12.82,0,0,1-5.3,4.545.615.615,0,0,1-.24.09c-.075,0-.105-.061-.2-.21a1.777,1.777,0,0,0-.435-.54,12.7,12.7,0,0,0,5.564-4.35h-3.119c-1.425,0-1.92.029-1.995.029-.105,0-.12-.014-.12-.134v-.616c0-.1.015-.119.12-.119.075,0,.57.029,1.995.029h3.69v-3.734h-2.821c-1.514,0-2.009.029-2.084.029-.105,0-.12-.014-.12-.119v-.645c0-.1.015-.12.12-.12.075,0,.57.03,2.084.03H484.3v-.54a7.558,7.558,0,0,0-.105-1.725,6.659,6.659,0,0,1,.99.075c.12.015.18.075.18.12a1.262,1.262,0,0,1-.091.345,5.114,5.114,0,0,0-.074,1.185v.54h3.09c1.515,0,1.994-.03,2.085-.03s.119.015.119.12v.645c0,.1-.015.119-.119.119s-.57-.029-2.085-.029H485.2v3.734h1.26a19.569,19.569,0,0,0,1.2-2.234,3.309,3.309,0,0,0,.27-.855,5.768,5.768,0,0,1,.9.285c.135.059.165.09.165.179a.251.251,0,0,1-.136.2c-.075.045-.21.179-.434.63a17.482,17.482,0,0,1-1.05,1.8h1.739c1.441,0,1.92-.029,1.995-.029.106,0,.12.015.12.119v.616c0,.12-.014.134-.12.134-.075,0-.554-.029-1.995-.029Zm-4.425-3.855c.12-.045.15-.06.21.03a11.33,11.33,0,0,1,1.1,2.085c.03.09.014.12-.12.179l-.495.21c-.18.076-.21.076-.255-.044a11.191,11.191,0,0,0-1.02-2.085c-.075-.1-.03-.135.12-.2Z" fill="#595858"/>
    <path id="パス_516" data-name="パス 516" d="M497.907,2668.519a3.609,3.609,0,0,0-.63-1.17,9.144,9.144,0,0,1,1.185-.135c.21,0,.315.09.315.225a1.884,1.884,0,0,0,.015.39,5.117,5.117,0,0,0,.27,1c.166.45.3.795.5,1.26a26.357,26.357,0,0,0,3.284-.96c.09-.03.165-.03.21.075a3.151,3.151,0,0,1,.2.66c.015.1,0,.165-.075.2-.93.315-2.025.615-3.239.9a14.275,14.275,0,0,0,2.489,3.66,2.512,2.512,0,0,0,.4.33c.075.045.105.09.105.135a.3.3,0,0,1-.045.165c-.1.179-.284.45-.39.6-.075.09-.135.151-.2.151s-.09-.031-.18-.09c-.2-.136-.36-.226-.54-.33a7.12,7.12,0,0,0-3.4-.811c-1.8,0-2.79.646-2.79,1.71,0,1.38,1.859,1.95,4.049,1.95a11.85,11.85,0,0,0,2.16-.179,4.98,4.98,0,0,1-.195.974c-.045.106-.075.12-.2.151-.27.029-1.064.075-1.725.075-2.745,0-5.054-.886-5.054-2.9,0-1.739,1.649-2.609,3.719-2.609a7.411,7.411,0,0,1,3.18.675,13.194,13.194,0,0,1-2.309-3.465c-1.156.194-2.191.3-3.226.375-.449.03-.9.06-1.274.045-.106,0-.135-.061-.18-.18a4.459,4.459,0,0,1-.165-.78,12.234,12.234,0,0,0,1.484,0,25.114,25.114,0,0,0,2.941-.345C498.342,2669.644,498.178,2669.223,497.907,2668.519Z" fill="#595858"/>
    <path id="パス_517" data-name="パス 517" d="M508.932,2674.669a3.054,3.054,0,0,1,2.114-1.095c1.485,0,1.965,1.08,2.115,2.595.12,1.274.36,2.01,1.2,2.01a2.4,2.4,0,0,0,1.92-1.036,7.238,7.238,0,0,0,1.26-2.474,1.921,1.921,0,0,0,.54.8c.12.09.135.21.075.389a6.816,6.816,0,0,1-1.185,2.04,3.239,3.239,0,0,1-2.625,1.321c-1.44,0-1.95-.885-2.145-2.715-.165-1.516-.51-2.1-1.3-2.1a2.882,2.882,0,0,0-2.07,1.29,16.87,16.87,0,0,0-1.845,3.316c-.059.149-.134.165-.269.1a2.911,2.911,0,0,1-.66-.389c-.09-.076-.09-.151-.031-.255,1.935-3.781,3.525-6.946,4.56-9.15a6.592,6.592,0,0,0,.585-1.725,5.475,5.475,0,0,1,1.08.57.26.26,0,0,1,.03.435,1.958,1.958,0,0,0-.45.615c-1.035,1.934-2.04,3.854-2.925,5.429Z" fill="#595858"/>
    <path id="パス_518" data-name="パス 518" d="M520.362,2676.858a.266.266,0,0,1,.165-.09c.045,0,.09.031.165.09a10.406,10.406,0,0,1,2.88,2.7.32.32,0,0,1,.075.18c0,.061-.015.106-.1.181l-.54.449c-.075.061-.12.091-.15.091-.06,0-.1-.016-.165-.12a10.907,10.907,0,0,0-2.76-2.805c-.074-.046-.1-.075-.1-.1s.015-.076.075-.151Z" fill="#595858"/>
    <path id="パス_519" data-name="パス 519" d="M530.817,2670.8a11.836,11.836,0,0,0,2.01,3.389,2.831,2.831,0,0,0-.405.556c-.06.12-.09.194-.135.194-.03,0-.075-.059-.15-.179a11.035,11.035,0,0,1-1.44-3.045c.015,4.545.135,8.16.135,8.37,0,.1-.015.12-.12.12h-.7c-.105,0-.12-.016-.12-.12,0-.21.1-3.811.135-8.175a16.978,16.978,0,0,1-2.055,4.845c-.06.1-.1.165-.15.165s-.075-.061-.134-.18a1.719,1.719,0,0,0-.375-.54,16.633,16.633,0,0,0,2.489-5.4h-.66c-1.034,0-1.335.03-1.409.03-.106,0-.121-.015-.121-.12v-.585c0-.12.015-.135.121-.135.074,0,.375.029,1.409.029h.795v-1.529a8.881,8.881,0,0,0-.1-1.77,9.272,9.272,0,0,1,.945.075c.105.015.165.075.165.135a.675.675,0,0,1-.075.285,4.487,4.487,0,0,0-.075,1.259v1.545h.24c1.05,0,1.335-.029,1.425-.029s.12.015.12.135v.585c0,.1-.015.12-.12.12s-.375-.03-1.425-.03Zm7.124,4.32c.165-.09.181-.106.255,0a21.282,21.282,0,0,1,2.25,4.154c.045.12.045.151-.134.255l-.42.226c-.21.12-.21.134-.255.014-.18-.5-.39-.99-.616-1.469-1.995.464-4.125.825-5.5.99a1.764,1.764,0,0,0-.645.165.3.3,0,0,1-.21.09.2.2,0,0,1-.165-.165c-.09-.33-.15-.6-.226-.946a13.3,13.3,0,0,0,1.636-.1h.105a34.16,34.16,0,0,0,1.335-4.83,9.072,9.072,0,0,0,.24-1.651,6.124,6.124,0,0,1,.93.241c.1.045.195.075.195.179a.4.4,0,0,1-.09.226,2.081,2.081,0,0,0-.27.72,49.069,49.069,0,0,1-1.38,4.979c1.08-.149,2.4-.359,3.69-.644a17.954,17.954,0,0,0-1.216-2.026c-.059-.09-.045-.119.136-.224Zm-2.264-7.08a.786.786,0,0,0-.2.405,15.936,15.936,0,0,1-2.159,4.619c-.091.136-.135.2-.18.2s-.09-.045-.2-.15a1.79,1.79,0,0,0-.555-.4,11.793,11.793,0,0,0,2.235-4.515,3.27,3.27,0,0,0,.1-.825,4.831,4.831,0,0,1,.841.3c.135.06.21.12.21.18A.314.314,0,0,1,535.677,2668.039Zm2.115-.6c.165-.06.194-.06.239.06a11.572,11.572,0,0,0,2.986,5.04,2.25,2.25,0,0,0-.555.524c-.09.12-.136.181-.195.181s-.09-.061-.18-.165a15.656,15.656,0,0,1-2.851-5.28c-.045-.12-.014-.135.181-.21Z" fill="#595858"/>
    <path id="パス_520" data-name="パス 520" d="M549.867,2670.768a15.46,15.46,0,0,0,6.2,6.061,2.445,2.445,0,0,0-.435.569c-.091.151-.12.226-.181.226s-.12-.045-.224-.106a15.99,15.99,0,0,1-5.835-6.3c0,1.86.015,3.69.03,5.19h1.08c1.35,0,1.785-.03,1.875-.03s.12.014.12.12v.644c0,.106-.015.12-.12.12s-.525-.03-1.875-.03h-1.065c.03,1.561.06,2.655.06,2.835,0,.106-.015.12-.12.12h-.795c-.105,0-.12-.014-.12-.12,0-.18.03-1.26.045-2.835h-.915c-1.35,0-1.785.03-1.86.03-.1,0-.12-.014-.12-.12v-.644c0-.106.015-.12.12-.12.075,0,.51.03,1.86.03h.93c.03-1.455.045-3.226.045-5.04a16.289,16.289,0,0,1-5.475,6.21c-.12.074-.18.119-.24.119-.075,0-.119-.074-.18-.21a1.565,1.565,0,0,0-.45-.539,15.539,15.539,0,0,0,5.85-6.181h-3.18c-1.425,0-1.92.031-1.994.031-.106,0-.121-.015-.121-.12V2670c0-.1.015-.12.121-.12.074,0,.569.03,1.994.03H548.5v-1.335a8.383,8.383,0,0,0-.106-1.815,10.3,10.3,0,0,1,1.036.09c.1.015.18.06.18.12a1.311,1.311,0,0,1-.091.33,5.574,5.574,0,0,0-.074,1.26v1.35h3.914c1.441,0,1.936-.03,2.011-.03.1,0,.119.015.119.12v.675c0,.1-.014.12-.119.12-.075,0-.57-.031-2.011-.031Z" fill="#595858"/>
    <path id="パス_521" data-name="パス 521" d="M570.776,2679.214c0,.1-.014.12-.12.12-.074,0-.54-.03-1.92-.03h-9.209c-1.38,0-1.844.03-1.92.03-.1,0-.12-.016-.12-.12v-.675c0-.106.015-.12.12-.12.076,0,.54.029,1.92.029h2.46v-2.789h-1.095c-1.515,0-2.039.029-2.13.029s-.119-.014-.119-.12c0-.074.029-.4.029-1.349v-1.86c0-.945-.029-1.261-.029-1.35,0-.1.014-.121.119-.121s.615.031,2.13.031h1.095v-2.325h-2.235c-1.425,0-1.89.03-1.98.03s-.12-.015-.12-.12v-.66c0-.1.015-.12.12-.12s.555.03,1.98.03H568.5c1.425,0,1.89-.03,1.98-.03.1,0,.12.015.12.12v.66c0,.1-.015.12-.12.12-.09,0-.555-.03-1.98-.03h-2.386v2.325h1.156c1.53,0,2.054-.031,2.145-.031s.119.016.119.121c0,.075-.029.405-.029,1.35v1.86c0,.945.029,1.275.029,1.349,0,.106-.014.12-.119.12s-.615-.029-2.145-.029h-1.156v2.789h2.625c1.38,0,1.846-.029,1.92-.029.106,0,.12.014.12.12Zm-8.789-7.5h-2.445v3.134h2.445Zm3.255-3.12h-2.386v2.325h2.386Zm0,3.12h-2.386v3.134h2.386Zm0,3.945h-2.386v2.789h2.386Zm3.39-3.945h-2.521v3.134h2.521Z" fill="#595858"/>
    <path id="パス_522" data-name="パス 522" d="M585.687,2672.494c0,.1-.015.12-.105.12s-.556-.03-1.95-.03H577.9a13.1,13.1,0,0,1-1.56,2.04h2.82a8.028,8.028,0,0,0-.1-1.5,8.357,8.357,0,0,1,.99.09c.09.014.165.059.165.134a.6.6,0,0,1-.061.241,2.761,2.761,0,0,0-.1,1.035h1.814c1.455,0,2.116-.03,2.191-.03.1,0,.12.014.12.12,0,.075-.03.465-.03,1.349v.811c0,.359.03.72.03,1.08a1.034,1.034,0,0,1-.33.885c-.271.224-.526.33-1.74.3-.286-.014-.286-.044-.36-.344a1.655,1.655,0,0,0-.256-.556c.511.046.841.061,1.261.061.375,0,.51-.151.51-.555v-2.34h-3.21v2.88c0,1.215.03,1.725.03,1.814,0,.106-.015.106-.12.106h-.7c-.106,0-.12,0-.12-.106,0-.089.03-.6.03-1.814v-2.88h-2.8v2.459c0,.915.03,1.155.03,1.245,0,.106-.015.12-.12.12h-.69c-.105,0-.12-.014-.12-.12,0-.09.03-.33.03-1.245v-2.4a16.44,16.44,0,0,1-2.34,1.665c-.12.059-.18.1-.24.1s-.1-.059-.179-.194a1.581,1.581,0,0,0-.451-.481,11.975,11.975,0,0,0,4.62-3.974h-2.31c-1.41,0-1.875.03-1.95.03-.119,0-.135-.016-.135-.12v-.63c0-.1.016-.12.135-.12.075,0,.54.03,1.95.03h2.82c.165-.285.315-.57.465-.886a2.407,2.407,0,0,0,.21-.7c.36.061.645.121.87.181.12.029.21.075.21.149a.188.188,0,0,1-.09.166,1.236,1.236,0,0,0-.315.375c-.135.254-.255.5-.39.72h5.265c1.394,0,1.859-.03,1.95-.03s.105.015.105.12Zm-2.97-1.665c-.12.15-.151.15-.271.075a32.161,32.161,0,0,0-2.984-1.575,24.154,24.154,0,0,1-4.935,1.6c-.285.061-.3.061-.435-.194a1.758,1.758,0,0,0-.39-.525,22.415,22.415,0,0,0,4.74-1.32c-.945-.39-1.95-.735-3.105-1.11-.12-.03-.12-.09.015-.225l.285-.3c.1-.1.135-.12.24-.09,1.335.42,2.46.825,3.525,1.275a18.837,18.837,0,0,0,2.084-1.275,2.722,2.722,0,0,0,.585-.54,6.947,6.947,0,0,1,.825.405c.121.075.135.1.135.18s-.09.135-.194.165a2,2,0,0,0-.45.225,18.487,18.487,0,0,1-2.01,1.26c.854.39,1.71.825,2.64,1.319.1.061.12.106.014.241Z" fill="#595858"/>
    <path id="パス_523" data-name="パス 523" d="M592.152,2668.519a3.607,3.607,0,0,0-.63-1.17,9.146,9.146,0,0,1,1.185-.135c.21,0,.315.09.315.225a1.885,1.885,0,0,0,.015.39,5.142,5.142,0,0,0,.271,1c.165.45.3.795.495,1.26a26.3,26.3,0,0,0,3.284-.96c.09-.03.165-.03.21.075a3.149,3.149,0,0,1,.2.66c.015.1,0,.165-.075.2-.93.315-2.024.615-3.239.9a14.3,14.3,0,0,0,2.489,3.66,2.514,2.514,0,0,0,.405.33c.075.045.1.09.1.135a.3.3,0,0,1-.045.165c-.105.179-.284.45-.39.6-.075.09-.135.151-.2.151s-.09-.031-.18-.09c-.2-.136-.36-.226-.54-.33a7.121,7.121,0,0,0-3.4-.811c-1.8,0-2.79.646-2.79,1.71,0,1.38,1.859,1.95,4.05,1.95a11.838,11.838,0,0,0,2.159-.179,4.973,4.973,0,0,1-.2.974c-.044.106-.075.12-.195.151-.269.029-1.064.075-1.724.075-2.746,0-5.055-.886-5.055-2.9,0-1.739,1.649-2.609,3.72-2.609a7.41,7.41,0,0,1,3.179.675,13.217,13.217,0,0,1-2.309-3.465c-1.156.194-2.191.3-3.226.375-.449.03-.9.06-1.274.045-.106,0-.135-.061-.18-.18a4.457,4.457,0,0,1-.165-.78,12.233,12.233,0,0,0,1.484,0,25.115,25.115,0,0,0,2.941-.345C592.587,2669.644,592.423,2669.223,592.152,2668.519Z" fill="#595858"/>
    <path id="パス_524" data-name="パス 524" d="M603.178,2674.669a3.054,3.054,0,0,1,2.114-1.095c1.485,0,1.965,1.08,2.115,2.595.12,1.274.361,2.01,1.2,2.01a2.4,2.4,0,0,0,1.92-1.036,7.237,7.237,0,0,0,1.26-2.474,1.922,1.922,0,0,0,.54.8c.12.09.135.21.075.389a6.794,6.794,0,0,1-1.185,2.04,3.239,3.239,0,0,1-2.625,1.321c-1.44,0-1.949-.885-2.145-2.715-.165-1.516-.51-2.1-1.3-2.1a2.882,2.882,0,0,0-2.071,1.29,16.824,16.824,0,0,0-1.844,3.316c-.06.149-.135.165-.27.1a2.934,2.934,0,0,1-.66-.389c-.09-.076-.09-.151-.03-.255,1.934-3.781,3.524-6.946,4.559-9.15a6.594,6.594,0,0,0,.585-1.725,5.475,5.475,0,0,1,1.08.57.26.26,0,0,1,.03.435,1.958,1.958,0,0,0-.45.615c-1.035,1.934-2.04,3.854-2.925,5.429Z" fill="#595858"/>
    <path id="パス_525" data-name="パス 525" d="M614.607,2676.858a.268.268,0,0,1,.165-.09c.045,0,.09.031.165.09a10.406,10.406,0,0,1,2.88,2.7.324.324,0,0,1,.076.18c0,.061-.016.106-.106.181l-.54.449c-.075.061-.12.091-.15.091-.06,0-.1-.016-.164-.12a10.925,10.925,0,0,0-2.761-2.805c-.074-.046-.1-.075-.1-.1s.015-.076.076-.151Z" fill="#595858"/>
    <path id="パス_526" data-name="パス 526" d="M629.052,2671.294a15.791,15.791,0,0,0,6.285,6.269,2.247,2.247,0,0,0-.481.6c-.074.149-.12.224-.194.224a.435.435,0,0,1-.21-.1,16.2,16.2,0,0,1-5.82-6.436c0,3.991.1,7.861.1,8.236,0,.1-.015.12-.12.12h-.78c-.12,0-.135-.016-.135-.12,0-.375.09-4.141.1-8.1a16.053,16.053,0,0,1-5.445,6.374.434.434,0,0,1-.21.106c-.075,0-.1-.061-.2-.2a1.87,1.87,0,0,0-.51-.57,15.117,15.117,0,0,0,5.91-6.4h-3.21c-1.44,0-1.919.03-1.995.03-.12,0-.134-.016-.134-.135v-.645c0-.12.014-.135.134-.135.076,0,.555.03,1.995.03h3.6v-1.845a8.566,8.566,0,0,0-.1-1.815,9.862,9.862,0,0,1,1.035.09c.1.015.18.06.18.12a1.357,1.357,0,0,1-.09.33,5.572,5.572,0,0,0-.075,1.26v1.86h3.93c1.44,0,1.92-.03,2.01-.03s.12.015.12.135v.645c0,.119-.016.135-.12.135s-.57-.03-2.01-.03Z" fill="#595858"/>
    <path id="パス_527" data-name="パス 527" d="M640.437,2670.739a13.815,13.815,0,0,0,2.085,3.4,2.747,2.747,0,0,0-.375.691c-.044.12-.075.2-.12.2s-.09-.06-.15-.165a17.993,17.993,0,0,1-1.635-3.315c.015,4.634.135,8.28.135,8.519,0,.106-.015.12-.135.12h-.72c-.12,0-.135-.014-.135-.12,0-.239.12-3.915.15-8.385a17.208,17.208,0,0,1-2.4,5.175c-.061.091-.12.151-.165.151s-.091-.06-.136-.165a2.171,2.171,0,0,0-.39-.6,16.928,16.928,0,0,0,2.835-5.5h-.57c-1.215,0-1.59.029-1.68.029s-.12-.014-.12-.119v-.615c0-.1.016-.12.12-.12s.465.03,1.68.03h.735v-1.425a9.58,9.58,0,0,0-.105-1.83,8.717,8.717,0,0,1,.96.09c.12.015.2.06.2.12a.7.7,0,0,1-.09.3,3.858,3.858,0,0,0-.09,1.29v1.455h.21c1.2,0,1.59-.03,1.665-.03.1,0,.12.015.12.12v.615c0,.1-.015.119-.12.119-.075,0-.464-.029-1.665-.029Zm9.629.06c0,.089-.014.1-.1.1s-.51-.016-1.816-.016v5.311c0,.824.031,1.68.031,2.4a1.178,1.178,0,0,1-.406,1.05c-.269.226-.839.285-2.144.285-.271,0-.285,0-.36-.3a1.786,1.786,0,0,0-.315-.705,15.65,15.65,0,0,0,1.65.089c.45,0,.645-.149.645-.6v-7.531h-2.4c-1.335,0-1.74.016-1.83.016-.105,0-.12-.016-.12-.1v-.661c0-.089.015-.1.12-.1.09,0,.495.03,1.83.03h2.4v-1.575a9.48,9.48,0,0,0-.1-1.815,7.009,7.009,0,0,1,1,.075c.106.015.181.075.181.12a.686.686,0,0,1-.091.3,3.824,3.824,0,0,0-.09,1.29v1.6c1.306,0,1.726-.03,1.816-.03s.1.015.1.1Zm-6.254,1.8c.15-.089.165-.089.24-.014a13.679,13.679,0,0,1,1.7,2.79c.045.1.03.12-.135.24l-.39.239c-.2.12-.21.12-.27,0a12.9,12.9,0,0,0-1.635-2.849c-.06-.075-.03-.12.135-.21Z" fill="#595858"/>
    <path id="パス_528" data-name="パス 528" d="M664.917,2673.214c0,.1-.016.12-.12.12s-.555-.03-1.981-.03h-1.2a9.609,9.609,0,0,1-1.935,3.615c1.47.644,2.865,1.38,4.259,2.16.091.059.121.1,0,.269l-.344.51c-.045.075-.09.12-.135.12a.376.376,0,0,1-.165-.075,32.239,32.239,0,0,0-4.29-2.309,11.642,11.642,0,0,1-6.135,2.339c-.285.031-.3.015-.42-.24a1.907,1.907,0,0,0-.39-.585,12.123,12.123,0,0,0,6-1.9,24.206,24.206,0,0,0-2.955-1.005c-.135.194-.285.42-.42.585a.238.238,0,0,1-.3.09l-.45-.165c-.24-.09-.24-.135-.15-.24.24-.286.51-.661.735-.975a24.076,24.076,0,0,0,1.305-2.19h-1.71c-1.425,0-1.905.03-1.979.03-.106,0-.12-.015-.12-.12v-.63c0-.106.014-.12.12-.12.074,0,.554.03,1.979.03h2.13c.225-.45.435-.9.63-1.365a4.588,4.588,0,0,0,.375-1.185,8.944,8.944,0,0,1,.99.285c.09.03.15.09.15.15a.311.311,0,0,1-.165.24,1.527,1.527,0,0,0-.36.57c-.2.449-.405.885-.615,1.3h5.564c1.426,0,1.891-.03,1.981-.03s.12.014.12.12Zm-.585-3.375c0,1.32.029,1.5.029,1.59,0,.1-.014.12-.119.12h-.69c-.1,0-.12-.015-.12-.12v-2.145H653.277v2.145c0,.1-.014.12-.12.12h-.69c-.1,0-.119-.015-.119-.12,0-.09.029-.27.029-1.59v-.48c0-.495-.029-.721-.029-.795,0-.1.014-.12.119-.12s.615.029,2.1.029h3.225v-.224a6.248,6.248,0,0,0-.12-1.53c.375.015.705.045,1.005.075.12.015.18.06.18.12a.7.7,0,0,1-.09.285,3.805,3.805,0,0,0-.075,1.05v.224h3.465c1.485,0,1.994-.029,2.085-.029s.119.015.119.12c0,.074-.029.3-.029.705Zm-7.485,3.465c-.39.735-.81,1.469-1.275,2.205a26.155,26.155,0,0,1,3.225,1.049,8.287,8.287,0,0,0,1.86-3.254Z" fill="#595858"/>
    <path id="パス_529" data-name="パス 529" d="M674.352,2676a13.285,13.285,0,0,0,5.865,2.79,2.6,2.6,0,0,0-.42.569c-.075.165-.12.24-.2.24a.968.968,0,0,1-.241-.075,13.367,13.367,0,0,1-5.624-3.269c0,2.129.075,3.585.075,3.87,0,.1-.015.12-.12.12h-.735c-.1,0-.12-.016-.12-.12,0-.285.075-1.71.09-3.856a12.2,12.2,0,0,1-5.43,3.271.938.938,0,0,1-.24.074c-.074,0-.105-.06-.2-.225a2.282,2.282,0,0,0-.435-.54,12.778,12.778,0,0,0,5.64-2.849h-3.09c-1.425,0-1.905.03-1.994.03-.106,0-.121-.016-.121-.12v-.615c0-.106.015-.12.121-.12.089,0,.569.03,1.994.03h3.705v-.075a9.064,9.064,0,0,0-.105-1.576,8.9,8.9,0,0,1,.975.09c.1.016.2.061.2.12a1.181,1.181,0,0,1-.09.33,4.377,4.377,0,0,0-.075,1.036v.075h3.9c1.424,0,1.9-.03,1.995-.03s.12.014.12.12v.615c0,.1-.015.12-.12.12s-.571-.03-1.995-.03Zm-.255-5.656c0,.106-.015.121-.12.121-.075,0-.525-.03-1.92-.03h-.72a7.625,7.625,0,0,0,2.475,1.874,1.4,1.4,0,0,0-.345.406c-.075.15-.12.21-.2.21a.466.466,0,0,1-.225-.135,9.649,9.649,0,0,1-1.995-1.92c.03,2.295.06,3.045.06,3.224,0,.106-.015.121-.1.121h-.66c-.1,0-.119-.015-.119-.121,0-.179.044-.9.074-3.149a9.365,9.365,0,0,1-2.789,2.745.42.42,0,0,1-.226.1c-.059,0-.1-.076-.21-.225a1.491,1.491,0,0,0-.36-.391,8.9,8.9,0,0,0,3.255-2.744h-.96c-1.38,0-1.829.03-1.905.03-.1,0-.12-.015-.12-.121v-.569c0-.09.015-.1.12-.1.076,0,.525.015,1.905.015h1.245v-1.365c-.705.12-1.425.225-2.1.285-.3.015-.3.015-.42-.24a1.963,1.963,0,0,0-.33-.481,20.125,20.125,0,0,0,4.62-.734,2.055,2.055,0,0,0,.63-.3,4,4,0,0,1,.57.525c.09.09.1.134.1.2a.137.137,0,0,1-.15.12,2.225,2.225,0,0,0-.525.09,14.744,14.744,0,0,1-1.56.39v1.515h.96c1.4,0,1.845-.015,1.92-.015.1,0,.12.015.12.1Zm1.02-1.394a7.033,7.033,0,0,0-.09-1.38c.39.015.615.045.9.075.1.015.165.06.165.135a.461.461,0,0,1-.06.225,2.426,2.426,0,0,0-.09.945v1.665c0,.93.03,1.305.03,1.38,0,.1-.015.12-.12.12h-.645c-.1,0-.12-.016-.12-.12,0-.075.03-.45.03-1.38Zm3.21-.39a7.448,7.448,0,0,0-.12-1.74,7.843,7.843,0,0,1,.93.09c.12.015.195.075.195.12a.7.7,0,0,1-.09.3,3.5,3.5,0,0,0-.091,1.2v2.97c0,.554.031,1.11.031,1.485a1.044,1.044,0,0,1-.39.9c-.271.181-.646.271-1.755.271-.285,0-.285,0-.375-.3a1.626,1.626,0,0,0-.27-.614,10.087,10.087,0,0,0,1.214.06c.54,0,.721-.135.721-.555Z" fill="#595858"/>
    <path id="パス_530" data-name="パス 530" d="M682.167,2670.888c.09-.12.12-.1.226-.044a10.509,10.509,0,0,1,2.04,1.544c.089.09.074.121-.031.255l-.315.436c-.12.149-.15.149-.239.059a9.79,9.79,0,0,0-2.011-1.62c-.09-.059-.074-.089.03-.239Zm1.215,8.416a3.349,3.349,0,0,0-.255.66c-.029.1-.075.165-.149.165a.441.441,0,0,1-.21-.075,7.527,7.527,0,0,1-.721-.51,5.837,5.837,0,0,0,.75-1.245c.315-.72.78-1.906,1.275-3.451a2.814,2.814,0,0,0,.48.451c.24.179.24.179.15.45C684.3,2677.009,683.848,2678.223,683.382,2679.3Zm-.255-12.12c.12-.135.15-.135.24-.09a12.642,12.642,0,0,1,2.04,1.68c.075.074.06.1-.045.239l-.315.42c-.12.151-.165.165-.255.076a12.017,12.017,0,0,0-2.01-1.74c-.1-.075-.09-.12.03-.24Zm10.545,7.245a2.322,2.322,0,0,0-.526.674c-1.619,2.446-3.719,3.991-7.334,5.01a.876.876,0,0,1-.209.045c-.091,0-.121-.06-.21-.225a1.94,1.94,0,0,0-.451-.585c3.495-.839,5.91-2.325,7.41-4.785a3.23,3.23,0,0,0,.45-1.034,7.083,7.083,0,0,1,.855.48c.119.075.18.134.18.21S693.776,2674.369,693.672,2674.429Zm-5.415-4.44a1.364,1.364,0,0,0-.2.42,11.483,11.483,0,0,1-1.83,3.66c-.075.1-.12.164-.165.164s-.105-.045-.225-.119a2.341,2.341,0,0,0-.614-.3,9.192,9.192,0,0,0,1.875-3.329,4.371,4.371,0,0,0,.239-1.125,6.119,6.119,0,0,1,.825.239c.135.046.2.091.2.165A.34.34,0,0,1,688.257,2669.989Zm1.41-1.485a7.746,7.746,0,0,0-.1-1.635c.375.015.645.03,1.005.075.12.015.18.075.18.135a.7.7,0,0,1-.09.285,3.417,3.417,0,0,0-.075,1.095v4.065c0,1.065.015,1.545.015,1.905a1.223,1.223,0,0,1-.435,1.125c-.255.2-.69.285-1.77.285-.3,0-.3,0-.375-.3a2.076,2.076,0,0,0-.255-.705,9.174,9.174,0,0,0,1.29.075c.435,0,.615-.136.615-.676Zm2.97.855c.165-.06.179-.045.225.045a11.6,11.6,0,0,0,2.52,3.7,2.153,2.153,0,0,0-.57.39c-.105.1-.15.149-.2.149-.06,0-.1-.059-.2-.164a13.257,13.257,0,0,1-2.356-3.75c-.045-.1-.029-.136.165-.21Z" fill="#595858"/>
    <path id="パス_531" data-name="パス 531" d="M701.4,2668.519a3.628,3.628,0,0,0-.629-1.17,9.114,9.114,0,0,1,1.184-.135c.21,0,.316.09.316.225a1.873,1.873,0,0,0,.014.39,5.142,5.142,0,0,0,.271,1c.165.45.3.795.495,1.26a26.3,26.3,0,0,0,3.284-.96c.09-.03.165-.03.21.075a3.149,3.149,0,0,1,.2.66c.015.1,0,.165-.075.2-.93.315-2.024.615-3.239.9a14.276,14.276,0,0,0,2.489,3.66,2.557,2.557,0,0,0,.405.33c.076.045.1.09.1.135a.3.3,0,0,1-.045.165c-.105.179-.284.45-.39.6-.075.09-.134.151-.2.151s-.09-.031-.18-.09c-.2-.136-.36-.226-.54-.33a7.12,7.12,0,0,0-3.4-.811c-1.8,0-2.79.646-2.79,1.71,0,1.38,1.859,1.95,4.05,1.95a11.838,11.838,0,0,0,2.159-.179,4.982,4.982,0,0,1-.194.974c-.045.106-.076.12-.2.151-.269.029-1.064.075-1.724.075-2.745,0-5.055-.886-5.055-2.9,0-1.739,1.649-2.609,3.72-2.609a7.41,7.41,0,0,1,3.179.675,13.219,13.219,0,0,1-2.309-3.465c-1.155.194-2.191.3-3.226.375-.449.03-.9.06-1.274.045-.106,0-.135-.061-.18-.18a4.555,4.555,0,0,1-.165-.78,12.233,12.233,0,0,0,1.484,0,25.066,25.066,0,0,0,2.941-.345C701.832,2669.644,701.668,2669.223,701.4,2668.519Z" fill="#595858"/>
    <path id="パス_532" data-name="パス 532" d="M712.423,2674.669a3.054,3.054,0,0,1,2.114-1.095c1.485,0,1.965,1.08,2.115,2.595.12,1.274.361,2.01,1.2,2.01a2.4,2.4,0,0,0,1.919-1.036,7.237,7.237,0,0,0,1.26-2.474,1.922,1.922,0,0,0,.54.8c.12.09.135.21.075.389a6.794,6.794,0,0,1-1.185,2.04,3.237,3.237,0,0,1-2.625,1.321c-1.44,0-1.949-.885-2.145-2.715-.165-1.516-.509-2.1-1.3-2.1a2.884,2.884,0,0,0-2.071,1.29,16.875,16.875,0,0,0-1.844,3.316c-.06.149-.135.165-.27.1a2.933,2.933,0,0,1-.66-.389c-.09-.076-.09-.151-.03-.255,1.934-3.781,3.524-6.946,4.559-9.15a6.557,6.557,0,0,0,.585-1.725,5.475,5.475,0,0,1,1.08.57.26.26,0,0,1,.031.435,1.941,1.941,0,0,0-.451.615c-1.035,1.934-2.04,3.854-2.924,5.429Z" fill="#595858"/>
    <path id="パス_533" data-name="パス 533" d="M723.853,2676.858a.264.264,0,0,1,.165-.09c.044,0,.089.031.165.09a10.417,10.417,0,0,1,2.879,2.7.324.324,0,0,1,.076.18c0,.061-.016.106-.106.181l-.54.449c-.075.061-.12.091-.15.091-.06,0-.1-.016-.164-.12a10.925,10.925,0,0,0-2.761-2.805c-.074-.046-.1-.075-.1-.1s.015-.076.076-.151Z" fill="#595858"/>
    <path id="パス_534" data-name="パス 534" d="M396.169,2692.709h-5.654v3.54h4.274v1.095h-4.274v4.23h5.759v1.095H389.21v-11.055h6.959Z" fill="#595858"/>
    <path id="パス_535" data-name="パス 535" d="M401.854,2696.023c-.945,0-1.875.75-2.355,2.251v4.4h-1.215V2695h1.17v1.95c.57-1.471,1.485-2.115,2.49-2.115Z" fill="#595858"/>
    <path id="パス_536" data-name="パス 536" d="M405.14,2693.534h-1.5v-1.485h1.5Zm-.135,9.135h-1.231V2695h1.231Z" fill="#595858"/>
    <path id="パス_537" data-name="パス 537" d="M411.14,2697.914l2.819,4.755h-1.38l-2.265-3.945-1.349,1.44v2.5h-1.2v-11.25h1.2v7.41L412.34,2695h1.425Z" fill="#595858"/>
    <path id="パス_538" data-name="パス 538" d="M415.52,2696.834a2.89,2.89,0,0,1,3.044-2.01c1.845,0,2.775.81,2.775,2.55v2.8a19.029,19.029,0,0,0,.15,2.49h-1.11a9.381,9.381,0,0,1-.164-1.216,3.066,3.066,0,0,1-2.625,1.4,2.137,2.137,0,0,1-2.356-2.235c0-1.3.75-2.205,2.521-2.52a20.882,20.882,0,0,1,2.4-.24v-.406c0-1.229-.465-1.709-1.62-1.709a1.814,1.814,0,0,0-1.859,1.454Zm4.634,1.86a11.6,11.6,0,0,0-2.13.24c-1.125.24-1.6.765-1.6,1.62a1.311,1.311,0,0,0,1.47,1.38,2.72,2.72,0,0,0,2.264-1.515Z" fill="#595858"/>
    <path id="パス_539" data-name="パス 539" d="M428.194,2692.319a3.6,3.6,0,0,0-.63-1.17,9.222,9.222,0,0,1,1.185-.136c.21,0,.315.09.315.226a1.882,1.882,0,0,0,.015.39,5.152,5.152,0,0,0,.271,1.005c.165.45.3.795.495,1.259a26.223,26.223,0,0,0,3.284-.96c.09-.029.165-.029.21.076a3.149,3.149,0,0,1,.2.66c.015.1,0,.165-.075.2-.93.315-2.024.614-3.239.9a14.276,14.276,0,0,0,2.489,3.661,2.445,2.445,0,0,0,.4.33c.075.045.1.09.1.135a.3.3,0,0,1-.045.165c-.105.18-.284.45-.39.6-.075.089-.135.15-.2.15s-.09-.03-.18-.09c-.2-.135-.36-.225-.54-.33a7.121,7.121,0,0,0-3.4-.81c-1.8,0-2.79.645-2.79,1.71,0,1.379,1.859,1.95,4.05,1.95a11.836,11.836,0,0,0,2.159-.18,5,5,0,0,1-.2.975c-.044.1-.075.12-.2.15-.269.029-1.064.075-1.724.075-2.746,0-5.055-.886-5.055-2.9,0-1.741,1.649-2.61,3.72-2.61a7.424,7.424,0,0,1,3.179.675,13.222,13.222,0,0,1-2.309-3.465c-1.156.194-2.191.3-3.226.375-.449.03-.9.059-1.274.045-.106,0-.135-.061-.18-.18a4.482,4.482,0,0,1-.165-.78,12.234,12.234,0,0,0,1.484,0,25.326,25.326,0,0,0,2.941-.345C428.629,2693.444,428.465,2693.023,428.194,2692.319Z" fill="#595858"/>
    <path id="パス_540" data-name="パス 540" d="M439.22,2698.469a3.054,3.054,0,0,1,2.114-1.095c1.485,0,1.965,1.08,2.115,2.595.12,1.274.361,2.01,1.2,2.01a2.4,2.4,0,0,0,1.92-1.035,7.236,7.236,0,0,0,1.26-2.475,1.919,1.919,0,0,0,.54.795c.12.09.135.21.075.39a6.8,6.8,0,0,1-1.185,2.04,3.238,3.238,0,0,1-2.625,1.32c-1.44,0-1.949-.885-2.145-2.715-.165-1.515-.51-2.1-1.3-2.1a2.879,2.879,0,0,0-2.071,1.29,16.773,16.773,0,0,0-1.844,3.315c-.06.149-.135.165-.27.1a2.937,2.937,0,0,1-.66-.39c-.09-.075-.09-.151-.03-.255,1.934-3.78,3.524-6.946,4.559-9.15a6.587,6.587,0,0,0,.585-1.726,5.539,5.539,0,0,1,1.08.571.259.259,0,0,1,.03.434,1.962,1.962,0,0,0-.45.616c-1.035,1.934-2.04,3.854-2.925,5.43Z" fill="#595858"/>
    <path id="パス_541" data-name="パス 541" d="M450.649,2700.659a.264.264,0,0,1,.165-.09c.045,0,.09.03.165.09a10.394,10.394,0,0,1,2.88,2.7.322.322,0,0,1,.076.179c0,.061-.016.106-.106.181l-.54.449c-.075.061-.12.091-.15.091-.06,0-.105-.016-.164-.12a10.94,10.94,0,0,0-2.761-2.8c-.074-.046-.1-.075-.1-.1s.015-.075.076-.151Z" fill="#595858"/>
    <path id="パス_542" data-name="パス 542" d="M464.9,2695.679a11.138,11.138,0,0,0,6.2,7.215,2.756,2.756,0,0,0-.54.63c-.09.165-.135.224-.21.224a.552.552,0,0,1-.225-.089,12.093,12.093,0,0,1-5.745-7.2,11.163,11.163,0,0,1-.825,2.534,9.867,9.867,0,0,1-4.845,4.71.816.816,0,0,1-.24.076c-.074,0-.119-.06-.225-.21a2.533,2.533,0,0,0-.554-.51,9.182,9.182,0,0,0,4.994-4.441,10.143,10.143,0,0,0,.87-2.939h-3.435c-1.44,0-1.92.03-2,.03-.1,0-.12-.016-.12-.135v-.69c0-.106.016-.121.12-.121.075,0,.555.031,2,.031h3.54c.075-.75.105-1.545.12-2.4a8.711,8.711,0,0,0-.075-1.694c.345.015.765.045,1.065.09.15.03.21.09.21.165a.637.637,0,0,1-.09.285,3.22,3.22,0,0,0-.12,1.125c-.015.84-.06,1.649-.15,2.43h4.034c1.441,0,1.92-.031,2-.031.1,0,.12.015.12.121v.69c0,.119-.015.135-.12.135-.076,0-.555-.03-2-.03Z" fill="#595858"/>
    <path id="パス_543" data-name="パス 543" d="M474.56,2693.369a12.823,12.823,0,0,0-.136-2.28c.375.03.721.06,1,.1.12.015.2.06.2.135a1.267,1.267,0,0,1-.075.314,8.726,8.726,0,0,0-.06,1.755v1.471a25.571,25.571,0,0,1-.375,4.98,8.926,8.926,0,0,1-1.71,3.63c-.075.1-.12.165-.179.165s-.106-.061-.21-.18a1.918,1.918,0,0,0-.556-.45,7.417,7.417,0,0,0,1.755-3.39,21.167,21.167,0,0,0,.346-4.561Zm4.529.375a11.565,11.565,0,0,0-.12-2.056,9.089,9.089,0,0,1,1.02.091c.1.015.195.074.195.135a.737.737,0,0,1-.075.285,5.457,5.457,0,0,0-.105,1.5v5.94c0,1.59.03,2.3.03,2.37,0,.12-.015.135-.12.135h-.75c-.09,0-.105-.015-.105-.135,0-.075.03-.78.03-2.37Zm4.68-.646a12.183,12.183,0,0,0-.105-2.069,8.911,8.911,0,0,1,1.02.09c.105.015.2.075.2.149a.739.739,0,0,1-.075.271,5.62,5.62,0,0,0-.1,1.515v7.965c0,1.74.03,2.445.03,2.519,0,.106-.015.121-.121.121h-.75c-.1,0-.119-.015-.119-.121,0-.074.03-.779.03-2.519Z" fill="#595858"/>
    <path id="パス_544" data-name="パス 544" d="M493.084,2696.728c0,3.151.03,3.676.03,3.751,0,.1-.015.12-.12.12h-.645c-.105,0-.12-.015-.12-.12v-.855h-2.865v1.185c0,.1-.014.12-.135.12h-.645c-.105,0-.12-.016-.12-.12,0-.075.03-.6.03-3.885v-2.3c0-2.295-.03-2.85-.03-2.941s.015-.119.12-.119c.09,0,.42.029,1.455.029h1.5c1.035,0,1.365-.029,1.455-.029.105,0,.12.015.12.119s-.03.631-.03,2.58Zm-.855-4.335h-2.865v2.731h2.865Zm0,3.51h-2.865v2.926h2.865Zm6.36-4.709c1.2,0,1.59-.03,1.665-.03.12,0,.135.015.135.12,0,.075-.031.689-.031,2.024v7.081c0,.705.016,1.38.016,2.024a1.166,1.166,0,0,1-.391,1.036c-.33.254-.734.315-1.784.315-.285,0-.315.015-.375-.3a1.765,1.765,0,0,0-.285-.69c.465.045.944.059,1.26.059.51,0,.675-.255.675-.63v-3.359h-4.02a6.652,6.652,0,0,1-2.985,4.89c-.12.09-.18.134-.225.134s-.12-.059-.224-.179a1.952,1.952,0,0,0-.585-.405c2.549-1.666,3.374-3.06,3.374-8.235v-1.741c0-1.335-.03-1.949-.03-2.024,0-.1.015-.12.135-.12.075,0,.45.03,1.665.03Zm.885,4.215h-3.78c-.015,1.005-.06,1.875-.135,2.625h3.915Zm0-3.391h-3.78v2.58h3.78Z" fill="#595858"/>
    <path id="パス_545" data-name="パス 545" d="M510.394,2699.8a13.284,13.284,0,0,0,5.865,2.79,2.592,2.592,0,0,0-.42.569c-.075.165-.12.241-.2.241a.979.979,0,0,1-.241-.076,13.354,13.354,0,0,1-5.624-3.269c0,2.13.075,3.585.075,3.87,0,.1-.015.12-.12.12H509c-.1,0-.12-.015-.12-.12,0-.285.075-1.71.09-3.855a12.208,12.208,0,0,1-5.43,3.27.953.953,0,0,1-.24.075c-.074,0-.105-.06-.2-.225a2.262,2.262,0,0,0-.435-.54,12.788,12.788,0,0,0,5.64-2.85h-3.09c-1.425,0-1.9.03-1.994.03-.106,0-.121-.015-.121-.12v-.615c0-.106.015-.12.121-.12.089,0,.569.03,1.994.03h3.705v-.075a9.084,9.084,0,0,0-.105-1.576,8.96,8.96,0,0,1,.975.09c.1.016.2.061.2.12a1.189,1.189,0,0,1-.09.331,4.361,4.361,0,0,0-.075,1.035v.075h3.9c1.424,0,1.905-.03,1.995-.03s.12.014.12.12v.615c0,.1-.016.12-.12.12s-.571-.03-1.995-.03Zm-.255-5.656c0,.106-.015.12-.12.12-.075,0-.525-.029-1.92-.029h-.72a7.625,7.625,0,0,0,2.475,1.874,1.406,1.406,0,0,0-.345.405c-.075.151-.12.21-.2.21a.47.47,0,0,1-.225-.134,9.7,9.7,0,0,1-1.995-1.92c.03,2.295.06,3.045.06,3.225,0,.1-.015.12-.1.12h-.66c-.105,0-.119-.015-.119-.12,0-.18.044-.9.074-3.15a9.362,9.362,0,0,1-2.789,2.745.414.414,0,0,1-.226.1c-.059,0-.1-.075-.21-.224a1.5,1.5,0,0,0-.36-.391,8.913,8.913,0,0,0,3.255-2.744h-.96c-1.38,0-1.829.029-1.9.029-.1,0-.12-.014-.12-.12v-.569c0-.09.015-.106.12-.106.076,0,.525.016,1.9.016H506.3v-1.365c-.705.12-1.425.224-2.1.285-.3.015-.3.015-.42-.24a1.939,1.939,0,0,0-.33-.481,20.263,20.263,0,0,0,4.62-.734,2.061,2.061,0,0,0,.63-.3,4,4,0,0,1,.57.525c.09.089.1.134.1.2a.138.138,0,0,1-.15.12,2.236,2.236,0,0,0-.525.09,14.714,14.714,0,0,1-1.56.389v1.516h.96c1.395,0,1.845-.016,1.92-.016.1,0,.12.016.12.106Zm1.02-1.394a7.034,7.034,0,0,0-.09-1.38c.39.014.615.045.9.075.1.015.165.06.165.135a.455.455,0,0,1-.06.224,2.426,2.426,0,0,0-.091.946v1.665c0,.929.031,1.3.031,1.38,0,.1-.015.12-.12.12h-.645c-.1,0-.12-.016-.12-.12,0-.076.03-.451.03-1.38Zm3.21-.39a7.446,7.446,0,0,0-.12-1.74,7.594,7.594,0,0,1,.93.09c.12.014.2.075.2.12a.7.7,0,0,1-.09.3,3.5,3.5,0,0,0-.091,1.2v2.97c0,.554.031,1.11.031,1.485a1.047,1.047,0,0,1-.39.9c-.271.18-.646.27-1.755.27-.285,0-.285,0-.375-.3a1.624,1.624,0,0,0-.27-.615,10.1,10.1,0,0,0,1.214.059c.54,0,.721-.134.721-.554Z" fill="#595858"/>
    <path id="パス_546" data-name="パス 546" d="M525.469,2699.759a12.442,12.442,0,0,0,5.76,2.835,1.761,1.761,0,0,0-.435.555c-.135.285-.135.285-.436.179a12.158,12.158,0,0,1-5.609-3.3c0,2.25.075,3.615.075,3.87,0,.1-.015.12-.12.12h-.72c-.1,0-.12-.015-.12-.12,0-.255.045-1.59.06-3.825a11.252,11.252,0,0,1-5.385,3.24c-.269.09-.285.09-.435-.18a1.619,1.619,0,0,0-.405-.525,11.749,11.749,0,0,0,5.49-2.85H520.2c-1.439,0-1.92.015-1.995.015-.1,0-.12,0-.12-.12v-.585c0-.1.015-.12.12-.12.075,0,.556.03,1.995.03h3.69v-.09a4.331,4.331,0,0,0-.09-1.065c.36.015.69.045.96.075.12.015.18.075.18.12a.454.454,0,0,1-.075.24,1.681,1.681,0,0,0-.09.645v.075h3.914c1.441,0,1.92-.03,1.995-.03.106,0,.121.015.121.12v.585c0,.12-.015.12-.121.12-.075,0-.554-.015-1.995-.015Zm5.474-7.156c0,.106-.014.12-.12.12-.074,0-.554-.029-1.949-.029h-1.995c0,.51.03.735.03.795,0,.09-.015.1-.12.1h-.645c-.1,0-.12-.015-.12-.1,0-.06.015-.285.03-.795h-3.435c0,.75.03,1.034.03,1.11,0,.1-.015.12-.12.12h-.645c-.1,0-.12-.015-.12-.12,0-.09.03-.36.03-1.11h-1.83c-1.409,0-1.875.029-1.949.029-.106,0-.12-.014-.12-.12v-.6c0-.1.014-.12.12-.12.074,0,.54.03,1.949.03h1.83v-.061a5.814,5.814,0,0,0-.1-1.3c.331.015.69.045.915.075.1.014.166.059.166.135a.316.316,0,0,1-.061.179,2.406,2.406,0,0,0-.09.9v.075h3.435a6.228,6.228,0,0,0-.105-1.365,7.46,7.46,0,0,1,.915.089c.09.016.15.045.15.121a.507.507,0,0,1-.06.2,2.816,2.816,0,0,0-.075.885v.075h1.995c1.395,0,1.875-.03,1.949-.03.106,0,.12.015.12.12Zm-1.814,1.83a3.1,3.1,0,0,0-.585.061c-1.3.239-2.64.435-4.08.585-1.83.194-3.165.269-4.635.314-.3,0-.3,0-.42-.269a2.646,2.646,0,0,0-.345-.556c2.025-.014,3.375-.074,5.235-.255a27.31,27.31,0,0,0,3.03-.42,5.131,5.131,0,0,0,1.14-.359,7.665,7.665,0,0,1,.735.54.306.306,0,0,1,.135.21C529.339,2694.358,529.278,2694.433,529.129,2694.433Zm-8.685,1.47c.12-.059.15-.059.225.03a8.851,8.851,0,0,1,.945,1.7c.045.09.031.135-.105.2l-.465.21c-.165.075-.194.075-.24-.045a8.215,8.215,0,0,0-.885-1.711c-.075-.1-.06-.135.09-.194Zm3.465-.375c.135-.045.165-.029.225.061a7.115,7.115,0,0,1,.72,1.514c.03.106.015.12-.135.181l-.435.164c-.2.075-.225.075-.27-.045a8.474,8.474,0,0,0-.645-1.545c-.06-.1-.03-.119.135-.179Zm4.92.375a.942.942,0,0,0-.255.33,13.386,13.386,0,0,1-1.155,1.876c-.106.135-.15.21-.21.21s-.12-.045-.24-.12a2.035,2.035,0,0,0-.495-.225,12.011,12.011,0,0,0,1.259-2.025,2.925,2.925,0,0,0,.256-.75,8.162,8.162,0,0,1,.84.345c.09.045.135.09.135.149C528.964,2695.768,528.919,2695.829,528.829,2695.9Z" fill="#595858"/>
    <path id="パス_547" data-name="パス 547" d="M537.439,2692.319a3.623,3.623,0,0,0-.629-1.17,9.191,9.191,0,0,1,1.184-.136c.21,0,.316.09.316.226a1.872,1.872,0,0,0,.014.39,5.156,5.156,0,0,0,.271,1.005c.165.45.3.795.5,1.259a26.226,26.226,0,0,0,3.284-.96c.09-.029.165-.029.21.076a3.149,3.149,0,0,1,.2.66c.015.1,0,.165-.075.2-.93.315-2.024.614-3.239.9a14.3,14.3,0,0,0,2.489,3.661,2.487,2.487,0,0,0,.405.33c.076.045.1.09.1.135a.3.3,0,0,1-.045.165c-.1.18-.284.45-.39.6-.075.089-.134.15-.2.15s-.09-.03-.18-.09c-.2-.135-.36-.225-.54-.33a7.121,7.121,0,0,0-3.4-.81c-1.8,0-2.79.645-2.79,1.71,0,1.379,1.859,1.95,4.05,1.95a11.836,11.836,0,0,0,2.159-.18,5.013,5.013,0,0,1-.194.975c-.045.1-.076.12-.2.15-.269.029-1.064.075-1.724.075-2.745,0-5.055-.886-5.055-2.9,0-1.741,1.649-2.61,3.72-2.61a7.425,7.425,0,0,1,3.179.675,13.223,13.223,0,0,1-2.309-3.465c-1.155.194-2.191.3-3.226.375-.449.03-.9.059-1.274.045-.106,0-.135-.061-.18-.18a4.576,4.576,0,0,1-.165-.78,12.234,12.234,0,0,0,1.484,0,25.278,25.278,0,0,0,2.941-.345C537.874,2693.444,537.71,2693.023,537.439,2692.319Z" fill="#595858"/>
    <path id="パス_548" data-name="パス 548" d="M548.464,2698.469a3.054,3.054,0,0,1,2.114-1.095c1.485,0,1.965,1.08,2.115,2.595.12,1.274.361,2.01,1.2,2.01a2.4,2.4,0,0,0,1.919-1.035,7.219,7.219,0,0,0,1.26-2.475,1.919,1.919,0,0,0,.54.795c.12.09.135.21.075.39a6.8,6.8,0,0,1-1.185,2.04,3.236,3.236,0,0,1-2.625,1.32c-1.44,0-1.949-.885-2.145-2.715-.165-1.515-.509-2.1-1.3-2.1a2.881,2.881,0,0,0-2.071,1.29,16.826,16.826,0,0,0-1.844,3.315c-.06.149-.135.165-.27.1a2.937,2.937,0,0,1-.66-.39c-.09-.075-.09-.151-.03-.255,1.934-3.78,3.524-6.946,4.559-9.15a6.549,6.549,0,0,0,.585-1.726,5.51,5.51,0,0,1,1.08.571.259.259,0,0,1,.031.434,1.946,1.946,0,0,0-.451.616c-1.035,1.934-2.04,3.854-2.924,5.43Z" fill="#595858"/>
    <path id="パス_549" data-name="パス 549" d="M354.086,2717.814c0,.929.03,1.3.03,1.38,0,.1-.014.12-.12.12-.075,0-.45-.03-1.5-.03h-2.715v5.235c0,2.144.031,3.029.031,3.12s-.016.119-.121.119h-.705c-.1,0-.12-.015-.12-.119s.03-.976.03-3.12v-6.5c0-2.145-.03-3.06-.03-3.15s.016-.12.12-.12.585.03,1.7.03H352.5c1.05,0,1.425-.03,1.5-.03.106,0,.12.015.12.12s-.03.465-.03,1.38Zm-.855-2.295h-3.45v1.14h3.45Zm0,1.86h-3.45v1.185h3.45Zm5.835,6.405c0,.1-.015.12-.12.12-.075,0-.57-.031-2.04-.031h-.21v1.606c0,1.109.031,1.559.031,1.649,0,.106-.016.12-.121.12h-.66c-.105,0-.12-.014-.12-.12,0-.09.03-.54.03-1.649v-1.606h-2.129a5.428,5.428,0,0,1-.451,1.71,4.633,4.633,0,0,1-1.335,1.7c-.089.075-.15.12-.2.12s-.12-.061-.24-.181a1.649,1.649,0,0,0-.525-.359,3.7,3.7,0,0,0,1.89-2.986h-.09c-1.469,0-1.95.031-2.04.031s-.12-.015-.12-.12v-.555c0-.106.016-.12.12-.12s.571.03,2.04.03h.151c.014-.465.045-1.05.045-1.785-1.2,0-1.635.03-1.681.03-.119,0-.135-.016-.135-.12v-.555c0-.1.016-.12.135-.12.06,0,.525.029,1.935.029h3.331c1.409,0,1.875-.029,1.949-.029.09,0,.105.015.105.12v.555c0,.1-.015.12-.105.12-.074,0-.525-.03-1.815-.03v1.785h.21c1.47,0,1.965-.03,2.04-.03.1,0,.12.014.12.12Zm-3.21-2.43h-2.025c0,.705-.015,1.29-.045,1.785h2.07Zm5.055,2.595c0,.825.045,1.6.045,2.174,0,.661-.1.915-.39,1.141s-.615.3-1.815.3c-.285,0-.27,0-.345-.285a2.248,2.248,0,0,0-.27-.661,9.236,9.236,0,0,0,1.1.061c.66,0,.8-.12.8-.721v-6.674h-2.745c-1.17,0-1.545.03-1.62.03-.12,0-.135-.015-.135-.12,0-.076.03-.36.03-1.29v-1.74c0-.915-.03-1.2-.03-1.29s.015-.12.135-.12c.075,0,.45.03,1.62.03h1.92c1.155,0,1.545-.03,1.62-.03.1,0,.12.015.12.12s-.03.69-.03,2.145Zm-.885-8.43h-3.615v1.14h3.615Zm0,1.86h-3.615v1.185h3.615Z" fill="#595858"/>
    <path id="パス_550" data-name="パス 550" d="M368.892,2714.9c.644,0,1.109-.03,1.214-.03s.135.015.2.15a5.7,5.7,0,0,0,.735,1.365,5.881,5.881,0,0,0,.526.69,9.929,9.929,0,0,0,1.229-1.29,2.927,2.927,0,0,0,.375-.6,4.168,4.168,0,0,1,.735.48c.09.075.105.12.105.18s-.045.12-.135.165a1.112,1.112,0,0,0-.465.375,15.11,15.11,0,0,1-1.32,1.26,9.292,9.292,0,0,0,1.1.915,13.831,13.831,0,0,0,1.485-1.41,3.493,3.493,0,0,0,.405-.6,5,5,0,0,1,.72.465.258.258,0,0,1,.12.2c0,.075-.06.12-.165.165a1.278,1.278,0,0,0-.45.36,16.234,16.234,0,0,1-1.44,1.275,14.494,14.494,0,0,0,2.88,1.365,2.314,2.314,0,0,0-.375.54c-.09.18-.135.24-.21.24a.749.749,0,0,1-.225-.075c-2.775-1.245-4.77-2.73-6.074-5.22a12.858,12.858,0,0,1-5.866,5.235.6.6,0,0,1-.24.09c-.074,0-.1-.075-.21-.24a1.564,1.564,0,0,0-.39-.45,14.172,14.172,0,0,0,3.315-1.935,10.389,10.389,0,0,0-1.739-1.53c-.09-.06-.09-.09.014-.195l.361-.33c.09-.09.12-.1.21-.045a11.244,11.244,0,0,1,1.8,1.56,9.462,9.462,0,0,0,1.9-2.355h-2.159c-1.125,0-1.47.03-1.545.03-.12,0-.136-.015-.136-.12v-.585c0-.1.016-.12.136-.12.075,0,.42.03,1.545.03Zm2.835,10.934c0,.405.059.585.194.676a3.291,3.291,0,0,0,1.47.18,2.786,2.786,0,0,0,1.545-.241c.225-.165.4-.615.465-1.679a2.359,2.359,0,0,0,.585.285c.255.09.285.1.24.375-.15,1.019-.285,1.455-.765,1.755a4.818,4.818,0,0,1-2.07.3,4.586,4.586,0,0,1-2.07-.255c-.36-.21-.48-.481-.48-1.14v-2.79h-2.3c-.435,2.324-1.65,3.42-4.079,4.26a.622.622,0,0,1-.226.059c-.09,0-.135-.059-.24-.224a1.912,1.912,0,0,0-.48-.51c2.491-.676,3.675-1.53,4.11-3.585h-1.364c-1.5,0-2,.029-2.085.029-.106,0-.12-.014-.12-.119v-.6c0-.1.014-.121.12-.121.089,0,.585.031,2.085.031h1.484a14.6,14.6,0,0,0,.09-1.725v-.39c-.855.015-1.17.03-1.244.03-.106,0-.12-.015-.12-.12v-.57c0-.12.014-.135.12-.135.09,0,.524.03,1.814.03h2.79c1.35,0,1.785-.03,1.875-.03.105,0,.12.015.12.135v.57c0,.1-.015.12-.12.12-.075,0-.42-.015-1.349-.03v2.115H373.5c1.5,0,1.995-.031,2.085-.031.105,0,.12.016.12.121v.6c0,.1-.015.119-.12.119-.09,0-.585-.029-2.085-.029h-1.769Zm-.886-5.429h-2.1v.39c0,.63-.03,1.215-.075,1.725h2.175Z" fill="#595858"/>
    <path id="パス_551" data-name="パス 551" d="M381.762,2717.9c-.886,0-1.71.03-2.521.089-.179.016-.239-.044-.269-.239s-.061-.675-.076-.93a28.362,28.362,0,0,0,2.88.12h5.31a1.364,1.364,0,0,0,.75-.135.368.368,0,0,1,.391.015,3.861,3.861,0,0,1,.674.615.319.319,0,0,1-.045.465,1.363,1.363,0,0,0-.33.51,16.045,16.045,0,0,1-2.94,4.919,16.37,16.37,0,0,1-4.454,3.616.37.37,0,0,1-.511-.031,2.611,2.611,0,0,0-.779-.509,14.364,14.364,0,0,0,4.845-3.706,14.092,14.092,0,0,0,2.819-4.8Zm9.794-2.4a1.515,1.515,0,1,1-1.515-1.514A1.511,1.511,0,0,1,391.556,2715.5Zm-2.46,0a.945.945,0,1,0,.945-.945A.941.941,0,0,0,389.1,2715.5Z" fill="#595858"/>
    <path id="パス_552" data-name="パス 552" d="M395.307,2724.668v1.021c0,.179-.03.21-.21.224s-.495.016-.7,0c-.165-.014-.21-.045-.21-.194.045-.945.06-1.935.06-3.21v-2.955c0-.795,0-1.59-.03-2.4,0-.135.045-.165.165-.165.765.03,1.575.03,2.415.03h3.3c.9,0,1.875,0,2.655-.03.149,0,.18.045.18.21-.015.765-.031,1.56-.031,2.37v3.014c0,1.156.045,2.191.076,2.955,0,.165-.045.21-.2.21H402c-.136,0-.15-.045-.15-.194v-.886Zm6.54-6.689h-6.555v5.729h6.555Z" fill="#595858"/>
    <path id="パス_553" data-name="パス 553" d="M407.413,2719.359a.2.2,0,0,1,.255-.1,11.915,11.915,0,0,1,2.64,1.364.208.208,0,0,1,.075.316,4.629,4.629,0,0,1-.39.644c-.091.121-.165.136-.285.031a10.535,10.535,0,0,0-2.76-1.515C407.143,2719.809,407.308,2719.509,407.413,2719.359Zm2.324,5.745a27.29,27.29,0,0,0,4.125-2.58,26.129,26.129,0,0,0,4.276-4.156,3.453,3.453,0,0,0,.284.976.327.327,0,0,1-.074.405,25.185,25.185,0,0,1-3.96,3.675,35.419,35.419,0,0,1-4.38,2.8,2.775,2.775,0,0,0-.72.51c-.136.134-.285.1-.42-.045a9.539,9.539,0,0,1-.705-1.005A6.375,6.375,0,0,0,409.737,2725.1Zm-.554-9.165c.089-.135.134-.135.27-.075a12.114,12.114,0,0,1,2.609,1.56c.135.1.121.165.045.3a4.864,4.864,0,0,1-.434.644c-.09.106-.151.076-.271-.029a9.831,9.831,0,0,0-2.684-1.7C408.868,2716.434,409.033,2716.149,409.183,2715.939Zm6.524-.645a.118.118,0,0,1,.165,0,7.247,7.247,0,0,1,1.695,1.815.108.108,0,0,1-.03.165l-.434.36a.121.121,0,0,1-.2-.03,6.448,6.448,0,0,0-1.74-1.92Zm1.261-.99c.059-.045.1-.06.165-.015a8.672,8.672,0,0,1,1.71,1.755c.045.075.029.12-.046.18l-.4.36c-.061.06-.121.06-.181-.03a7.167,7.167,0,0,0-1.725-1.875Z" fill="#595858"/>
    <path id="パス_554" data-name="パス 554" d="M425.98,2725.134h1.936c.75,0,1.425-.016,2.175-.046.12,0,.149.046.165.181v.569c-.016.165-.045.21-.181.21-.734-.014-1.439-.029-2.144-.029h-4.875c-.72,0-1.32.029-1.935.059-.12,0-.165-.044-.18-.194a5.643,5.643,0,0,1-.045-.81c.765.044,1.38.06,2.16.06h1.935v-4.185h-1.05c-.585,0-1.125,0-1.755.03-.12,0-.18-.045-.2-.2-.03-.195-.045-.5-.06-.795.69.045,1.335.075,1.98.075h3.029c.706,0,1.306-.03,2.026-.045.135,0,.165.045.165.18a3.81,3.81,0,0,1,0,.585c0,.15-.045.18-.2.18-.675-.015-1.335-.03-2-.03h-.96Z" fill="#595858"/>
    <path id="パス_555" data-name="パス 555" d="M440.456,2717.289c.45-.015.585-.045.75-.165.106-.075.226-.045.391.06a4.349,4.349,0,0,1,.6.495c.18.18.151.33.031.45a1.486,1.486,0,0,0-.391.525,20.151,20.151,0,0,1-2.895,4.679,18.6,18.6,0,0,1-4.679,3.885.253.253,0,0,1-.33-.045,2.13,2.13,0,0,0-.84-.434,16.677,16.677,0,0,0,4.965-3.975,16.873,16.873,0,0,0,2.819-4.59l-4.319.12a21.819,21.819,0,0,1-2.97,3.21.319.319,0,0,1-.465.03,2.011,2.011,0,0,0-.766-.315,16.031,16.031,0,0,0,3.915-4.365,4.453,4.453,0,0,0,.75-1.875,3.761,3.761,0,0,1,1.125.525.219.219,0,0,1,0,.39,1.666,1.666,0,0,0-.45.51c-.224.36-.389.645-.6.945Z" fill="#595858"/>
    <path id="パス_556" data-name="パス 556" d="M449.172,2719.344a21.179,21.179,0,0,1,4.89,2.085c.12.06.15.135.1.24a4.847,4.847,0,0,1-.36.735c-.09.12-.15.15-.286.06a16.676,16.676,0,0,0-4.364-2.011v3.481c0,.915.03,2.085.045,3.059.015.151-.03.2-.2.2a7.012,7.012,0,0,1-.765,0c-.165,0-.21-.045-.21-.21.045-.96.06-2.13.06-3.045v-6.675a12.69,12.69,0,0,0-.165-2.4,6.213,6.213,0,0,1,1.245.2c.24.06.18.225.105.45a6.265,6.265,0,0,0-.105,1.665Z" fill="#595858"/>
    <path id="パス_557" data-name="パス 557" d="M458.427,2717.634a11.628,11.628,0,0,0-.164-2.175,8.121,8.121,0,0,1,1.229.24c.2.06.2.225.135.36a4.222,4.222,0,0,0-.149,1.575v2.535c0,.78.014,1.335.044,1.98,0,.179-.06.24-.225.24h-.7c-.15,0-.21-.061-.2-.226.015-.644.03-1.319.03-2.054Zm6.285,2.7a7.118,7.118,0,0,1-1.3,4.664,7.769,7.769,0,0,1-3.285,2.2.345.345,0,0,1-.42-.075,2.643,2.643,0,0,0-.75-.554,7.308,7.308,0,0,0,3.495-2.055,6.115,6.115,0,0,0,1.2-4.095v-2.58a12.094,12.094,0,0,0-.165-2.625,6.9,6.9,0,0,1,1.275.24c.18.06.18.225.105.375a5.762,5.762,0,0,0-.15,1.965Z" fill="#595858"/>
    <path id="パス_558" data-name="パス 558" d="M471.567,2721.714a12.279,12.279,0,0,0-2.025.15c-.135,0-.21-.06-.255-.21a9.055,9.055,0,0,1-.15-1.14,27.373,27.373,0,0,0,3.315.135h4.605c1.035,0,2.145-.015,3.285-.045.179-.015.224.014.224.18a6.346,6.346,0,0,1,0,.78c0,.165-.045.2-.224.179-1.125-.029-2.236-.029-3.24-.029Z" fill="#595858"/>
    <path id="パス_559" data-name="パス 559" d="M491.2,2717.169c.51-.015.675-.06.8-.165a.3.3,0,0,1,.4-.03,3.4,3.4,0,0,1,.645.6.257.257,0,0,1-.06.405,1.153,1.153,0,0,0-.36.45,21.542,21.542,0,0,1-2.385,3.975,16.482,16.482,0,0,1,1.8,1.65c.09.09.045.165-.015.27a2.016,2.016,0,0,1-.495.509c-.12.091-.165.076-.24-.014a15.906,15.906,0,0,0-1.68-1.651,18.286,18.286,0,0,1-5.2,4.1c-.165.09-.269.119-.4-.016a2.7,2.7,0,0,0-.84-.479,17.8,17.8,0,0,0,5.64-4.215,16.006,16.006,0,0,0-2.355-1.53,4.072,4.072,0,0,1,.525-.6.167.167,0,0,1,.24-.045,20.307,20.307,0,0,1,2.235,1.409,16.6,16.6,0,0,0,2.19-3.734l-4.425.09a17.028,17.028,0,0,1-3.27,3.479c-.15.12-.255.151-.39.046a2.756,2.756,0,0,0-.72-.421,15.458,15.458,0,0,0,4.29-4.844,5.181,5.181,0,0,0,.6-1.485,4.094,4.094,0,0,1,1.065.51c.18.12.135.3-.03.42a1.749,1.749,0,0,0-.435.51c-.165.285-.3.51-.54.87Zm1.56-2.175a.12.12,0,0,1,.165,0,7.3,7.3,0,0,1,1.7,1.815.109.109,0,0,1-.03.165l-.435.36a.12.12,0,0,1-.2-.03,6.5,6.5,0,0,0-1.74-1.92Zm1.259-.99c.061-.045.106-.06.166-.014a8.566,8.566,0,0,1,1.709,1.754c.045.075.031.12-.044.18l-.406.36c-.059.06-.119.06-.179-.03a7.167,7.167,0,0,0-1.725-1.875Z" fill="#595858"/>
    <path id="パス_560" data-name="パス 560" d="M499.062,2721.714a12.279,12.279,0,0,0-2.025.15c-.135,0-.21-.06-.255-.21a9.049,9.049,0,0,1-.15-1.14,27.373,27.373,0,0,0,3.315.135h4.605c1.035,0,2.145-.015,3.285-.045.18-.015.225.014.225.18a6.772,6.772,0,0,1,0,.78c0,.165-.045.2-.225.179-1.125-.029-2.235-.029-3.24-.029Z" fill="#595858"/>
    <path id="パス_561" data-name="パス 561" d="M513.418,2716.014c.149.09.21.15.21.24a.4.4,0,0,1-.106.255,2.222,2.222,0,0,0-.3.795,24.589,24.589,0,0,0-.705,5.175,11.438,11.438,0,0,0,.225,2.58c.36-.84.675-1.485,1.11-2.535a3.675,3.675,0,0,0,.36.6.241.241,0,0,1,.075.151.5.5,0,0,1-.075.24c-.33.765-.646,1.5-.96,2.385a.889.889,0,0,0-.061.375c0,.135.031.224.031.33a.13.13,0,0,1-.106.135,3.643,3.643,0,0,1-.675.15c-.074,0-.134-.061-.165-.15a13.317,13.317,0,0,1-.674-4.35,27.292,27.292,0,0,1,.615-5.115,8.651,8.651,0,0,0,.21-1.665A5.583,5.583,0,0,1,513.418,2716.014Zm3.1,7.14c.076-.015.106.03.106.15.045,1.14.96,1.649,2.729,1.649a22.245,22.245,0,0,0,2.955-.21c.121-.014.15,0,.166.151.014.18.044.495.044.705,0,.135,0,.149-.195.18a22.432,22.432,0,0,1-2.684.165c-1.68,0-2.64-.241-3.3-.946a2.461,2.461,0,0,1-.63-1.784Zm-.269-5.58c0-.135.029-.18.18-.21a24.816,24.816,0,0,1,3.179-.27c.87,0,1.725.03,2.13.075.2.015.226.03.226.15,0,.24,0,.48-.016.7,0,.12-.03.15-.165.135-.585-.06-1.559-.075-2.415-.075a19.013,19.013,0,0,0-3.135.315C516.237,2717.993,516.237,2717.754,516.253,2717.574Z" fill="#595858"/>
    <path id="パス_562" data-name="パス 562" d="M526.543,2721.413c0-.585.015-1.469.029-2.219a19.03,19.03,0,0,1-1.5,2.054c-.074.091-.135.151-.179.151s-.09-.06-.135-.165a2.094,2.094,0,0,0-.4-.6,15.272,15.272,0,0,0,3.195-5.4,4.35,4.35,0,0,0,.21-1,5.094,5.094,0,0,1,.929.33c.106.045.166.09.166.165a.243.243,0,0,1-.135.21c-.106.06-.2.24-.316.585a21.7,21.7,0,0,1-.974,2.19v7.6c0,1.59.03,2.279.03,2.354,0,.106-.016.106-.12.106h-.705c-.106,0-.12,0-.12-.106,0-.09.03-.764.03-2.354Zm11.909-2.174c0,.1-.015.12-.12.12-.075,0-.435-.015-1.365-.031v2.026c0,1.245.03,1.7.03,1.785s-.015.12-.12.12H536.2c-.1,0-.12-.016-.12-.12v-.675h-3.06a10.651,10.651,0,0,1-.285,1.35,6.6,6.6,0,0,1-3.059,3.764.487.487,0,0,1-.241.106c-.059,0-.12-.045-.224-.181a1.874,1.874,0,0,0-.54-.449,5.881,5.881,0,0,0,3.224-3.525,6.02,6.02,0,0,0,.241-1.065h-1.021c-1.38,0-1.83.029-1.92.029s-.1-.014-.1-.12v-.614c0-.1.014-.12.1-.12s.54.03,1.92.03h1.125c.09-.75.12-1.575.135-2.341h-1.784c-1.531,0-2.04.031-2.13.031-.106,0-.12-.015-.12-.12v-.615c0-.1.014-.12.12-.12.09,0,.6.03,2.13.03h1.8v-2.25h-.931c-1.409,0-1.874.03-1.965.03s-.119-.015-.119-.12v-.6c0-.12.015-.135.119-.135s.556.03,1.965.03H534.9c1.411,0,1.89-.03,1.98-.03s.12.015.12.135c0,.075-.03.51-.03,1.77v1.17c.93,0,1.29-.03,1.365-.03.105,0,.12.015.12.12Zm-2.37.089h-2.819c-.016.781-.045,1.591-.136,2.341h2.955Zm0-3.044h-2.8v2.25h2.8Z" fill="#595858"/>
    <path id="パス_563" data-name="パス 563" d="M540.208,2718.444c.09-.12.135-.135.239-.076a10.772,10.772,0,0,1,2.13,1.591c.075.075.061.119-.015.21l-.36.465c-.1.15-.149.15-.239.06a11.452,11.452,0,0,0-2.056-1.65c-.1-.06-.09-.1.016-.24Zm1.095,8.4a3.075,3.075,0,0,0-.241.659c-.014.106-.059.165-.134.165a.424.424,0,0,1-.226-.075,7,7,0,0,1-.734-.494,6.245,6.245,0,0,0,.675-1.08,21.318,21.318,0,0,0,1.335-3.63,2.575,2.575,0,0,0,.48.42c.255.18.27.18.194.465A28.936,28.936,0,0,1,541.3,2726.844Zm-.255-12.135c.1-.12.135-.12.224-.06a11.1,11.1,0,0,1,1.981,1.635c.074.075.074.1-.03.24l-.33.42c-.106.135-.165.15-.241.06a10.821,10.821,0,0,0-1.934-1.695c-.106-.06-.09-.09.014-.225Zm9.51,5.55a.7.7,0,0,0,.314-.045.343.343,0,0,1,.15-.045c.09,0,.2.06.42.284.21.21.27.3.27.391,0,.075-.06.135-.135.194a.935.935,0,0,0-.255.375,12.364,12.364,0,0,1-2.054,3.21,11.268,11.268,0,0,0,4.094,2.236,1.712,1.712,0,0,0-.405.554c-.135.271-.135.286-.435.18a11.542,11.542,0,0,1-3.87-2.34,11.881,11.881,0,0,1-3.615,2.34.618.618,0,0,1-.225.075c-.075,0-.12-.059-.209-.224a1.676,1.676,0,0,0-.42-.481,11.922,11.922,0,0,0,3.839-2.34,11.382,11.382,0,0,1-2.129-3.585h-.826c-.045.75-.1,1.5-.2,2.13a9.654,9.654,0,0,1-1.619,4.156c-.091.12-.136.179-.181.179s-.1-.045-.21-.135a2.019,2.019,0,0,0-.554-.375,8,8,0,0,0,1.724-4.035,32.224,32.224,0,0,0,.226-4.094c0-1.53-.03-2.19-.03-2.265,0-.105.014-.12.12-.12.075,0,.66.03,2.069.03h1.41v-.18a11.733,11.733,0,0,0-.1-2.01,8.909,8.909,0,0,1,.974.09c.106.015.18.075.18.135a1.359,1.359,0,0,1-.105.33,8.069,8.069,0,0,0-.06,1.455v.18h3.09a.7.7,0,0,0,.3-.045.379.379,0,0,1,.149-.06c.09,0,.2.06.4.255s.27.285.27.375-.03.12-.1.2a1.49,1.49,0,0,0-.255.36,14.136,14.136,0,0,1-.93,1.515c-.105.135-.15.2-.21.2-.045,0-.1-.045-.21-.1a1.686,1.686,0,0,0-.555-.21,7.216,7.216,0,0,0,1.05-1.665h-3v2.94Zm-2.731-2.94h-2.7v1.65c0,.39-.016.825-.03,1.29h2.729Zm-1.064,3.719a9.282,9.282,0,0,0,1.875,2.971,10.139,10.139,0,0,0,1.875-2.971Z" fill="#595858"/>
    <path id="パス_564" data-name="パス 564" d="M559.513,2715.1c1.29,0,1.724-.03,1.8-.03.1,0,.135.03.135.135-.03.48-.03.96-.03,2.085a66.013,66.013,0,0,1-.375,8.249c-.18,1.38-.885,1.92-2.039,1.92-.375,0-.556,0-.915-.029-.24-.03-.24-.03-.271-.346a1.948,1.948,0,0,0-.179-.63,6.86,6.86,0,0,0,1.29.106c.764,0,1.125-.45,1.245-1.275a21.993,21.993,0,0,0,.224-2.565h-2.325a8.3,8.3,0,0,1-2.715,4.664c-.1.091-.149.136-.21.136-.044,0-.1-.061-.194-.181a1.7,1.7,0,0,0-.48-.449,7.114,7.114,0,0,0,2.7-4.17c-1.2,0-1.606.029-1.681.029-.1,0-.119-.014-.119-.119V2722c0-.1.015-.119.119-.119.075,0,.495.03,1.8.03h.06a19.154,19.154,0,0,0,.254-2.685h-.285c-1.29,0-1.694.03-1.784.03-.105,0-.12-.015-.12-.136v-.614c0-.1.015-.12.12-.12.09,0,.494.03,1.784.03h.316c.014-.78.03-1.62.03-2.49h-.705c-1.29,0-1.71.03-1.785.03-.106,0-.12-.015-.12-.1v-.66c0-.1.014-.12.12-.12.075,0,.495.03,1.785.03Zm-1.021,4.125a23.759,23.759,0,0,1-.255,2.685h2.205c.031-.81.045-1.725.06-2.685Zm.061-3.3c0,.84-.016,1.68-.031,2.49h2c.014-.8.014-1.635.014-2.49Zm8.039-.84a1.487,1.487,0,0,0,.39-.045.441.441,0,0,1,.15-.03c.09,0,.18.045.39.27s.255.33.255.405a.2.2,0,0,1-.1.195.984.984,0,0,0-.3.48,32.822,32.822,0,0,1-1.859,3.6c1.829,1.5,2.324,2.31,2.324,3.525,0,1.485-.96,2.235-2.79,2.325-.3.029-.3.029-.375-.285a1.2,1.2,0,0,0-.27-.571c1.65.031,2.565-.359,2.565-1.544,0-.916-.435-1.621-2.46-3.331a23.635,23.635,0,0,0,2.085-4.184H563.7v8.76c0,2.04.031,2.955.031,3.03s-.016.1-.121.1h-.69c-.1,0-.12-.014-.12-.1s.03-.931.03-3.016V2718.2c0-2.085-.03-2.94-.03-3.03,0-.1.015-.12.12-.12.075,0,.436.03,1.32.03Z" fill="#595858"/>
    <path id="パス_565" data-name="パス 565" d="M570.027,2718.429c.09-.12.151-.12.241-.075a12.367,12.367,0,0,1,2.129,1.6c.076.075.076.1-.014.21l-.361.42c-.149.18-.165.195-.254.1a11.194,11.194,0,0,0-2.071-1.68c-.1-.061-.09-.09.016-.21Zm1.125,8.4a3.329,3.329,0,0,0-.269.661c-.016.089-.061.179-.12.179a.523.523,0,0,1-.241-.09c-.254-.165-.419-.285-.689-.495a5.772,5.772,0,0,0,.705-1.094,22.248,22.248,0,0,0,1.425-3.57,1.639,1.639,0,0,0,.51.449c.134.076.2.121.2.2a.877.877,0,0,1-.075.255C572.157,2724.549,571.633,2725.793,571.152,2726.828Zm-.3-12.088c.1-.121.15-.136.24-.076a10.57,10.57,0,0,1,1.965,1.6c.075.09.075.15-.045.285l-.33.405c-.121.135-.151.15-.241.06a10.563,10.563,0,0,0-1.964-1.71c-.09-.06-.09-.09.044-.225Zm12.344,4c0,.106-.015.121-.105.121-.06,0-.39-.015-1.2-.03v.63c0,.989.029,1.395.029,1.47,0,.12-.015.135-.12.135s-.675-.031-2.145-.031h-1.485v1.441H580c1.485,0,1.965-.03,2.056-.03s.119.015.119.12v.57c0,.1-.015.12-.119.12s-.571-.03-2.056-.03h-1.83v1.394h2.61c1.53,0,2.04-.029,2.13-.029s.106.015.106.119v.571c0,.1-.016.12-.106.12s-.6-.031-2.13-.031h-2.61c0,1.531.03,2.236.03,2.295,0,.106-.015.12-.12.12h-.7c-.105,0-.119-.014-.119-.12,0-.059.014-.779.029-2.295H574.9c-1.53,0-2.04.031-2.13.031s-.1-.015-.1-.12v-.571c0-.1.015-.119.1-.119s.6.029,2.13.029h2.385v-1.394h-1.515c-1.469,0-1.95.03-2.04.03s-.12-.016-.12-.12v-.57c0-.1.016-.12.12-.12s.571.03,2.04.03h1.515v-1.441h-1.35c-1.365,0-1.8.031-1.889.031-.106,0-.12-.015-.12-.135v-.555c0-.1.014-.12.12-.12.09,0,.524.029,1.889.029h1.35v-1.454h-2.01c-1.53,0-2.04.03-2.13.03s-.12-.015-.12-.121v-.584c0-.1.016-.12.12-.12s.6.03,2.13.03h2.01v-1.41h-1.2c-1.44,0-1.9.03-1.994.03-.106,0-.12-.015-.12-.12V2716c0-.1.014-.12.12-.12.09,0,.554.03,1.994.03h1.2a8.83,8.83,0,0,0-.1-1.635,8.463,8.463,0,0,1,.974.091c.106.014.165.044.165.119a1.259,1.259,0,0,1-.059.256,4.215,4.215,0,0,0-.091,1.169h1.485c1.47,0,2.055-.03,2.145-.03s.12.015.12.12c0,.075-.029.48-.029,1.47v.6c.809,0,1.139-.03,1.2-.03.09,0,.105.015.105.12Zm-2.175-2.084h-2.85v1.41h2.85Zm0,2.175h-2.85v1.454h2.85Z" fill="#595858"/>
    <path id="パス_566" data-name="パス 566" d="M597.942,2721.144c0,.1-.015.12-.12.12-.075,0-.554-.03-1.98-.03h-3.885v2.46c0,1.094.03,1.71.03,2.13a1.446,1.446,0,0,1-.509,1.32c-.42.39-1.231.39-2.611.375-.3,0-.3.015-.375-.3a2.262,2.262,0,0,0-.33-.749,15.94,15.94,0,0,0,1.995.09c.526,0,.825-.271.825-.915v-4.41h-3.915c-1.424,0-1.9.03-1.979.03-.106,0-.12-.016-.12-.12v-.72c0-.1.014-.12.12-.12.075,0,.555.03,1.979.03h3.915a10.163,10.163,0,0,0-.12-1.905c.255.03.526.06.765.1a19.017,19.017,0,0,0,3.165-2.475h-6.1c-1.514,0-2.025.03-2.115.03s-.12-.015-.12-.12v-.69c0-.1.016-.12.12-.12s.6.03,2.115.03h6.4a.807.807,0,0,0,.27-.045.326.326,0,0,1,.151-.03c.074,0,.179.045.42.27.329.315.4.42.4.54a.33.33,0,0,1-.194.255,1.73,1.73,0,0,0-.526.375,18.447,18.447,0,0,1-3.66,2.774v1.006h3.885c1.426,0,1.905-.03,1.98-.03.1,0,.12.015.12.12Z" fill="#595858"/>
  </g>
</svg>
